<svg width="256" height="256" viewBox="0 0 256 256" fill="none" xmlns="http://www.w3.org/2000/svg">
<circle cx="128" cy="128" r="128" fill="#0061E2"/>
<path d="M191.75 134.312H149.25C146.432 134.312 143.73 135.432 141.737 137.424C139.744 139.417 138.625 142.12 138.625 144.938V182.125C138.58 184.626 139.418 187.062 140.992 189.006C142.566 190.949 144.776 192.275 147.231 192.75L145.478 194.503C144.98 194.997 144.585 195.585 144.315 196.232C144.046 196.879 143.907 197.574 143.907 198.275C143.907 198.976 144.046 199.671 144.315 200.318C144.585 200.965 144.98 201.553 145.478 202.047C145.972 202.545 146.56 202.94 147.207 203.21C147.854 203.479 148.549 203.618 149.25 203.618C149.951 203.618 150.646 203.479 151.293 203.21C151.94 202.94 152.528 202.545 153.022 202.047L162.053 192.75H178.947L187.978 201.834C188.472 202.332 189.06 202.728 189.707 202.997C190.354 203.267 191.049 203.406 191.75 203.406C192.451 203.406 193.146 203.267 193.793 202.997C194.44 202.728 195.028 202.332 195.522 201.834C196.02 201.341 196.415 200.753 196.685 200.106C196.954 199.458 197.093 198.764 197.093 198.062C197.093 197.361 196.954 196.667 196.685 196.019C196.415 195.372 196.02 194.784 195.522 194.291L193.769 192.75C196.224 192.275 198.434 190.949 200.008 189.006C201.582 187.062 202.42 184.626 202.375 182.125V144.938C202.375 142.12 201.256 139.417 199.263 137.424C197.27 135.432 194.568 134.312 191.75 134.312ZM149.25 144.938H191.75V160.875H149.25V144.938ZM181.125 176.812C181.125 175.404 181.685 174.052 182.681 173.056C183.677 172.06 185.029 171.5 186.437 171.5H191.75V182.125H186.437C185.029 182.125 183.677 181.565 182.681 180.569C181.685 179.573 181.125 178.221 181.125 176.812ZM149.25 171.5H154.562C155.971 171.5 157.323 172.06 158.319 173.056C159.315 174.052 159.875 175.404 159.875 176.812C159.875 178.221 159.315 179.573 158.319 180.569C157.323 181.565 155.971 182.125 154.562 182.125H149.25V171.5Z" fill="white"/>
<path d="M149.25 123.688H158.441C159.356 118.423 159.836 113.093 159.875 107.75C159.875 93.6604 154.278 80.1478 144.315 70.185C134.352 60.2221 120.84 54.625 106.75 54.625C92.6604 54.625 79.1478 60.2221 69.185 70.185C59.2221 80.1478 53.625 93.6604 53.625 107.75C53.625 162.841 101.438 200.666 103.509 202.259C104.438 202.974 105.578 203.362 106.75 203.362C107.922 203.362 109.062 202.974 109.991 202.259C116.528 196.874 122.557 190.899 128 184.409C127.948 183.649 127.948 182.886 128 182.125V144.938C128 139.302 130.239 133.897 134.224 129.911C138.209 125.926 143.614 123.688 149.25 123.688ZM106.75 134.312C101.496 134.312 96.3608 132.755 91.9927 129.836C87.6245 126.917 84.2199 122.769 82.2095 117.915C80.199 113.061 79.673 107.721 80.6979 102.568C81.7228 97.4153 84.2526 92.6823 87.9675 88.9675C91.6823 85.2526 96.4153 82.7228 101.568 81.6979C106.721 80.673 112.061 81.199 116.915 83.2095C121.769 85.2199 125.917 88.6245 128.836 92.9927C131.755 97.3608 133.312 102.496 133.312 107.75C133.312 114.795 130.514 121.551 125.533 126.533C120.551 131.514 113.795 134.312 106.75 134.312Z" fill="white"/>
</svg>
