<svg width="256" height="256" viewBox="0 0 256 256" fill="none" xmlns="http://www.w3.org/2000/svg">
<circle cx="128" cy="128" r="128" fill="#0061E2"/>
<g clip-path="url(#clip0_902_159)">
<path d="M113.833 214C126.661 214 137.393 204.855 139.857 192.75H87.8087C90.2742 204.855 101.006 214 113.833 214Z" fill="white"/>
<path d="M167.496 146.679C167.312 146.679 167.142 146.708 166.958 146.708C135.713 146.708 110.292 121.287 110.292 90.0421C110.292 77.766 114.258 66.4264 120.917 57.1321V51.0829C120.917 47.166 117.743 44 113.833 44C109.924 44 106.75 47.166 106.75 51.0829V58.7339C82.7581 62.1904 64.25 82.8243 64.25 107.75V127.498C64.25 141.516 58.1087 154.748 47.3346 163.857C44.5797 166.216 43 169.644 43 173.27C43 180.107 48.5602 185.667 55.3954 185.667H172.27C179.107 185.667 184.667 180.107 184.667 173.27C184.667 169.644 183.087 166.216 180.261 163.801C174.679 159.076 170.373 153.197 167.496 146.679Z" fill="white"/>
<path d="M166.958 44C141.572 44 120.917 64.6547 120.917 90.0421C120.917 115.428 141.572 136.083 166.958 136.083C192.345 136.083 213 115.428 213 90.0421C213 64.6547 192.345 44 166.958 44ZM174.042 105.98C174.042 108.912 171.662 111.292 168.73 111.292C165.797 111.292 163.417 108.912 163.417 105.98V82.9579H159.875C156.943 82.9579 154.563 80.5779 154.563 77.6454C154.563 74.7129 156.943 72.3329 159.875 72.3329H168.73C171.662 72.3329 174.042 74.7129 174.042 77.6454V105.98Z" fill="white"/>
</g>
<defs>
<clipPath id="clip0_902_159">
<rect width="170" height="170" fill="white" transform="translate(43 44)"/>
</clipPath>
</defs>
</svg>
