<svg width="256" height="256" viewBox="0 0 256 256" fill="none" xmlns="http://www.w3.org/2000/svg">
<circle cx="128" cy="128" r="128" fill="#0061E2"/>
<g clip-path="url(#clip0_902_153)">
<path d="M128 43C116.254 43 106.254 50.6727 102.76 61.2669C94.0982 64.8263 86.2945 70.1725 79.8503 76.9606C76.6862 75.6241 73.2114 74.8854 69.5677 74.8854C54.93 74.8854 43 86.8172 43 101.453C43 113.36 50.8977 123.462 61.7234 126.817C62.0476 131.998 62.9814 137.122 64.499 142.085C62.8576 143.167 61.1294 144.48 59.6483 146.059C58.2723 147.527 57.0865 149.279 56.551 151.393C56.0156 153.506 56.2731 155.96 57.5108 158.251L61.5107 165.177C63.1672 168.046 65.9859 169.849 69.0385 170.339L80.4728 192.943C80.666 193.325 80.9446 193.654 81.2925 193.903L93.4739 202.608V210.297C93.4681 211.765 94.6523 212.959 96.1198 212.964C97.5949 212.97 98.7923 211.772 98.7864 210.297V206.401L99.9018 207.2C101.095 208.037 102.742 207.757 103.591 206.572C104.446 205.381 104.174 203.718 102.984 202.863L84.9241 189.965L74.683 169.711C77.7061 168.259 80.6743 166.383 83.6583 164.664L94.2573 175.06C94.6104 175.403 95.0482 175.639 95.5284 175.745L118.013 180.969C118.926 181.57 119.905 182.08 120.944 182.495L117.411 201.903C117.258 202.762 117.539 203.644 118.158 204.258L126.117 212.217C127.155 213.259 128.84 213.259 129.878 212.217L137.842 204.258C138.461 203.644 138.737 202.762 138.583 201.903L135.05 182.495C136.091 182.08 137.073 181.57 137.987 180.969L160.466 175.745C160.94 175.635 161.374 175.399 161.722 175.06L172.326 164.664C175.249 166.369 178.409 168.204 181.312 169.711L171.076 189.965C165.048 194.27 159.034 198.569 153.016 202.863C151.819 203.712 151.538 205.376 152.389 206.572C153.238 207.769 154.897 208.051 156.093 207.2L157.214 206.401V210.297C157.208 211.772 158.405 212.97 159.88 212.964C161.348 212.959 162.532 211.765 162.526 210.297V202.603L174.702 193.903C175.05 193.654 175.334 193.325 175.527 192.943L186.961 170.339C190.012 169.848 192.834 168.045 194.489 165.177L198.489 158.246C199.724 155.952 199.984 153.506 199.449 151.393C198.914 149.279 197.707 147.527 196.331 146.059C194.855 144.485 193.137 143.181 191.506 142.101C193.023 137.135 193.954 132.005 194.277 126.822C205.103 123.468 213 113.36 213 101.453C213 86.8172 201.065 74.8854 186.427 74.8854C182.785 74.8854 179.313 75.6252 176.15 76.9606C169.707 70.1769 161.896 64.8206 153.24 61.2617C149.745 50.6699 139.745 43 128 43ZM128 48.3125C139.767 48.3125 149.25 57.7828 149.25 69.5469C149.25 81.311 139.767 90.8021 128 90.8021C116.233 90.8021 106.745 81.311 106.745 69.5469C106.745 57.7828 116.233 48.3125 128 48.3125ZM128 53.6458C126.533 53.64 125.338 54.8293 125.333 56.2968C120.977 56.3084 117.375 59.8963 117.375 64.2552C117.375 68.6141 120.968 72.2149 125.333 72.2136V77.5105H120.042C118.574 77.5047 117.38 78.6888 117.375 80.1564C117.369 81.6316 118.566 82.8288 120.042 82.823H125.333C125.338 84.2905 126.533 85.4747 128 85.4689C129.46 85.4638 130.636 84.2829 130.641 82.823C135.007 82.823 138.625 79.2304 138.625 74.8646C138.625 70.4988 135.018 66.914 130.651 66.9011L130.641 61.6093H135.958C137.434 61.6151 138.631 60.4179 138.625 58.9427C138.62 57.4752 137.426 56.291 135.958 56.2968H130.641C130.636 54.8369 129.46 53.6508 128 53.6458ZM125.318 61.6093L125.333 66.9011C123.824 66.9055 122.687 65.7655 122.687 64.2552C122.687 62.7921 123.81 61.6774 125.318 61.6093ZM154.5 67.6429C160.744 70.6479 166.439 74.6927 171.33 79.6116C164.416 84.4158 159.88 92.4208 159.88 101.453C159.88 116.089 171.789 128 186.427 128C187.249 128 188.062 127.959 188.865 127.886C188.536 131.763 187.839 135.598 186.78 139.341C183.24 137.864 178.887 139.089 176.798 142.708L173.099 149.058C170.451 149.615 168.982 151.13 167.859 152.866C166.298 155.57 166.521 158.861 168.155 161.317L158.547 170.749L143.813 174.163C145.216 171.295 146.052 167.933 146.397 164.155C151.849 161.88 155.238 156.173 154.448 150.179C153.617 143.862 148.373 139.042 142.085 138.656C138.081 135.104 133.044 133.333 128 133.333C122.968 133.333 117.946 135.096 113.946 138.63H104.099C102.632 138.625 101.437 139.809 101.432 141.276V143.943C101.432 149.801 104.643 155.073 109.593 157.841C109.474 158.505 109.412 159.18 109.411 159.875C109.411 165.429 110.27 170.255 112.182 174.163L97.4531 170.749L87.8553 161.328C89.4863 158.931 89.7198 155.73 88.1355 152.866C86.829 150.662 84.7857 149.433 82.8956 149.063L79.1966 142.708C77.1079 139.09 72.7591 137.865 69.2201 139.341C68.1591 135.597 67.4598 131.763 67.1293 127.886C67.9334 127.96 68.745 128 69.5677 128C84.2054 128 96.1198 116.089 96.1198 101.453C96.1198 92.4267 91.5867 84.4272 84.6803 79.622C89.5705 74.7017 95.2566 70.6533 101.5 67.6481C101.455 68.2759 101.432 68.9081 101.432 69.5469C101.432 84.1828 113.362 96.1198 128 96.1198C142.638 96.1198 154.568 84.1828 154.568 69.5469C154.568 68.9063 154.544 68.2724 154.5 67.6429ZM130.641 72.2136C132.169 72.2181 133.312 73.3543 133.312 74.8646C133.312 76.375 132.16 77.5105 130.641 77.5105V72.2136ZM69.5677 80.1979C81.335 80.1979 90.8021 89.689 90.8021 101.453C90.8021 113.217 81.335 122.687 69.5677 122.687C57.8003 122.687 48.3125 113.217 48.3125 101.453C48.3125 89.689 57.8003 80.1979 69.5677 80.1979ZM186.427 80.1979C198.194 80.1979 207.682 89.689 207.682 101.453C207.682 113.217 198.194 122.687 186.427 122.687C174.66 122.687 165.172 113.217 165.172 101.453C165.172 89.689 174.66 80.1979 186.427 80.1979ZM186.437 88.1666C185.851 88.1666 185.267 88.361 184.782 88.7477L171.485 99.3727C170.346 100.289 170.164 101.954 171.076 103.098C171.992 104.237 173.657 104.424 174.801 103.513L175.802 102.714V109.411C175.807 110.879 177.001 112.063 178.469 112.057H194.411C195.871 112.052 197.052 110.871 197.057 109.411V102.714L198.059 103.513C199.202 104.424 200.867 104.237 201.784 103.098C202.695 101.954 202.508 100.289 201.369 99.3727L188.098 88.7477C187.613 88.361 187.023 88.1666 186.437 88.1666ZM69.5677 90.8229C68.0925 90.817 66.8952 92.0143 66.901 93.4895V98.7864H61.5885C60.1211 98.7915 58.9369 99.9855 58.9427 101.453C58.9477 102.913 60.1287 104.094 61.5885 104.099H66.901V109.432C66.9061 110.9 68.1002 112.084 69.5677 112.078C71.0275 112.073 72.2085 110.892 72.2135 109.432V104.099H77.5313C78.9987 104.105 80.1928 102.921 80.1979 101.453C80.2037 99.9779 79.0064 98.7806 77.5313 98.7864H72.2136V93.4895C72.2194 92.022 71.0352 90.8279 69.5677 90.8229ZM186.427 94.2158L191.766 98.4803L191.739 106.745H181.114L181.093 98.4803L186.427 94.2158ZM138.013 106.792C137.32 106.739 136.612 106.941 136.093 107.336L124.69 116.493L121.043 112.846C120.007 111.816 118.333 111.816 117.297 112.846C116.254 113.884 116.254 115.569 117.297 116.607L122.61 121.925C123.566 122.877 125.082 122.957 126.137 122.117L139.408 111.492C140.554 110.581 140.746 108.915 139.839 107.767C139.383 107.15 138.706 106.844 138.013 106.792ZM128 138.609C132.076 138.609 136.145 140.171 139.268 143.294C139.972 143.994 140.975 144.22 141.867 143.969C145.618 144.243 148.674 147.077 149.172 150.863C149.541 153.662 148.422 156.327 146.381 158.028C145.803 154.902 144.11 152.051 141.369 150.08C138.14 147.757 133.68 146.589 128 146.589C126.525 146.583 125.328 147.78 125.333 149.255C125.338 150.723 126.533 151.907 128 151.901C132.944 151.901 136.275 152.955 138.272 154.391C140.255 155.818 141.106 157.575 141.25 159.984C141.232 166.206 139.968 170.943 137.8 173.924C137.175 174.784 136.485 175.525 135.419 176.357C133.288 177.83 130.995 178.474 128 178.474C124.983 178.474 122.67 177.822 120.566 176.352C119.524 175.537 118.826 174.793 118.195 173.924C116.011 170.922 114.729 166.172 114.729 159.885C114.731 157.354 115.78 155.406 118.568 153.862C119.851 153.152 120.32 151.54 119.611 150.256C118.901 148.974 117.284 148.51 116 149.219C114.25 150.188 112.809 151.46 111.725 152.928C108.689 151.028 106.745 147.682 106.745 143.943H114.049C114.963 144.232 116.001 144.016 116.726 143.294C119.85 140.171 123.924 138.609 128 138.609ZM71.9749 144.098C72.9978 144.017 74.045 144.498 74.6104 145.354L77.2563 149.961L74.9632 151.278C73.6904 152.009 73.2513 153.633 73.9827 154.905C74.7133 156.178 76.3367 156.617 77.6091 155.885L79.9229 154.552C81.1766 153.825 82.8511 154.264 83.5493 155.533C84.2639 156.831 83.8829 158.4 82.5688 159.159L73.3705 164.472C70.782 165.966 67.6122 165.12 66.1177 162.531L62.1592 155.688C61.4882 154.441 61.4546 153.608 61.6871 152.69C61.9196 151.772 62.5536 150.726 63.5289 149.686C65.4796 147.605 68.6785 145.701 70.9788 144.373C71.2956 144.213 71.634 144.126 71.9749 144.098ZM183.895 144.129C184.325 144.126 184.725 144.205 185.016 144.373C187.316 145.701 190.515 147.605 192.466 149.686C193.441 150.726 194.06 151.772 194.292 152.69C194.525 153.608 194.491 154.441 193.82 155.688L189.877 162.531C188.383 165.12 185.213 165.966 182.624 164.472L172.98 158.837C172.029 158.014 171.782 156.683 172.446 155.533C173.204 154.219 174.763 153.793 176.077 154.552L178.391 155.885C179.663 156.617 181.287 156.178 182.017 154.905C182.749 153.632 182.31 152.009 181.037 151.278L178.744 149.961L181.39 145.354C181.852 144.553 182.95 144.137 183.895 144.129ZM126.117 183.703C126.732 183.759 127.361 183.787 128 183.787C128.634 183.787 129.252 183.758 129.862 183.703L133.095 201.472L128 206.593L122.905 201.472L126.117 183.703ZM143.937 191.745C142.462 191.739 141.265 192.941 141.271 194.417C141.276 195.884 142.47 197.068 143.937 197.062H151.896C153.363 197.068 154.563 195.884 154.568 194.417C154.574 192.941 153.371 191.739 151.896 191.745H143.937Z" fill="white"/>
</g>
<defs>
<clipPath id="clip0_902_153">
<rect width="170" height="170" fill="white" transform="translate(43 43)"/>
</clipPath>
</defs>
</svg>
