<svg width="256" height="256" viewBox="0 0 256 256" fill="none" xmlns="http://www.w3.org/2000/svg">
<circle cx="128" cy="128" r="128" fill="#0061E2"/>
<g clip-path="url(#clip0_903_183)">
<path d="M128 132.98C130.751 132.98 132.98 130.751 132.98 128C132.98 125.249 130.751 123.02 128 123.02C125.249 123.02 123.02 125.249 123.02 128C123.02 130.751 125.249 132.98 128 132.98Z" fill="white"/>
<path d="M120.893 189.968L151.249 136.347C155.224 129.325 162.414 125.133 170.484 125.133C178.553 125.133 185.744 129.325 189.719 136.347L191.93 140.252C192.687 136.254 193.078 132.157 193.078 128C193.078 110.617 186.309 94.2746 174.018 81.9828C161.725 69.6913 145.383 62.9219 128 62.9219C110.617 62.9219 94.2746 69.6913 81.9828 81.9825C69.6913 94.2746 62.9219 110.617 62.9219 128C62.9219 145.383 69.6913 161.725 81.9825 174.017C92.2814 184.316 105.425 190.735 119.64 192.547C119.999 191.671 120.416 190.81 120.893 189.968ZM97.9512 132.814C95.2006 132.814 92.9707 130.585 92.9707 127.834C92.9707 125.083 95.2006 122.854 97.9512 122.854H113.972C115.503 118.693 118.837 115.399 123.02 113.915V97.7852C123.02 95.0346 125.249 92.8047 128 92.8047C130.751 92.8047 132.98 95.0346 132.98 97.7852V113.915C138.777 115.971 142.941 121.507 142.941 128C142.941 136.239 136.239 142.941 128 142.941C121.446 142.941 115.868 138.697 113.859 132.814H97.9512Z" fill="white"/>
<path d="M121.033 211.99C119.275 208.975 118.279 205.698 118.045 202.384C101.775 200.24 86.7381 192.859 74.9394 181.061C60.7663 166.887 52.9609 148.044 52.9609 128C52.9609 107.956 60.7663 89.1125 74.9391 74.9391C89.1125 60.7663 107.957 52.9609 128 52.9609C148.043 52.9609 166.888 60.7663 181.061 74.9394C195.234 89.1125 203.039 107.956 203.039 128C203.039 136.508 201.628 144.798 198.925 152.608L205.192 163.68C210.303 152.64 213 140.528 213 128C213 105.296 204.158 83.9501 188.104 67.8957C172.05 51.8417 150.704 43 128 43C105.296 43 83.9504 51.8417 67.8957 67.8957C51.8417 83.9501 43 105.296 43 128C43 150.704 51.8417 172.05 67.8957 188.104C82.4088 202.617 101.246 211.234 121.501 212.755C121.341 212.504 121.184 212.25 121.033 211.99Z" fill="white"/>
<path d="M211.406 194.876L181.05 141.254C178.867 137.397 174.916 135.094 170.483 135.094C166.051 135.094 162.1 137.397 159.917 141.254L129.561 194.876C127.409 198.677 127.437 203.2 129.638 206.974C131.838 210.747 135.76 213 140.128 213H200.839C205.208 213 209.129 210.747 211.33 206.974C213.53 203.2 213.558 198.677 211.406 194.876ZM175.362 196.839C174.892 199.139 172.831 200.844 170.478 200.844C168.401 200.844 166.488 199.501 165.793 197.542C165.098 195.584 165.706 193.334 167.32 192.015C168.934 190.696 171.247 190.528 173.037 191.593C174.818 192.653 175.777 194.806 175.362 196.839ZM175.464 176.507C175.464 179.257 173.234 181.487 170.483 181.487C167.733 181.487 165.503 179.257 165.503 176.507V160.519C165.503 157.768 167.733 155.539 170.483 155.539C173.234 155.539 175.464 157.768 175.464 160.519V176.507Z" fill="white"/>
</g>
<defs>
<clipPath id="clip0_903_183">
<rect width="170" height="170" fill="white" transform="translate(43 43)"/>
</clipPath>
</defs>
</svg>
