<svg width="256" height="256" viewBox="0 0 256 256" fill="none" xmlns="http://www.w3.org/2000/svg">
<circle cx="128" cy="128" r="128" fill="#0061E2"/>
<path d="M70.8498 107.464C68.7731 105.429 67.1268 102.999 66.0083 100.319C64.8897 97.6385 64.3215 94.7616 64.3373 91.8584V85.6393C64.3205 82.7345 64.8882 79.8558 66.0069 77.1736C67.1255 74.4914 68.7722 72.0601 70.8498 70.0236C75.1276 65.8618 80.877 63.5467 86.8537 63.5794C92.7132 63.6027 98.326 65.9346 102.468 70.0669C106.611 74.1993 108.947 79.7968 108.967 85.6393V91.8584C108.944 97.699 106.606 103.294 102.464 107.424C98.3224 111.554 92.7113 113.884 86.8537 113.907C80.8762 113.945 75.1251 111.629 70.8498 107.464ZM104.72 119.852C102.041 119.115 99.2745 118.745 96.4959 118.754H76.8111C68.1344 118.754 60.8254 122.187 55.2573 127.739C49.0795 133.898 45.0168 142.648 43.5698 152.231L43 155.978H104.051C100.829 150.475 99.1876 144.193 99.3055 137.822C99.4234 131.45 101.296 125.234 104.72 119.852ZM165.574 115.527L183.437 97.7156L187.943 102.208L189.902 82.865L170.511 84.8266L175.007 89.3092L157.144 107.132L165.574 115.527ZM183.437 179.224L165.574 161.401L157.143 169.808L175.007 187.619L170.511 192.111L189.902 194.073L187.943 174.73L183.437 179.224ZM213 138.469L197.9 126.179V132.526H172.627V144.413H197.9V150.76L213 138.469ZM164.118 138.469C164.119 144.382 162.361 150.162 159.068 155.079C155.774 159.995 151.092 163.827 145.614 166.09C140.136 168.353 134.107 168.946 128.291 167.793C122.476 166.64 117.133 163.793 112.94 159.612C108.747 155.431 105.892 150.104 104.735 144.306C103.578 138.507 104.172 132.496 106.442 127.034C108.711 121.571 112.555 116.903 117.485 113.618C122.416 110.334 128.213 108.581 134.143 108.582C142.088 108.598 149.703 111.752 155.321 117.353C160.939 122.955 164.102 130.548 164.118 138.469ZM146.106 145.453C146.106 142.717 144.66 140.284 142.318 138.567C139.925 136.887 137.06 136.005 134.134 136.046C132.242 136.09 130.384 135.541 128.821 134.477C127.709 133.662 127.021 132.593 127.021 131.485C127.021 130.367 127.709 129.308 128.821 128.493C130.383 127.426 132.241 126.873 134.134 126.914C135.655 126.896 137.159 127.239 138.521 127.914C139.549 128.398 140.399 129.19 140.951 130.181C141.089 130.466 141.282 130.721 141.52 130.932C141.757 131.143 142.033 131.305 142.333 131.409C142.634 131.514 142.951 131.558 143.269 131.54C143.586 131.522 143.896 131.441 144.183 131.304C144.469 131.166 144.725 130.973 144.936 130.737C145.148 130.5 145.31 130.224 145.415 129.925C145.52 129.626 145.564 129.309 145.546 128.993C145.528 128.676 145.447 128.367 145.309 128.081C144.309 126.143 142.708 124.578 140.744 123.619C139.43 122.953 138.019 122.497 136.563 122.265V119.538C136.563 118.897 136.308 118.282 135.853 117.828C135.398 117.375 134.782 117.12 134.139 117.12C133.495 117.12 132.879 117.375 132.424 117.828C131.969 118.282 131.714 118.897 131.714 119.538V122.265C129.638 122.576 127.666 123.373 125.959 124.59C123.618 126.306 122.171 128.738 122.171 131.485C122.171 134.222 123.618 136.654 125.959 138.371C128.349 140.049 131.21 140.932 134.134 140.892C136.029 140.847 137.89 141.396 139.456 142.461C140.567 143.276 141.256 144.335 141.256 145.453C141.256 146.571 140.567 147.631 139.456 148.445C137.89 149.511 136.029 150.061 134.134 150.016C132.616 150.034 131.116 149.694 129.756 149.023C128.731 148.539 127.885 147.747 127.336 146.758C127.198 146.472 127.004 146.216 126.767 146.005C126.529 145.793 126.253 145.63 125.952 145.526C125.651 145.421 125.333 145.376 125.015 145.394C124.697 145.412 124.386 145.492 124.099 145.63C123.813 145.768 123.556 145.961 123.344 146.197C123.132 146.434 122.969 146.71 122.863 147.01C122.758 147.31 122.714 147.627 122.732 147.944C122.749 148.261 122.83 148.571 122.968 148.857C123.978 150.792 125.58 152.355 127.542 153.32C128.853 153.987 130.261 154.443 131.714 154.674V157.391C131.714 158.032 131.969 158.647 132.424 159.1C132.879 159.554 133.495 159.808 134.139 159.808C134.782 159.808 135.398 159.554 135.853 159.1C136.308 158.647 136.563 158.032 136.563 157.391V154.674C138.638 154.355 140.609 153.555 142.318 152.339C144.66 150.633 146.106 148.2 146.106 145.453Z" fill="white"/>
</svg>
