<svg width="854" height="626" viewBox="0 0 854 626" fill="none" xmlns="http://www.w3.org/2000/svg">
<g opacity="0.3">
<path d="M828.32 0L745.492 501.538L49.2538 546.098C40.539 358.711 30.3069 138.89 25.6953 39.4756L828.32 0Z" fill="#BAC5F3"/>
</g>
<path d="M804.5 74.3593H525.012C530.844 64.9297 536.681 55.5053 542.523 46.0862C547.815 37.5498 554.916 28.0725 565.473 28.8884C572.574 29.4423 578.871 34.7189 583.727 40.3589C588.583 45.9988 592.694 52.411 598.555 56.9869C604.416 61.5628 612.886 63.8656 618.398 59.9647C625.061 55.2419 623.865 44.9248 625.945 36.8371C629.182 24.2153 642.784 16.0541 656.154 18.7063C665.777 20.63 674.227 27.203 681.554 34.2425C690.569 42.894 711.716 68.4693 731.767 59.2798C739.771 55.6211 743.751 46.8346 750.343 41.1351C774.521 20.2687 806.792 47.7398 804.5 74.3593Z" fill="white"/>
<path d="M200.607 90.781H28.0651L27.4395 77.111C32.2675 80.2635 38.5295 81.5618 42.7539 78.58C48.4022 74.5739 47.3873 65.8212 49.1529 58.9583C51.8976 48.2581 63.4326 41.3377 74.7729 43.581C82.9375 45.2188 90.1111 50.7972 96.3175 56.7607C102.524 62.7243 108.262 69.327 115.423 74.0319C122.585 78.7369 131.762 81.2839 138.914 78.0023C145.701 74.8955 149.071 67.453 154.662 62.6151C161.643 56.594 172.337 55.0455 181.672 58.7221C189.27 61.6999 201.906 75.6995 200.607 90.781Z" fill="white"/>
<g opacity="0.31">
<path d="M788.613 240.429L769.324 357.252C732.432 331.665 677.674 308.321 621.002 336.308C520.743 385.843 428.952 459.505 348.61 429.89C268.277 400.343 268.163 387.959 176.273 385.684C140.985 384.818 94.8233 394.208 44.3022 439.78L30.4893 142.868C56.0636 138.451 94.4717 130.163 141.708 114.8C230.442 86.0383 310.401 82.4649 364.431 160.475C418.471 238.442 465.145 273.064 525.563 230.769C585.98 188.532 642.74 184.298 688.643 212.672C716.4 229.82 759.134 237.241 788.613 240.429Z" fill="#BAC5F3"/>
</g>
<path d="M334.001 327.095H39.0537C38.9524 324.945 39.7508 341.853 31.2188 158.69H237.928C272.851 160.032 302.445 181.248 335.91 223.829C345.703 236.268 355.814 250.542 366.483 266.669C383.551 292.441 365.035 327.095 334.001 327.095Z" fill="white"/>
<path d="M335.914 223.835H191.693C190.429 223.835 189.217 223.333 188.323 222.44C187.429 221.546 186.927 220.334 186.927 219.071V158.697H237.928C272.855 160.039 302.449 181.255 335.914 223.835Z" fill="#5094FF"/>
<path d="M320.075 354.304V354.316C319.124 354.858 331.628 354.492 40.3504 354.6V354.588C40.3504 354.475 38.978 325.243 39.0634 327.089H302.973V327.101H302.985C322.051 352.835 320.86 351.189 320.941 351.39C321.196 351.894 321.248 352.477 321.087 353.019C320.926 353.56 320.564 354.02 320.075 354.304Z" fill="#4C5C75"/>
<path d="M151.349 208.912V262.115C151.349 262.434 151.287 262.75 151.165 263.044C151.043 263.339 150.865 263.606 150.639 263.831C150.414 264.056 150.146 264.235 149.851 264.356C149.557 264.478 149.241 264.54 148.922 264.539H36.1463C35.3717 247.888 34.2496 223.777 33.4473 206.492H148.918C149.237 206.491 149.553 206.553 149.848 206.674C150.142 206.795 150.41 206.973 150.636 207.197C150.862 207.422 151.041 207.69 151.164 207.984C151.286 208.278 151.349 208.594 151.349 208.912Z" fill="#5094FF"/>
<path d="M212.735 354.594C212.735 360.628 210.337 366.414 206.069 370.681C201.8 374.947 196.011 377.344 189.975 377.344C183.939 377.344 178.149 374.947 173.881 370.681C169.613 366.414 167.215 360.628 167.215 354.594H212.735Z" fill="#1D2943"/>
<g opacity="0.4">
<path d="M167.226 327.095V354.582H212.738V327.095H167.226ZM206.351 349.924H173.609V331.772H206.351V349.924Z" fill="#1D2943"/>
</g>
<path d="M371.039 377.344H41.3418V378.482H371.039V377.344Z" fill="#4C5C75"/>
<path d="M71.47 354.6C71.4561 370.271 56.0007 381.163 41.3417 376.111L40.3486 354.6H71.47Z" fill="#1D2943"/>
<g opacity="0.4">
<path d="M39.0537 327.095L39.2702 331.762H65.0709V349.924H40.1182L40.3347 354.592H71.47V327.095H39.0537Z" fill="#1D2943"/>
</g>
<path d="M146.55 353.804H90.0195V363.444H146.55V353.804Z" fill="#1D2943"/>
<path d="M211.691 243.747H190.045C188.326 243.747 186.933 245.139 186.933 246.857V299.169C186.933 300.887 188.326 302.28 190.045 302.28H211.691C213.409 302.28 214.803 300.887 214.803 299.169V246.857C214.803 245.139 213.409 243.747 211.691 243.747Z" fill="#E3E7F0"/>
<path d="M85.378 206.486H80.4863V264.522H85.378V206.486Z" fill="white"/>
<g opacity="0.5">
<path d="M334.002 327.095H302.974C322.22 353.057 321.047 351.271 321.162 352.055C321.229 352.495 321.161 352.944 320.967 353.345C320.773 353.745 320.462 354.078 320.075 354.298V354.31C319.098 354.832 325.525 354.475 212.743 354.582V354.594C212.743 360.627 210.346 366.412 206.078 370.678C201.811 374.944 196.023 377.34 189.987 377.34C183.952 377.34 178.164 374.944 173.896 370.678C169.629 366.412 167.231 360.627 167.231 354.594V354.582H146.543V363.438H90.0197V354.582H71.4701V354.594C71.4561 370.265 56.0007 381.158 41.3417 376.105L40.3487 354.594V354.582L40.1183 349.925C40.1183 350.052 32.1523 178.88 31.2129 158.701H237.929C283.054 160.43 319.287 195.361 366.483 266.679C383.551 292.441 365.036 327.095 334.002 327.095Z" fill="white"/>
</g>
<g opacity="0.3">
<path d="M854 607.881C854 617.874 662.817 626 427 626C191.183 626 0 617.874 0 607.881C0 597.887 191.171 589.772 427 589.772C662.829 589.772 854 597.876 854 607.881Z" fill="#BAC5F3"/>
</g>
<g opacity="0.6">
<path d="M751.323 466.239L754.026 449.867H44.8408L45.6015 466.239H751.323Z" fill="#BAC5F3"/>
</g>
<g opacity="0.3">
<path d="M45.5303 466.239L49.2442 546.098L745.493 501.538L751.324 466.239H45.5303Z" fill="#BAC5F3"/>
</g>
<path d="M131.956 34.2588V540.806L130.874 540.875V34.3044L131.956 34.2588Z" fill="#A39DC8"/>
<path d="M170.193 32.3706V538.36L169.112 538.427V32.4262L170.193 32.3706Z" fill="#A39DC8"/>
<path d="M304.602 25.7681V529.754L303.52 529.823V25.8137L304.602 25.7681Z" fill="#A39DC8"/>
<path d="M342.849 23.8779V527.308L341.767 527.375V23.9355L342.849 23.8779Z" fill="#A39DC8"/>
<path d="M477.257 17.2651V518.702L476.177 518.771V17.3227L477.257 17.2651Z" fill="#A39DC8"/>
<path d="M515.495 15.3872V516.254L514.412 516.324V15.4448L515.495 15.3872Z" fill="#A39DC8"/>
<path d="M649.89 8.77441V507.662L648.819 507.73V8.83198L649.89 8.77441Z" fill="#A39DC8"/>
<path d="M688.128 6.89648V505.215L687.058 505.284V6.95405L688.128 6.89648Z" fill="#A39DC8"/>
<path d="M806.971 129.252L806.8 130.332H29.9099L29.8643 129.252H806.971Z" fill="#A39DC8"/>
<path d="M772.707 529.72H712.99V452.422C712.993 450.252 713.857 448.171 715.392 446.635C716.927 445.1 719.009 444.237 721.181 444.233H764.51C766.682 444.237 768.764 445.1 770.299 446.635C771.834 448.171 772.698 450.252 772.701 452.422L772.707 529.72ZM716.412 526.305H769.291V452.422C769.287 451.16 768.784 449.95 767.891 449.057C766.997 448.165 765.787 447.662 764.524 447.658H721.187C719.924 447.662 718.713 448.165 717.82 449.057C716.927 449.95 716.424 451.16 716.42 452.422L716.412 526.305Z" fill="#B0B8CF"/>
<path d="M774.131 476.959H767.869V452.422C767.868 451.534 767.514 450.682 766.886 450.054C766.257 449.426 765.405 449.072 764.516 449.071H721.187C720.298 449.072 719.446 449.426 718.817 450.054C718.189 450.682 717.835 451.534 717.834 452.422V476.959H711.572V452.422C711.575 449.875 712.589 447.432 714.392 445.63C716.194 443.829 718.638 442.815 721.187 442.812H764.516C767.065 442.815 769.509 443.829 771.311 445.63C773.114 447.432 774.128 449.875 774.131 452.422V476.959Z" fill="#1D2943"/>
<path d="M756.944 494.997H696.012C690.313 494.997 685.692 499.615 685.692 505.312V600.703C685.692 606.4 690.313 611.018 696.012 611.018H756.944C762.643 611.018 767.263 606.4 767.263 600.703V505.312C767.263 499.615 762.643 494.997 756.944 494.997Z" fill="#FFD28B"/>
<path d="M794.021 505.334V600.72C794.022 602.073 793.757 603.412 793.24 604.662C792.723 605.912 791.964 607.047 791.007 608.004C790.051 608.96 788.915 609.718 787.664 610.235C786.414 610.752 785.074 611.017 783.721 611.016H756.961C758.314 611.017 759.654 610.752 760.904 610.235C762.155 609.718 763.291 608.96 764.247 608.004C765.204 607.047 765.963 605.912 766.48 604.662C766.997 603.412 767.262 602.073 767.261 600.72V505.334C767.267 503.978 767.005 502.634 766.49 501.379C765.975 500.125 765.217 498.985 764.26 498.024C763.303 497.063 762.166 496.3 760.913 495.779C759.661 495.259 758.317 494.991 756.961 494.991H783.715C785.072 494.99 786.416 495.258 787.669 495.778C788.922 496.298 790.061 497.06 791.018 498.021C791.976 498.983 792.734 500.123 793.249 501.378C793.764 502.633 794.027 503.977 794.021 505.334Z" fill="#FFBF5E"/>
<path d="M782.642 505.338V600.727C782.643 602.078 782.377 603.417 781.859 604.666C781.342 605.915 780.583 607.05 779.626 608.005C778.67 608.961 777.534 609.718 776.284 610.234C775.034 610.75 773.694 611.014 772.342 611.012H765.035C766.388 611.014 767.727 610.75 768.977 610.234C770.228 609.718 771.364 608.961 772.321 608.005C773.277 607.05 774.036 605.915 774.554 604.666C775.072 603.417 775.338 602.079 775.337 600.727V505.338C775.344 503.982 775.082 502.638 774.567 501.383C774.053 500.128 773.295 498.987 772.337 498.026C771.38 497.065 770.242 496.303 768.989 495.783C767.736 495.263 766.392 494.996 765.035 494.997H772.342C773.698 494.996 775.042 495.264 776.295 495.783C777.548 496.303 778.686 497.066 779.643 498.027C780.6 498.988 781.358 500.128 781.872 501.383C782.387 502.638 782.648 503.982 782.642 505.338Z" fill="#F3A250"/>
<path d="M791.262 609.545V611.008H787.534C783.848 611.008 780.758 606.942 780.758 601.938C780.758 596.897 783.848 592.867 787.534 592.867H791.262V594.336C795.296 597.876 795.373 605.858 791.262 609.545Z" fill="#1D2943"/>
<path d="M791.278 611.012C795.024 611.012 798.061 606.947 798.061 601.933C798.061 596.92 795.024 592.855 791.278 592.855C787.533 592.855 784.496 596.92 784.496 601.933C784.496 606.947 787.533 611.012 791.278 611.012Z" fill="#4C5C75"/>
<path d="M791.279 604.554C792.36 604.554 793.237 603.381 793.237 601.933C793.237 600.486 792.36 599.313 791.279 599.313C790.197 599.313 789.32 600.486 789.32 601.933C789.32 603.381 790.197 604.554 791.279 604.554Z" fill="white"/>
<path d="M696.012 504.663H756.944C758.095 504.663 759.199 505.12 760.013 505.933C760.827 506.747 761.284 507.85 761.284 509V542.878C761.284 543.447 761.172 544.011 760.954 544.537C760.736 545.063 760.416 545.541 760.013 545.943C759.611 546.346 759.132 546.665 758.606 546.883C758.08 547.101 757.516 547.213 756.946 547.213H696.014C694.863 547.213 693.76 546.756 692.946 545.943C692.132 545.129 691.675 544.026 691.675 542.876V509.004C691.674 508.434 691.786 507.87 692.004 507.344C692.222 506.817 692.541 506.338 692.944 505.935C693.347 505.532 693.825 505.212 694.351 504.994C694.878 504.775 695.442 504.663 696.012 504.663Z" fill="#FFB961"/>
<path d="M756.944 557.618H696.01C693.615 557.618 691.673 559.559 691.673 561.953V597.973C691.673 600.367 693.615 602.308 696.01 602.308H756.944C759.34 602.308 761.282 600.367 761.282 597.973V561.953C761.282 559.559 759.34 557.618 756.944 557.618Z" fill="#FFB961"/>
<path d="M753.421 516.24H699.535V517.834H753.421V516.24Z" fill="#111D33"/>
<path d="M704.378 529.363C703.977 529.363 703.579 529.279 703.212 529.116C702.845 528.953 702.517 528.715 702.248 528.416C701.98 528.117 701.777 527.766 701.654 527.383C701.53 527.001 701.489 526.598 701.532 526.198L702.327 518.887C702.381 518.379 702.622 517.909 703.002 517.568C703.382 517.227 703.875 517.038 704.386 517.038C704.897 517.038 705.39 517.227 705.77 517.568C706.15 517.909 706.391 518.379 706.446 518.887L707.24 526.198C707.283 526.599 707.241 527.004 707.117 527.387C706.992 527.77 706.788 528.122 706.518 528.421C706.248 528.72 705.918 528.958 705.549 529.121C705.18 529.283 704.781 529.365 704.378 529.363Z" fill="#111D33"/>
<path d="M753.421 569.759H699.535V571.353H753.421V569.759Z" fill="#111D33"/>
<path d="M748.575 582.881C748.977 582.882 749.374 582.797 749.741 582.634C750.109 582.471 750.437 582.232 750.706 581.933C750.974 581.634 751.177 581.282 751.3 580.9C751.423 580.518 751.465 580.114 751.421 579.715L750.637 572.403C750.582 571.896 750.342 571.426 749.961 571.085C749.581 570.743 749.088 570.555 748.577 570.555C748.066 570.555 747.573 570.743 747.193 571.085C746.813 571.426 746.573 571.896 746.518 572.403L745.723 579.715C745.68 580.115 745.722 580.519 745.846 580.901C745.97 581.284 746.173 581.636 746.442 581.935C746.711 582.233 747.04 582.472 747.408 582.635C747.775 582.798 748.173 582.882 748.575 582.881Z" fill="#111D33"/>
<path d="M471.289 550.298V606.865C471.286 608.115 470.787 609.314 469.9 610.197C469.014 611.08 467.813 611.575 466.562 611.573H301.764C301.144 611.574 300.53 611.452 299.957 611.215C299.385 610.979 298.864 610.631 298.426 610.193C297.988 609.755 297.64 609.235 297.403 608.662C297.166 608.09 297.044 607.476 297.045 606.857V550.298C297.044 549.679 297.166 549.065 297.403 548.493C297.64 547.92 297.988 547.4 298.426 546.962C298.864 546.524 299.385 546.176 299.957 545.94C300.53 545.703 301.144 545.581 301.764 545.582H466.562C467.182 545.581 467.797 545.702 468.37 545.939C468.943 546.176 469.464 546.523 469.903 546.961C470.342 547.399 470.69 547.919 470.928 548.492C471.166 549.064 471.288 549.678 471.289 550.298Z" fill="#F87266"/>
<path d="M471.289 598.272V606.872C471.284 608.122 470.784 609.318 469.898 610.2C469.012 611.081 467.812 611.575 466.562 611.573H457.104L457.124 611.353C457.415 607.795 459.032 604.475 461.656 602.053C464.279 599.63 467.717 598.281 471.289 598.272Z" fill="white"/>
<path d="M460.117 611.588H466.558C467.179 611.589 467.794 611.468 468.368 611.231C468.941 610.995 469.463 610.647 469.902 610.209C470.342 609.771 470.691 609.25 470.928 608.677C471.166 608.104 471.289 607.489 471.289 606.869V601.265C468.468 601.262 465.75 602.324 463.679 604.238C461.608 606.152 460.336 608.777 460.117 611.588Z" fill="#FFBF5E"/>
<path d="M311.214 611.573H301.756C301.136 611.574 300.522 611.452 299.95 611.215C299.377 610.978 298.856 610.631 298.418 610.193C297.98 609.755 297.632 609.235 297.395 608.662C297.158 608.09 297.037 607.476 297.037 606.856V598.272C300.61 598.285 304.048 599.639 306.67 602.066C309.292 604.492 310.906 607.815 311.194 611.375L311.214 611.573Z" fill="white"/>
<path d="M301.762 611.588H308.205C307.986 608.778 306.715 606.155 304.646 604.241C302.577 602.328 299.862 601.265 297.043 601.265V606.869C297.043 608.12 297.54 609.32 298.425 610.205C299.31 611.09 300.51 611.587 301.762 611.588Z" fill="#FFBF5E"/>
<path d="M471.288 550.298V559.77C467.524 559.767 463.914 558.271 461.251 555.611C458.587 552.952 457.088 549.345 457.082 545.582H466.569C467.821 545.582 469.021 546.079 469.906 546.964C470.79 547.848 471.288 549.048 471.288 550.298Z" fill="white"/>
<path d="M471.289 556.768V550.294C471.289 549.043 470.791 547.844 469.906 546.959C469.02 546.075 467.82 545.578 466.568 545.578H460.092C460.092 548.546 461.272 551.392 463.372 553.491C465.472 555.589 468.32 556.768 471.289 556.768Z" fill="#FFBF5E"/>
<path d="M311.241 545.582C311.235 549.343 309.738 552.949 307.077 555.608C304.416 558.268 300.808 559.764 297.045 559.77V550.298C297.044 549.679 297.166 549.065 297.403 548.493C297.64 547.92 297.988 547.4 298.426 546.962C298.864 546.524 299.385 546.176 299.957 545.94C300.53 545.703 301.144 545.581 301.764 545.582H311.241Z" fill="white"/>
<path d="M297.043 556.768C300.012 556.768 302.86 555.589 304.959 553.491C307.059 551.392 308.238 548.546 308.238 545.578H301.762C300.51 545.578 299.31 546.075 298.425 546.959C297.54 547.844 297.043 549.043 297.043 550.294V556.768Z" fill="#FFBF5E"/>
<g opacity="0.5">
<path d="M471.279 575.566V581.599H432.803V611.611H428.829V581.599H334.252V611.578H330.289V581.599H297.041V575.566H330.289V545.576H334.252V575.566H428.829V545.609H432.803V575.566H471.279Z" fill="white"/>
</g>
<path d="M411.609 574.152H404.665C404.136 574.152 403.706 574.582 403.706 575.111V582.051C403.706 582.581 404.136 583.01 404.665 583.01H411.609C412.138 583.01 412.568 582.581 412.568 582.051V575.111C412.568 574.582 412.138 574.152 411.609 574.152Z" fill="white"/>
<path d="M363.654 574.152H356.711C356.181 574.152 355.752 574.582 355.752 575.111V582.051C355.752 582.581 356.181 583.01 356.711 583.01H363.654C364.184 583.01 364.614 582.581 364.614 582.051V575.111C364.614 574.582 364.184 574.152 363.654 574.152Z" fill="white"/>
<path d="M401.892 596.593H366.426C365.419 596.589 364.445 596.242 363.662 595.61C362.88 594.978 362.336 594.098 362.122 593.115L359.067 578.845C359.036 578.699 359.034 578.548 359.061 578.401C359.088 578.254 359.144 578.114 359.225 577.989C359.306 577.863 359.411 577.755 359.534 577.67C359.657 577.586 359.796 577.526 359.942 577.494C360.088 577.463 360.239 577.461 360.386 577.488C360.533 577.515 360.674 577.571 360.799 577.652C360.925 577.733 361.033 577.838 361.118 577.961C361.203 578.084 361.262 578.223 361.294 578.369L364.348 592.639C364.452 593.113 364.714 593.537 365.092 593.842C365.47 594.147 365.94 594.314 366.426 594.316H401.894C402.38 594.314 402.85 594.147 403.228 593.842C403.605 593.537 403.868 593.113 403.972 592.639L407.026 578.369C407.089 578.074 407.267 577.816 407.521 577.652C407.774 577.488 408.083 577.431 408.378 577.494C408.673 577.558 408.931 577.735 409.095 577.989C409.259 578.242 409.316 578.55 409.253 578.845L406.196 593.111C405.982 594.094 405.439 594.975 404.657 595.608C403.874 596.242 402.899 596.589 401.892 596.593Z" fill="#1D2943"/>
<path d="M614.026 571.264H586.75V596.442H614.026V571.264Z" fill="#F5C9C6"/>
<path d="M616.568 605.856C615.972 606.253 615.514 606.815 611.583 607.385C596.179 609.612 567.89 603.877 567.89 603.877C567.89 603.877 556.254 601.326 561.324 595.936C561.669 595.619 562.057 595.352 562.476 595.142C567.288 592.76 574.22 595.196 577.191 593.927C580.917 592.323 583.586 588.428 586.932 584.964C585.308 593.28 594.996 590.215 599.484 586.911C603.973 583.608 607.677 582.306 612.489 583.781C617.301 585.256 616.525 603.831 616.568 605.856Z" fill="#FA5F7F"/>
<path d="M616.314 611.083C616.199 613.08 614.892 614.105 611.218 614.506C610.439 614.464 604.616 615.871 581.32 611.855C581.3 611.855 581.28 611.855 581.26 611.843C578.563 611.375 565.821 608.882 565.072 608.749C558.309 607.502 557.724 599.19 561.324 595.934C556.254 601.328 567.894 603.875 567.894 603.875C567.894 603.875 596.177 609.614 611.587 607.381C615.521 606.815 615.98 606.253 616.572 605.854C616.596 607.51 616.409 609.406 616.314 611.083Z" fill="#FEFEFE"/>
<path d="M549.466 571.264H522.189V596.442H549.466V571.264Z" fill="#F5C9C6"/>
<path d="M586.75 571.274H614.028V577.267C607.107 578.041 593.187 578.02 586.75 577.192V571.274Z" fill="#1D2943"/>
<path d="M522.189 571.274V577.17C527.421 578.472 542.104 578.611 549.468 577.611V571.274H522.189Z" fill="#1D2943"/>
<path d="M520.28 572.11C520.28 574.992 553.779 574.992 553.779 572.11L567.143 388.314H571.88L580.618 572.1C580.618 574.446 616.594 574.347 616.594 572.1L615.523 338.949L615.414 332.955L525.645 332.578L525.418 338.401L520.28 572.11Z" fill="#4AAFB6"/>
<path d="M525.424 338.41C536.673 344.942 601.227 345.124 615.523 338.958L615.414 332.965L525.644 332.59L525.424 338.41Z" fill="#1D2943"/>
<path d="M503.125 603.877C503.125 603.877 531.414 609.612 546.808 607.385C550.748 606.815 551.211 606.253 551.803 605.856C551.759 603.823 552.534 585.252 547.724 583.789C542.913 582.325 539.207 583.626 534.719 586.919C530.231 590.213 521.663 593.149 522.167 584.972C518.821 588.436 516.151 592.331 512.436 593.935C509.456 595.203 502.533 592.762 497.721 595.15C497.3 595.356 496.912 595.624 496.569 595.944C491.489 601.326 503.125 603.877 503.125 603.877Z" fill="#FA5F7F"/>
<path d="M551.546 611.083C551.433 613.08 550.126 614.105 546.452 614.506C545.674 614.464 539.851 615.871 516.554 611.855C516.534 611.855 516.515 611.855 516.495 611.843C514.125 611.433 500.964 608.866 500.849 608.85L500.304 608.749C493.552 607.502 492.956 599.19 496.557 595.934C491.488 601.328 503.129 603.875 503.129 603.875C503.129 603.875 531.412 609.614 546.812 607.381C550.748 606.815 551.207 606.253 551.797 605.854C551.83 607.51 551.644 609.406 551.546 611.083Z" fill="#1D2943"/>
<path d="M616.314 611.083C616.199 613.08 614.892 614.105 611.218 614.506C610.439 614.464 604.616 615.871 581.32 611.855C581.3 611.855 581.28 611.855 581.26 611.843C578.563 611.375 565.821 608.882 565.072 608.749C558.309 607.502 557.724 599.19 561.324 595.934C556.254 601.328 567.894 603.875 567.894 603.875C567.894 603.875 596.177 609.614 611.587 607.381C615.521 606.815 615.98 606.253 616.572 605.854C616.596 607.51 616.409 609.406 616.314 611.083Z" fill="#1D2943"/>
<path d="M541.333 384.997C541.243 384.997 541.157 384.967 541.086 384.912L531.897 377.664C531.85 377.627 531.812 377.58 531.785 377.526C531.759 377.473 531.745 377.414 531.744 377.354L531.571 357.631C531.571 357.576 531.582 357.522 531.604 357.472C531.626 357.422 531.658 357.377 531.698 357.339C531.738 357.302 531.785 357.273 531.837 357.255C531.889 357.237 531.944 357.23 531.998 357.234L554.441 358.927C554.495 358.931 554.549 358.946 554.597 358.972C554.646 358.997 554.688 359.032 554.723 359.075C554.757 359.117 554.782 359.167 554.797 359.22C554.811 359.273 554.814 359.328 554.806 359.382L551.827 379.861C551.818 379.926 551.792 379.987 551.754 380.04C551.715 380.093 551.664 380.135 551.605 380.163L541.505 384.963C541.451 384.987 541.392 384.999 541.333 384.997ZM532.54 377.157L541.386 384.133L551.07 379.532L553.96 359.68L532.372 358.05L532.54 377.157Z" fill="#1D2943"/>
<path d="M553.72 364.502H553.688L531.982 362.864C531.882 362.857 531.788 362.812 531.719 362.738C531.651 362.665 531.613 362.568 531.613 362.467L531.571 357.629C531.571 357.574 531.582 357.52 531.604 357.47C531.626 357.42 531.658 357.375 531.698 357.337C531.738 357.3 531.785 357.271 531.837 357.253C531.889 357.235 531.944 357.228 531.998 357.232L554.441 358.923C554.495 358.928 554.548 358.944 554.597 358.969C554.645 358.995 554.688 359.03 554.723 359.072C554.757 359.115 554.782 359.165 554.797 359.217C554.811 359.27 554.814 359.326 554.806 359.38L554.109 364.162C554.095 364.256 554.048 364.342 553.977 364.404C553.906 364.466 553.814 364.501 553.72 364.502ZM532.407 362.098L553.378 363.686L553.96 359.694L532.372 358.064L532.407 362.098Z" fill="#1D2943"/>
<path d="M599.535 384.997C599.476 384.997 599.418 384.984 599.365 384.959L589.26 380.159C589.2 380.131 589.149 380.089 589.109 380.036C589.07 379.984 589.045 379.922 589.035 379.857L586.056 359.378C586.048 359.324 586.051 359.269 586.065 359.216C586.08 359.163 586.105 359.114 586.139 359.071C586.173 359.029 586.215 358.994 586.264 358.968C586.312 358.943 586.365 358.927 586.42 358.923L608.862 357.23C608.917 357.226 608.972 357.234 609.025 357.252C609.077 357.27 609.125 357.298 609.166 357.335C609.206 357.373 609.238 357.419 609.26 357.47C609.281 357.521 609.292 357.576 609.291 357.631L609.116 377.354C609.116 377.414 609.102 377.472 609.076 377.526C609.05 377.58 609.012 377.627 608.965 377.664L599.786 384.912C599.714 384.968 599.626 384.998 599.535 384.997ZM589.804 379.532L599.488 384.133L608.334 377.157L608.502 358.056L586.914 359.686L589.804 379.532Z" fill="#1D2943"/>
<path d="M587.15 364.502C587.054 364.503 586.961 364.469 586.888 364.406C586.814 364.343 586.767 364.256 586.753 364.16L586.056 359.378C586.048 359.324 586.051 359.268 586.066 359.215C586.08 359.162 586.105 359.113 586.14 359.07C586.174 359.028 586.216 358.993 586.265 358.968C586.313 358.942 586.365 358.926 586.42 358.921L608.862 357.23C608.917 357.226 608.972 357.234 609.025 357.252C609.077 357.27 609.125 357.298 609.166 357.335C609.206 357.373 609.238 357.419 609.26 357.47C609.281 357.521 609.292 357.576 609.291 357.631L609.249 362.469C609.249 362.57 609.211 362.667 609.143 362.74C609.074 362.814 608.98 362.859 608.88 362.866L587.172 364.504L587.15 364.502ZM586.91 359.686L587.492 363.678L608.463 362.09L608.498 358.048L586.91 359.686Z" fill="#1D2943"/>
<path d="M571.884 388.328L580.622 572.114C580.622 572.878 584.455 573.382 589.579 573.642L580.801 388.328H571.884Z" fill="#299999"/>
<path d="M589.675 136.854V167.918H560.494V151.584L560.889 142.946L573.969 134.519L589.675 136.854Z" fill="#FFB7B0"/>
<g opacity="0.2">
<path d="M583.559 136.851V138.666L582.141 141.247C582.141 141.247 578.455 142.221 578.284 142.221C578.133 142.184 575.214 138.999 575.214 138.999L571.837 149.884L560.503 153.295V151.573L560.882 142.938L573.406 134.511L583.559 136.851Z" fill="#1D2943"/>
</g>
<path d="M554.139 125.78C553.074 125.779 552.034 125.462 551.15 124.87C550.265 124.277 549.577 123.436 549.171 122.452C548.765 121.468 548.66 120.386 548.87 119.343C549.08 118.3 549.594 117.342 550.349 116.591C551.103 115.84 552.064 115.33 553.108 115.125C554.153 114.92 555.235 115.03 556.217 115.44C557.2 115.849 558.039 116.542 558.627 117.428C559.216 118.315 559.529 119.356 559.525 120.42C559.521 121.845 558.952 123.21 557.942 124.215C556.932 125.22 555.564 125.783 554.139 125.78ZM554.139 116.164C553.3 116.165 552.481 116.415 551.784 116.881C551.088 117.347 550.545 118.009 550.225 118.784C549.904 119.558 549.821 120.41 549.984 121.232C550.148 122.054 550.552 122.809 551.144 123.402C551.737 123.995 552.492 124.399 553.315 124.563C554.137 124.727 554.989 124.644 555.764 124.324C556.539 124.004 557.202 123.461 557.669 122.765C558.135 122.069 558.385 121.25 558.387 120.412C558.388 119.854 558.278 119.302 558.065 118.786C557.851 118.271 557.539 117.802 557.144 117.408C556.749 117.013 556.281 116.7 555.765 116.487C555.25 116.273 554.697 116.164 554.139 116.164Z" fill="#1D2943"/>
<path d="M587.903 128.925L582.144 139.434C582.144 139.434 578.392 140.427 578.291 140.407C578.136 140.369 575.218 137.185 575.218 137.185L571.832 148.076L560.512 151.584L549.217 150.373L550.659 139.899C548.808 138.279 547.428 136.524 546.899 134.517C546.899 134.517 553.038 125.314 554.945 113.275C554.945 113.275 569.034 117.21 570.635 119.38C572.237 121.488 575.997 129.741 575.997 129.741L584.023 122.894L587.903 128.925Z" fill="#FFB7B0"/>
<path d="M593.911 131.738L591.329 157.13L586.761 157.36L580.039 156.606L574.478 157.36L566.732 156.735L565.086 132.7L564.593 127.017L559.848 124.476L559.149 129.623H554.943L558.599 114.369L554.917 113.281C546.429 109.329 549.886 98.958 549.886 98.958L556.21 100.81L593.911 131.738Z" fill="#1D2943"/>
<path d="M569.916 123.017L565.022 131.95C565.022 131.95 561.845 132.794 561.751 132.776C561.62 132.744 559.144 130.042 559.144 130.042L559.787 123.725L566.601 117.913L569.916 123.017Z" fill="#FFB7B0"/>
<path d="M592.744 161.069H556.05V169.164H592.744V161.069Z" fill="#5479F7"/>
<path d="M593.911 131.737C595.814 115.191 601.722 104.898 601.722 104.898L569.626 82.979C563.737 89.544 558.703 92.905 549.9 98.9579C556.689 117.343 571.8 127.856 593.911 131.737Z" fill="#F2577C"/>
<path d="M581.127 100.727C590.065 106.683 599.292 108.543 601.729 104.896C604.166 101.249 598.881 93.4592 589.933 87.5056C580.986 81.552 571.779 79.6879 569.344 83.3367C566.909 86.9855 572.192 94.7714 581.127 100.727Z" fill="#FE7893"/>
<path d="M424.207 262.3L426.807 242.881C426.807 242.881 415.884 227.123 412.812 227.861C409.981 228.548 411.108 231.434 413.407 235.859C404.814 232.937 392.86 229.213 391.442 230.94C389.424 233.39 402.564 239.343 406.651 240.866C404.532 240.58 402.812 240.447 402.033 241.039C400.047 242.526 403.04 244.783 406.498 246.48C405.042 246.397 403.892 246.48 403.33 246.987C401.866 248.336 404.19 250.48 407.586 252.162C406.655 252.192 405.918 252.331 405.489 252.692C402.025 255.602 424.207 262.3 424.207 262.3Z" fill="#FFB7B0"/>
<path d="M722.344 220.845L732.486 237.195C732.486 237.195 733.702 236.636 735.39 235.881C738.459 234.505 743.098 232.506 744.766 232.079C747.368 231.43 756.595 224.435 756.683 222.606C756.77 220.778 755.33 220.166 755.33 220.166C755.33 220.166 760.418 216.244 760.692 213.933C760.966 211.622 759.864 211.322 759.864 211.322C759.864 211.322 761.922 208.505 761.232 207.233C760.543 205.96 758.293 205.502 758.293 205.502C758.293 205.502 760.198 202.049 757.552 201.617C754.389 201.083 734.586 211.695 733.97 212.021C740.234 206.84 739.823 204.851 738.141 202.198C727.092 205.204 722.344 220.845 722.344 220.845Z" fill="#FFB7B0"/>
<path d="M420.683 264.823L490.823 289.197L523.803 243.371L525.042 334.787C559.86 338.404 590.79 340.358 615.715 332.957L617.395 261.341L652.296 284.215L736.789 239.52C741.708 237.795 730.749 209.688 725.748 211.427L660.576 240.316L618.885 179.297L592.669 169.172H556.054L509.934 195.055L481.78 249.077L429.746 240.54C426.469 239.301 417.4 263.598 420.683 264.823Z" fill="#5479F7"/>
<path d="M564.253 122.524L564.939 124.895L562.883 127.888L565.127 129.204L565.391 128.742L564.327 127.592L565.961 125.822L564.496 121.565L562.398 123.505L562.545 124.073L564.253 122.524Z" fill="#1D2943"/>
<path d="M523.442 243.81C523.327 243.714 523.254 243.578 523.239 243.429C523.224 243.28 523.269 243.132 523.363 243.016L532.069 232.381C532.165 232.264 532.303 232.191 532.453 232.176C532.603 232.161 532.753 232.206 532.87 232.302C532.986 232.397 533.06 232.535 533.075 232.685C533.09 232.835 533.045 232.985 532.949 233.102L524.242 243.736C524.195 243.794 524.136 243.841 524.07 243.876C524.004 243.911 523.932 243.932 523.857 243.939C523.783 243.946 523.708 243.938 523.637 243.916C523.566 243.894 523.499 243.858 523.442 243.81Z" fill="#1D2943"/>
<path d="M616.501 261.206C616.349 261.206 616.205 261.146 616.098 261.039C615.991 260.932 615.931 260.788 615.931 260.636V228.613C615.931 228.462 615.991 228.317 616.098 228.21C616.205 228.103 616.349 228.043 616.501 228.043C616.652 228.043 616.797 228.103 616.904 228.21C617.011 228.317 617.071 228.462 617.071 228.613V260.636C617.071 260.788 617.011 260.932 616.904 261.039C616.797 261.146 616.652 261.206 616.501 261.206Z" fill="#1D2943"/>
<path d="M592.661 169.734H556.054C555.903 169.734 555.758 169.674 555.651 169.567C555.544 169.461 555.484 169.316 555.484 169.164C555.484 169.013 555.544 168.868 555.651 168.762C555.758 168.655 555.903 168.595 556.054 168.595H592.661C592.812 168.595 592.957 168.655 593.064 168.762C593.171 168.868 593.231 169.013 593.231 169.164C593.231 169.316 593.171 169.461 593.064 169.567C592.957 169.674 592.812 169.734 592.661 169.734Z" fill="#1D2943"/>
<path d="M558.158 118.463L550.457 117.867C550.307 117.855 550.168 117.785 550.071 117.671C549.973 117.557 549.925 117.409 549.936 117.259C549.94 117.185 549.96 117.111 549.993 117.044C550.026 116.977 550.073 116.917 550.13 116.868C550.186 116.819 550.253 116.782 550.324 116.759C550.396 116.736 550.471 116.728 550.546 116.735L558.248 117.331C558.394 117.347 558.529 117.42 558.623 117.534C558.717 117.647 558.764 117.793 558.753 117.94C558.742 118.087 558.674 118.224 558.564 118.322C558.454 118.42 558.31 118.472 558.162 118.466L558.158 118.463Z" fill="#1D2943"/>
<g opacity="0.3">
<path d="M409.448 76.3925C409.085 75.3621 408.632 74.3657 408.094 73.4147C403.901 65.871 394.366 62.1825 386.118 62.4545C388.792 62.9798 391.404 63.7849 393.909 64.8566C400.265 67.6001 403.597 71.2449 405.428 74.8441C407.625 79.1341 407.341 83.3348 408.09 89.4432C410.316 83.4678 410.672 81.9094 412.628 77.6214C415.927 70.1133 421.114 61.1224 427.627 56.076C430.389 53.9281 433.68 52.4034 437.324 51.9766C424.947 50.4599 414.364 64.9499 409.448 76.3925Z" fill="#1D2943"/>
<path d="M735.804 151.102C728.817 155.139 723.689 163.16 720.287 170.602C717.935 164.591 712.839 160.821 706.635 159.211C704.182 158.55 701.644 158.26 699.105 158.352C701.526 158.855 703.888 159.608 706.154 160.597C711.913 163.132 714.863 166.411 716.513 169.661C718.485 173.542 718.219 177.334 718.962 183.52C720.197 180.344 721.901 174.545 725.389 167.817C729.903 159.281 736.058 150.073 745.583 148.842C742.264 148.398 738.759 149.367 735.804 151.102Z" fill="#1D2943"/>
</g>
</svg>
