<svg width="40" height="47" viewBox="0 0 40 47" fill="none" xmlns="http://www.w3.org/2000/svg">
<path d="M0.472656 1.30347C0.472656 1.30347 5.56357 1.32182 8.90902 4.93862C12.2545 8.57378 12.2181 13.0351 12.2181 13.4023C12.2181 13.7695 12.2181 32.7898 12.2181 32.7898C12.2181 32.7898 7.63629 32.8632 4.50902 29.9257C1.38175 26.9699 0.472656 23.6468 0.472656 21.6824C0.472656 19.6996 0.472656 1.30347 0.472656 1.30347Z" fill="white"/>
<path d="M14.8906 26.8047C14.8906 29.4852 15.327 30.9906 16.6725 33.3406C18.0179 35.709 20.6543 37.2879 21.9452 37.9672C23.2361 38.6465 37.9452 46.8531 37.9452 46.8531C37.9452 46.8531 40.0724 43.4199 39.1452 38.5914C38.2179 33.7629 34.4724 31.4496 32.927 30.6051C31.3815 29.7422 20.0906 23.4266 20.0906 23.4266C20.0906 23.4266 31.3997 17.1109 32.927 16.248C34.4724 15.3852 38.2179 13.0902 39.1452 8.26172C40.0724 3.4332 37.9452 0 37.9452 0C37.9452 0 23.2179 8.20664 21.9452 8.88594C20.6543 9.56523 18.0179 11.1441 16.6725 13.5125C15.327 15.8809 14.8906 17.368 14.8906 20.0484V26.8047Z" fill="white"/>
</svg>
