<svg width="256" height="256" viewBox="0 0 256 256" fill="none" xmlns="http://www.w3.org/2000/svg">
<circle cx="128" cy="128" r="128" fill="#0061E2"/>
<g clip-path="url(#clip0_852_774)">
<path d="M47.1748 73.8043V124.936L116.848 131.851L123.762 95.913L116.848 66.8902L47.1748 73.8043Z" fill="#62A5FF"/>
<path d="M186.521 73.8043L116.848 66.8902V131.851L186.521 124.936V73.8043Z" fill="#62A5FF"/>
<path d="M81.8027 203.302H116.849L120.306 198.116L116.849 192.93H81.8027V203.302Z" fill="#575F64"/>
<path d="M116.849 192.93H143.052V203.302H116.849V192.93Z" fill="#474F54"/>
<path d="M69.7194 172.047L56.2373 217H81.7409L95.2229 172.047H69.7194Z" fill="#D3D3D8"/>
<path d="M47.1748 182.418H116.848L120.305 153.677L116.848 124.936H47.1748V182.418Z" fill="white"/>
<path d="M116.848 124.936H186.521V182.418H116.848V124.936Z" fill="white"/>
<path d="M73.917 40C59.1714 40 47.1748 51.9966 47.1748 66.7422V73.8039H116.848L120.305 56.9018L116.848 40L73.917 40Z" fill="white"/>
<path d="M186.521 66.7422C186.521 51.9966 174.524 40 159.778 40H116.848V73.8042H186.521V66.7422Z" fill="white"/>
<path d="M57.5459 143.306H76.0514V153.677H57.5459V143.306Z" fill="#FFD76E"/>
<path d="M87.0967 143.306V153.677H116.848L120.305 148.492L116.848 143.306H87.0967Z" fill="#62A5FF"/>
<path d="M116.849 143.306H149.164V153.677H116.849V143.306Z" fill="#62A5FF"/>
<path d="M170.07 137.49C148.149 137.49 130.314 155.324 130.314 177.245C130.314 199.166 148.149 217 170.07 217L176.984 177.245L170.07 137.49Z" fill="#FF6C6C"/>
<path d="M209.825 177.245C209.825 155.324 191.991 137.49 170.07 137.49V217C191.991 217 209.825 199.166 209.825 177.245Z" fill="#FF3F5C"/>
<path d="M164.885 159.916V182.43H170.07L173.528 171.173L170.07 159.916H164.885Z" fill="#E6F8FC"/>
<path d="M187.399 172.059H175.256V159.916H170.07V182.43H187.399V172.059Z" fill="#CEF2FB"/>
</g>
<defs>
<clipPath id="clip0_852_774">
<rect width="177" height="177" fill="white" transform="translate(40 40)"/>
</clipPath>
</defs>
</svg>
