<svg width="40" height="40" viewBox="0 0 40 40" fill="none" xmlns="http://www.w3.org/2000/svg">
<g clip-path="url(#clip0_870_10450)">
<path d="M20 40C8.956 40 0 31.044 0 20C0 8.956 8.956 0 20 0C31.044 0 40 8.956 40 20C40 31.044 31.044 40 20 40Z" fill="white"/>
<path d="M19.9997 8.80802C23.6437 8.80802 24.0758 8.82002 25.5158 8.88802C26.8478 8.94802 27.5717 9.17202 28.0517 9.36002C28.6877 9.60802 29.1438 9.90402 29.6198 10.38C30.0958 10.856 30.3918 11.312 30.6398 11.948C30.8278 12.428 31.0477 13.152 31.1117 14.484C31.1757 15.924 31.1917 16.356 31.1917 20C31.1917 23.644 31.1797 24.076 31.1117 25.516C31.0517 26.848 30.8278 27.572 30.6398 28.052C30.3918 28.688 30.0958 29.144 29.6198 29.62C29.1438 30.096 28.6877 30.392 28.0517 30.64C27.5717 30.828 26.8478 31.048 25.5158 31.112C24.0758 31.176 23.6437 31.192 19.9997 31.192C16.3557 31.192 15.9237 31.18 14.4837 31.112C13.1517 31.052 12.4278 30.828 11.9478 30.64C11.3118 30.392 10.8557 30.096 10.3797 29.62C9.90375 29.144 9.60775 28.688 9.35975 28.052C9.17175 27.572 8.95175 26.848 8.88775 25.516C8.82375 24.076 8.80775 23.644 8.80775 20C8.80775 16.356 8.81975 15.924 8.88775 14.484C8.94775 13.152 9.17175 12.428 9.35975 11.948C9.60775 11.312 9.90375 10.856 10.3797 10.38C10.8557 9.90402 11.3118 9.60802 11.9478 9.36002C12.4278 9.17202 13.1517 8.95202 14.4837 8.88802C15.9237 8.82002 16.3557 8.80802 19.9997 8.80802ZM19.9997 6.34802C16.2917 6.34802 15.8277 6.36402 14.3717 6.43202C12.9197 6.50002 11.9277 6.72802 11.0557 7.06802C10.1597 7.41202 9.39575 7.88002 8.63975 8.64002C7.87975 9.40002 7.41575 10.16 7.06375 11.06C6.72775 11.928 6.49575 12.92 6.42775 14.376C6.35975 15.832 6.34375 16.296 6.34375 20.004C6.34375 23.712 6.35975 24.176 6.42775 25.632C6.49575 27.084 6.72375 28.076 7.06375 28.948C7.41175 29.84 7.87975 30.604 8.63975 31.36C9.39975 32.12 10.1597 32.584 11.0597 32.936C11.9277 33.272 12.9197 33.504 14.3757 33.572C15.8317 33.64 16.2957 33.656 20.0037 33.656C23.7117 33.656 24.1757 33.64 25.6317 33.572C27.0837 33.504 28.0757 33.276 28.9477 32.936C29.8397 32.588 30.6038 32.12 31.3598 31.36C32.1198 30.6 32.5838 29.84 32.9358 28.94C33.2718 28.072 33.5037 27.08 33.5717 25.624C33.6397 24.168 33.6558 23.704 33.6558 19.996C33.6558 16.288 33.6397 15.824 33.5717 14.368C33.5037 12.916 33.2758 11.924 32.9358 11.052C32.5878 10.16 32.1198 9.39602 31.3598 8.64002C30.5998 7.88002 29.8398 7.41602 28.9398 7.06402C28.0718 6.72802 27.0797 6.49602 25.6237 6.42802C24.1717 6.36402 23.7077 6.34802 19.9997 6.34802Z" fill="#033270"/>
<path d="M19.9993 12.988C16.1273 12.988 12.9873 16.128 12.9873 20C12.9873 23.872 16.1273 27.012 19.9993 27.012C23.8713 27.012 27.0113 23.872 27.0113 20C27.0113 16.128 23.8713 12.988 19.9993 12.988ZM19.9993 24.552C17.4873 24.552 15.4473 22.516 15.4473 20C15.4473 17.484 17.4873 15.448 19.9993 15.448C22.5113 15.448 24.5513 17.484 24.5513 20C24.5513 22.516 22.5113 24.552 19.9993 24.552Z" fill="#033270"/>
<path d="M27.2875 14.352C28.1932 14.352 28.9275 13.6178 28.9275 12.712C28.9275 11.8063 28.1932 11.072 27.2875 11.072C26.3817 11.072 25.6475 11.8063 25.6475 12.712C25.6475 13.6178 26.3817 14.352 27.2875 14.352Z" fill="#033270"/>
</g>
<defs>
<clipPath id="clip0_870_10450">
<rect width="40" height="40" fill="white"/>
</clipPath>
</defs>
</svg>
