<svg width="251" height="117" viewBox="0 0 251 117" fill="none" xmlns="http://www.w3.org/2000/svg">
<path d="M14.2578 97.8625L24.7078 115.588C24.8578 115.863 24.9078 116.088 24.8328 116.288C24.7578 116.488 24.5828 116.563 24.3078 116.563H19.9578C19.6578 116.563 19.3828 116.438 19.1578 116.163L10.5828 101.438L5.83281 106.088V115.963C5.83281 116.363 5.63281 116.563 5.23281 116.563H1.35781C0.957815 116.563 0.757812 116.363 0.757812 115.963V89.8625C0.757812 89.4625 0.957815 89.2625 1.35781 89.2625H5.23281C5.63281 89.2625 5.83281 89.4625 5.83281 89.8625V99.6375L16.0078 89.8375C16.3328 89.4875 16.7328 89.2875 17.1828 89.2875H21.6328C21.9328 89.2875 22.1078 89.4125 22.1828 89.6375C22.2578 89.8875 22.1828 90.0875 21.9578 90.3125L14.2578 97.8625Z" fill="white"/>
<path d="M32.6816 110.088C31.4316 107.913 30.8066 105.563 30.8066 102.963C30.8066 100.363 31.4316 98.0125 32.6816 95.8375C33.9316 93.6875 35.6316 91.9875 37.8316 90.7375C40.0066 89.4875 42.4066 88.8625 44.9816 88.8625C47.5816 88.8625 49.9566 89.4875 52.1316 90.7375C54.3066 91.9875 56.0316 93.6875 57.2566 95.8375C58.5066 97.9875 59.1316 100.363 59.1316 102.963C59.1316 105.563 58.5066 107.938 57.2566 110.088C56.0316 112.213 54.3066 113.888 52.1316 115.138C49.9566 116.363 47.5566 116.963 44.9816 116.963C42.3816 116.963 40.0066 116.363 37.8316 115.138C35.6566 113.913 33.9316 112.213 32.6816 110.088ZM35.8816 102.963C35.8816 105.488 36.7566 107.613 38.5066 109.338C40.2566 111.063 42.4316 111.913 44.9816 111.913C47.5566 111.913 49.7066 111.063 51.4316 109.338C53.1816 107.613 54.0816 105.488 54.0816 102.963C54.0816 101.288 53.6816 99.7625 52.8816 98.3875C52.0566 96.9875 50.9566 95.9125 49.5816 95.1125C48.2066 94.3125 46.6816 93.9125 45.0066 93.9125C43.3316 93.9125 41.8066 94.3125 40.4066 95.1125C39.0316 95.9125 37.9316 96.9875 37.1066 98.3875C36.2816 99.7625 35.8816 101.288 35.8816 102.963Z" fill="white"/>
<path d="M94.3828 89.5625L97.0328 115.738C97.0828 116.288 96.8078 116.563 96.2328 116.563H92.7578C92.2578 116.563 91.9828 116.313 91.9328 115.788L90.6328 102.488L82.5328 116.213C82.5078 116.238 82.4828 116.288 82.4328 116.363C82.2328 116.638 82.0828 116.813 81.9578 116.863C81.8828 116.888 81.7828 116.913 81.6578 116.938H81.6328C81.4078 116.913 81.2578 116.838 81.1578 116.788C81.0578 116.713 80.9328 116.538 80.7328 116.238L72.6328 102.488L71.3328 115.763C71.3078 116.038 71.2078 116.238 71.0828 116.363C70.9578 116.488 70.7578 116.538 70.5078 116.538H67.0328C66.4328 116.538 66.1578 116.263 66.2328 115.713L68.8828 89.5375C68.9078 89.0875 69.1578 88.8625 69.5578 88.8625H69.6578C69.8578 88.8625 70.0078 88.9125 70.1078 89.0125C70.2078 89.1125 70.3328 89.2625 70.4328 89.4875L81.6578 108.463L92.8828 89.4875C92.9828 89.2875 93.0578 89.1875 93.0828 89.1375C93.1078 89.0875 93.1828 89.0375 93.2828 88.9625C93.3828 88.8875 93.5078 88.8625 93.6328 88.8625H93.7078C94.0828 88.8875 94.3328 89.1125 94.3828 89.5625Z" fill="white"/>
<path d="M110.056 89.3125H114.381C116.681 89.3125 118.731 89.7625 120.556 90.6875C122.381 91.6125 123.831 92.8875 124.856 94.5375C125.881 96.1875 126.406 98.0625 126.406 100.088C126.431 102.113 125.931 103.963 124.881 105.588C123.831 107.238 122.381 108.513 120.531 109.413C118.681 110.338 116.631 110.763 114.356 110.738H110.756V115.713C110.756 115.963 110.681 116.138 110.531 116.288C110.381 116.438 110.181 116.513 109.931 116.513H106.481C106.231 116.513 106.031 116.438 105.881 116.288C105.731 116.138 105.656 115.963 105.656 115.713V90.0875C105.656 89.8375 105.731 89.6625 105.881 89.5125C106.031 89.3625 106.231 89.2875 106.456 89.2875H108.306H110.056V89.3125ZM110.806 106.338H114.056C116.206 106.338 117.956 105.763 119.306 104.588C120.681 103.413 121.356 101.913 121.356 100.063C121.356 98.2375 120.656 96.7375 119.281 95.5375C117.931 94.3375 116.181 93.7375 114.056 93.7375H110.806V106.338Z" fill="white"/>
<path d="M140.057 111.738H154.732C155.057 111.738 155.332 111.838 155.532 112.013C155.732 112.188 155.832 112.438 155.832 112.738V115.738C155.832 115.988 155.757 116.163 155.607 116.313C155.457 116.463 155.257 116.538 155.007 116.538H135.782C135.232 116.538 134.982 116.263 134.982 115.738V90.1125C134.982 89.5625 135.257 89.3125 135.782 89.3125H154.632C154.907 89.3125 155.107 89.3875 155.232 89.5375C155.382 89.6875 155.457 89.8625 155.457 90.1125V93.3125C155.457 93.8625 155.182 94.1375 154.632 94.1375H140.057V101.638H151.457C152.082 101.638 152.407 101.913 152.407 102.488V105.488C152.407 105.738 152.332 105.913 152.157 106.063C151.982 106.213 151.757 106.288 151.457 106.288H140.057V111.738Z" fill="white"/>
<path d="M184.507 89.2625H188.382C188.782 89.2625 188.982 89.4625 188.982 89.8625V116.063C188.982 116.313 188.907 116.513 188.782 116.663C188.632 116.813 188.482 116.888 188.282 116.888H188.257C188.057 116.888 187.857 116.813 187.657 116.663L187.507 116.563L187.157 116.238L169.782 99.7875V115.963C169.782 116.363 169.582 116.563 169.182 116.563H165.307C164.907 116.563 164.707 116.363 164.707 115.963V89.7375C164.707 89.5125 164.782 89.3125 164.907 89.1625C165.032 89.0125 165.182 88.9375 165.382 88.9375H165.457C165.632 88.9375 165.757 88.9875 165.882 89.0875L166.057 89.2125L166.482 89.5875L183.982 106.113V89.8625C183.907 89.4625 184.107 89.2625 184.507 89.2625Z" fill="white"/>
<path d="M208.332 116.963C206.257 116.963 204.282 116.538 202.357 115.713C200.457 114.888 199.007 113.788 197.982 112.413C197.682 112.038 197.732 111.638 198.132 111.238L200.457 108.913C200.782 108.588 201.182 108.638 201.657 109.063C202.482 109.938 203.482 110.688 204.657 111.238C205.832 111.813 206.982 112.088 208.082 112.088C209.582 112.088 210.757 111.788 211.582 111.213C212.407 110.613 212.832 109.788 212.832 108.738C212.832 107.838 212.382 107.113 211.507 106.538C210.607 105.963 209.132 105.313 207.082 104.613C204.432 103.738 202.432 102.738 201.082 101.613C199.632 100.363 198.907 98.6875 198.907 96.5375C198.907 94.2125 199.757 92.3625 201.432 90.9625C203.132 89.5625 205.382 88.8625 208.232 88.8625C209.782 88.8625 211.257 89.1375 212.682 89.7125C214.107 90.2625 215.207 91.0125 216.007 91.9375C216.407 92.3875 216.432 92.8125 216.057 93.2625L214.182 95.4125C213.907 95.6875 213.657 95.8125 213.432 95.8125C213.207 95.8125 212.932 95.7125 212.632 95.4875C212.032 94.9375 211.307 94.4875 210.482 94.1625C209.657 93.8375 208.832 93.6875 208.032 93.6875C206.757 93.6875 205.757 93.9625 205.032 94.4875C204.307 95.0125 203.932 95.7125 203.932 96.6125C203.932 97.3625 204.307 98.0375 205.032 98.6625C205.332 98.9375 205.757 99.1875 206.307 99.4625C206.682 99.6625 207.207 99.8875 207.857 100.138C208.207 100.263 208.832 100.488 209.707 100.788C210.607 101.063 211.232 101.288 211.557 101.413C212.932 101.913 214.032 102.413 214.857 102.963C215.957 103.688 216.757 104.438 217.232 105.263C217.832 106.263 218.132 107.413 218.132 108.688C218.132 111.188 217.232 113.213 215.407 114.713C213.582 116.213 211.232 116.963 208.332 116.963Z" fill="white"/>
<path d="M238.357 89.6625L250.032 115.663C250.157 115.938 250.157 116.138 250.057 116.313C249.957 116.488 249.757 116.563 249.457 116.563H245.582C245.157 116.563 244.857 116.338 244.657 115.863L243.557 113.213H231.007L229.907 115.838C229.707 116.313 229.407 116.538 228.982 116.538H225.132C224.832 116.538 224.632 116.463 224.507 116.288C224.382 116.113 224.407 115.888 224.507 115.613L236.132 89.6125C236.357 89.1375 236.682 88.9125 237.132 88.9125H237.357C237.832 88.9375 238.157 89.1875 238.357 89.6625ZM237.282 98.0375L232.782 108.888H241.757L237.282 98.0375Z" fill="white"/>
<path d="M96.4062 2.11254C96.4062 2.11254 103.406 2.13754 108.006 7.06254C112.606 12.0125 112.556 18.0875 112.556 18.5875C112.556 19.0875 112.556 44.9875 112.556 44.9875C112.556 44.9875 106.256 45.0875 101.956 41.0875C97.6563 37.0625 96.4062 32.5375 96.4062 29.8625C96.4062 27.1625 96.4062 2.11254 96.4062 2.11254Z" fill="white"/>
<path d="M116.232 36.8375C116.232 40.4875 116.832 42.5375 118.682 45.7375C120.532 48.9625 124.157 51.1125 125.932 52.0375C127.707 52.9625 147.932 64.1375 147.932 64.1375C147.932 64.1375 150.857 59.4625 149.582 52.8875C148.307 46.3125 143.157 43.1625 141.032 42.0125C138.907 40.8375 123.382 32.2375 123.382 32.2375C123.382 32.2375 138.932 23.6375 141.032 22.4625C143.157 21.2875 148.307 18.1625 149.582 11.5875C150.857 5.01254 147.932 0.33754 147.932 0.33754C147.932 0.33754 127.682 11.5125 125.932 12.4375C124.157 13.3625 120.532 15.5125 118.682 18.7375C116.832 21.9625 116.232 23.9875 116.232 27.6375V36.8375Z" fill="white"/>
</svg>
