<svg width="256" height="256" viewBox="0 0 256 256" fill="none" xmlns="http://www.w3.org/2000/svg">
<g clip-path="url(#clip0_852_679)">
<path d="M128 256C198.692 256 256 198.692 256 128C256 57.3075 198.692 0 128 0C57.3075 0 0 57.3075 0 128C0 198.692 57.3075 256 128 256Z" fill="#0061E2"/>
<path d="M128.059 154.82C127.277 155.608 126.544 156.442 125.864 157.32L95.7544 127.21C96.5603 126.57 97.3298 125.886 98.0594 125.16C101.892 121.34 104.468 116.441 105.442 111.119C106.417 105.796 105.744 100.303 103.514 95.3726C101.283 90.4425 97.6014 86.3104 92.9601 83.5283C88.3189 80.7463 82.9392 79.4468 77.5398 79.8034C72.1403 80.1601 66.9783 82.1559 62.7433 85.5243C58.5084 88.8927 55.4021 93.4732 53.8395 98.6538C52.277 103.835 52.3326 109.369 53.9988 114.517C55.6651 119.665 58.8627 124.182 63.1644 127.465L129.399 193.7L129.454 193.645C133.361 197.029 138.171 199.198 143.293 199.887C148.416 200.575 153.628 199.753 158.289 197.522C162.951 195.29 166.86 191.746 169.536 187.324C172.211 182.902 173.538 177.795 173.352 172.63C173.167 167.465 171.477 162.467 168.491 158.248C165.505 154.03 161.352 150.775 156.542 148.884C151.732 146.993 146.474 146.547 141.415 147.601C136.355 148.656 131.713 151.165 128.059 154.82Z" fill="white"/>
<path d="M181.859 71.105C176.651 65.9017 170.017 62.3592 162.796 60.9254C155.575 59.4916 148.091 60.2309 141.29 63.0497C134.489 65.8685 128.677 70.6404 124.587 76.7621C120.498 82.8838 118.315 90.0805 118.315 97.4425C118.315 104.804 120.498 112.001 124.587 118.123C128.677 124.245 134.489 129.016 141.29 131.835C148.091 134.654 155.575 135.393 162.796 133.96C170.017 132.526 176.651 128.983 181.859 123.78C188.834 116.789 192.751 107.317 192.751 97.4425C192.751 87.5675 188.834 78.0958 181.859 71.105ZM140.314 82.235C143.368 79.1835 147.271 77.1222 151.513 76.3196C155.755 75.5169 160.141 76.0102 164.099 77.735L135.804 106C134.089 102.043 133.602 97.6616 134.406 93.4243C135.21 89.187 137.269 85.2888 140.314 82.235ZM170.724 112.65C167.667 115.697 163.765 117.756 159.524 118.558C155.283 119.361 150.898 118.87 146.939 117.15L175.229 88.855C176.951 92.8157 177.442 97.2025 176.638 101.446C175.835 105.689 173.774 109.593 170.724 112.65Z" fill="white"/>
</g>
<defs>
<clipPath id="clip0_852_679">
<rect width="256" height="256" fill="white"/>
</clipPath>
</defs>
</svg>
