<svg width="256" height="256" viewBox="0 0 256 256" fill="none" xmlns="http://www.w3.org/2000/svg">
<circle cx="128" cy="128" r="128" fill="#0061E2"/>
<path d="M168.427 192.938H63.3072C59.8396 192.938 56.7708 190.856 55.49 187.633C54.2109 184.416 55.0104 180.802 57.5267 178.425L66.3819 170.068V115.157C66.3819 87.8659 88.1529 65.2611 114.913 64.7669C125.747 64.5704 136.068 67.7893 144.785 74.082C145.965 74.9339 146.231 76.5819 145.379 77.7615C144.526 78.9403 142.88 79.2071 141.7 78.3561C133.914 72.7351 124.667 69.8723 115.011 70.0361C91.1032 70.4788 71.6529 90.7193 71.6529 115.157V171.204C71.6529 171.93 71.3535 172.623 70.8259 173.121L61.1444 182.257C59.7143 183.608 60.2033 185.223 60.3878 185.686C60.5722 186.151 61.3289 187.667 63.3072 187.667H168.427C170.405 187.667 171.162 186.151 171.346 185.686C171.531 185.223 172.02 183.608 170.589 182.257L160.908 173.121C160.381 172.623 160.081 171.93 160.081 171.204V146.64C160.081 145.184 161.261 144.004 162.717 144.004C164.172 144.004 165.352 145.184 165.352 146.64V170.068L174.206 178.424C176.724 180.802 177.523 184.416 176.244 187.633C174.963 190.856 171.894 192.938 168.427 192.938Z" fill="white"/>
<path d="M162.716 173.84H140.087C138.631 173.84 137.451 172.66 137.451 171.204C137.451 169.748 138.631 168.569 140.087 168.569H162.716C164.171 168.569 165.351 169.748 165.351 171.204C165.351 172.66 164.171 173.84 162.716 173.84Z" fill="white"/>
<path d="M126.565 173.84H115.866C114.41 173.84 113.23 172.66 113.23 171.204C113.23 169.748 114.41 168.569 115.866 168.569H126.565C128.021 168.569 129.2 169.748 129.2 171.204C129.2 172.66 128.021 173.84 126.565 173.84Z" fill="white"/>
<path d="M82.9801 105.708C82.6893 105.708 82.3933 105.659 82.1033 105.557C80.7307 105.072 80.0101 103.567 80.4948 102.195C84.5269 90.7682 93.685 81.8383 104.991 78.3072C106.383 77.8731 107.858 78.6478 108.293 80.0367C108.727 81.4265 107.952 82.9038 106.563 83.3379C96.8344 86.3766 88.9477 94.0814 85.4655 103.948C85.0837 105.031 84.0662 105.708 82.9801 105.708Z" fill="white"/>
<path d="M80.9148 121.215C79.4589 121.215 78.2793 120.036 78.2793 118.58V115.162C78.2793 114.858 78.2827 114.557 78.2896 114.255C78.3205 112.8 79.5275 111.623 80.98 111.676C82.435 111.707 83.5897 112.911 83.5588 114.366L83.5502 118.58C83.5502 120.036 82.3706 121.215 80.9148 121.215Z" fill="white"/>
<path d="M116.279 209.7H115.456C105.726 209.7 97.8105 201.784 97.8105 192.055V190.311C97.8105 188.856 98.9902 187.676 100.446 187.676H131.288C132.744 187.676 133.924 188.856 133.924 190.311V192.055C133.924 201.784 126.008 209.7 116.279 209.7ZM103.113 192.947C103.572 199.355 108.932 204.429 115.456 204.429H116.279C122.802 204.429 128.162 199.355 128.621 192.947H103.113Z" fill="white"/>
<path d="M168.251 67.3844C146.253 67.3844 128.42 85.2178 128.42 107.198C128.42 129.195 146.253 147.028 168.251 147.028C190.231 147.028 208.064 129.195 208.064 107.198C208.064 85.2178 190.231 67.3844 168.251 67.3844ZM185.768 124.732C184.925 125.593 183.782 126.015 182.676 126.015C181.551 126.015 180.427 125.593 179.566 124.732L165.141 110.307C164.315 109.482 163.858 108.375 163.858 107.215V82.1782C163.858 79.7535 165.826 77.7857 168.251 77.7857C170.675 77.7857 172.643 79.7535 172.643 82.1782V105.388L185.768 118.53C187.49 120.234 187.49 123.028 185.768 124.732Z" fill="white"/>
<path d="M87.3334 61.8783C87.2039 61.8783 87.0726 61.8689 86.9413 61.8492C85.5018 61.6347 84.5083 60.2938 84.7237 58.8542L86.261 48.5474C86.4755 47.107 87.8224 46.1127 89.256 46.3297C90.6955 46.5442 91.689 47.8851 91.4736 49.3247L89.9363 59.6315C89.7415 60.9398 88.6168 61.8783 87.3334 61.8783Z" fill="white"/>
<path d="M67.4449 68.4448C66.7706 68.4448 66.0963 68.1874 65.5815 67.6735L58.2147 60.3067C57.1861 59.2772 57.1861 57.6086 58.2156 56.5791C59.2451 55.5514 60.9137 55.5505 61.9432 56.58L69.3082 63.9451C70.3377 64.9746 70.3377 66.6432 69.3091 67.6727C68.7944 68.1874 68.1192 68.4448 67.4449 68.4448Z" fill="white"/>
<path d="M50.5678 89.8674C49.2844 89.8674 48.1596 88.9289 47.9649 87.6214C47.7496 86.1819 48.7422 84.8401 50.1817 84.6256L60.4894 83.0874C61.9178 82.8755 63.269 83.8647 63.4843 85.3051C63.6997 86.7447 62.7062 88.0856 61.2667 88.3L50.9607 89.8382C50.8286 89.858 50.6973 89.8674 50.5678 89.8674Z" fill="white"/>
</svg>
