<svg width="257" height="257" viewBox="0 0 257 257" fill="none" xmlns="http://www.w3.org/2000/svg">
<path d="M127.968 255.936C198.643 255.936 255.936 198.643 255.936 127.968C255.936 57.2932 198.643 0 127.968 0C57.2932 0 0 57.2932 0 127.968C0 198.643 57.2932 255.936 127.968 255.936Z" fill="#0061E2"/>
<path fill-rule="evenodd" clip-rule="evenodd" d="M159.36 209.856H138.912V194.688H161.952V207.168C161.952 208.608 160.8 209.856 159.36 209.856ZM168.48 128.928C161.472 128.928 154.56 127.296 148.32 123.84L159.84 112.416C162.624 113.376 165.504 113.856 168.48 113.856C171.36 113.856 174.336 113.376 177.12 112.416L188.544 123.84C182.304 127.296 175.392 128.928 168.48 128.928ZM132.192 107.616C125.28 95.2319 125.28 79.8719 132.192 67.4879L143.616 78.9119C141.696 84.4799 141.696 90.6239 143.616 96.1919L132.192 107.616ZM148.32 51.2639C160.8 44.4479 176.16 44.4479 188.544 51.2639L177.12 62.6879C171.552 60.7679 165.408 60.7679 159.84 62.6879L148.32 51.2639ZM204.768 67.4879C211.584 79.8719 211.584 95.2319 204.768 107.616L193.344 96.1919C195.264 90.6239 195.264 84.4799 193.344 78.9119L204.768 67.4879ZM196.032 126.048C195.264 126.048 194.592 125.76 194.016 125.184L175.104 106.272C174.528 105.696 174.24 105.024 174.24 104.256C174.24 103.488 174.528 102.72 175.104 102.144L183.072 94.1759C184.224 93.0239 186.048 93.0239 187.2 94.1759L206.112 113.088C206.688 113.568 206.976 114.336 206.976 115.104C206.976 115.872 206.688 116.64 206.112 117.12L198.048 125.184C197.472 125.76 196.8 126.048 196.032 126.048ZM140.928 126.048C140.16 126.048 139.392 125.76 138.816 125.184L130.848 117.12C130.272 116.64 129.984 115.872 129.984 115.104C129.984 114.336 130.272 113.568 130.848 113.088L149.76 94.1759C150.912 93.0239 152.736 93.0239 153.792 94.1759L161.856 102.144C162.432 102.72 162.72 103.488 162.72 104.256C162.72 105.024 162.432 105.696 161.856 106.272L142.944 125.184C142.368 125.76 141.6 126.048 140.928 126.048ZM151.776 81.7919C151.008 81.7919 150.336 81.5039 149.76 80.9279L130.848 62.0159C129.696 60.8639 129.696 59.0399 130.848 57.9839L138.816 49.9199C139.968 48.7679 141.792 48.7679 142.944 49.9199L161.856 68.8319C163.008 69.9839 163.008 71.8079 161.856 72.8639L153.792 80.9279C153.216 81.5039 152.544 81.7919 151.776 81.7919ZM185.184 81.7919C184.416 81.7919 183.648 81.5039 183.072 80.9279L175.104 72.8639C173.952 71.8079 173.952 69.9839 175.104 68.8319L194.016 49.9199C195.072 48.7679 196.896 48.7679 198.048 49.9199L206.112 57.9839C207.264 59.0399 207.264 60.8639 206.112 62.0159L187.2 80.9279C186.624 81.5039 185.856 81.7919 185.184 81.7919ZM126.144 114.048H81.888C81.024 114.048 80.16 113.952 79.392 113.76V115.296C79.392 116.16 80.064 116.928 81.024 116.928C82.464 116.928 83.616 118.176 83.616 119.616V121.536C83.616 127.776 86.592 133.248 91.2 136.8C91.392 136.896 91.488 136.992 91.68 137.088C94.752 139.392 98.592 140.64 102.816 140.64H105.312C109.44 140.64 113.28 139.392 116.448 137.088C116.544 136.992 116.736 136.896 116.832 136.8C121.44 133.248 124.416 127.776 124.416 121.536V119.616C124.416 118.176 125.664 116.928 127.104 116.928H127.392C127.68 117.792 128.16 118.56 128.736 119.136L130.752 121.152C130.464 121.344 130.08 121.536 129.696 121.728C129.6 129.216 126.144 135.936 120.768 140.352V152.448H122.784C125.856 152.448 128.736 152.736 131.52 153.216L114.912 176.448L104.832 169.92H103.2L93.12 176.448L76.512 153.216C79.296 152.736 82.176 152.448 85.248 152.448H87.264V140.352C81.888 135.936 78.432 129.216 78.336 121.728C75.84 120.672 74.112 118.176 74.112 115.296V111.552C72.192 110.208 70.656 108.48 69.984 106.464C68.928 103.584 69.6 100.704 72 98.6879C72.48 98.3039 73.056 98.1119 73.632 98.1119H125.376C126.24 101.664 127.584 105.12 129.312 108.384V108.48H129.408V108.576V108.672H129.504V108.768V108.864H129.6V108.96L129.696 109.056L130.08 109.728L128.736 111.072C127.968 111.936 127.392 112.896 127.2 114.048C126.816 114.048 126.528 114.048 126.144 114.048ZM72.096 90.8159L65.088 71.7119C64.8 71.0399 64.896 70.2719 65.28 69.5999C65.568 68.9279 66.24 68.4479 66.912 68.2559C72.768 66.9119 77.472 65.6639 81.6 64.6079C92.736 61.8239 98.208 60.3839 104.064 60.3839C109.824 60.3839 115.296 61.8239 126.336 64.6079C127.488 64.8959 128.736 65.1839 129.984 65.4719L129.696 66.0479C124.704 75.0719 123.072 85.5359 124.896 95.4239H73.632C73.152 95.4239 72.576 95.5199 72.096 95.7119V90.8159ZM105.312 145.92H102.816C99.072 145.92 95.616 145.152 92.544 143.712V154.08L104.064 167.136L115.488 154.08L115.584 143.712C112.416 145.152 108.96 145.92 105.312 145.92ZM135.936 209.856H114.624L109.536 181.152L112.032 178.08C113.664 179.136 115.392 180.864 116.544 179.328L134.592 153.792C151.2 157.824 161.952 170.112 161.952 186.528V191.808H138.912C138.912 189.888 139.296 187.488 137.472 187.488C136.608 187.488 135.936 188.16 135.936 188.928V209.856ZM111.744 209.856H96.384L100.896 184.128C104.256 188.352 103.872 188.352 107.232 184.128L111.744 209.856ZM93.408 209.856H72.096V188.928C72.096 187.008 69.216 187.008 69.216 188.928V191.808H46.08V186.528C46.08 170.112 56.928 157.824 73.44 153.792L91.584 179.328C92.64 180.864 94.368 179.136 96 178.08L98.496 181.152L93.408 209.856ZM69.216 209.856H48.768C47.328 209.856 46.08 208.608 46.08 207.168V194.688H69.216V209.856ZM98.496 176.448L104.064 172.896L109.536 176.448L104.064 183.456L98.496 176.448Z" fill="white"/>
</svg>
