<svg width="256" height="256" viewBox="0 0 256 256" fill="none" xmlns="http://www.w3.org/2000/svg">
<circle cx="128" cy="128" r="128" fill="#0061E2"/>
<path d="M61.3114 162.551H129.612C130.922 162.551 131.983 161.491 131.983 160.18V145.168C131.983 141.781 130.506 138.791 127.929 136.962C121.891 132.691 115.429 128.492 109.133 124.425C113.627 120.452 117.078 114.478 118.114 106.933C121.078 101.156 122.829 95.1644 123.055 90.0235C123.465 80.7409 118.968 71.4583 111.023 65.1965C103.217 59.0463 93.6835 56.9774 84.8647 59.5138C83.8726 59.7984 83.1783 60.6959 83.1511 61.7285C83.1242 62.7614 83.7677 63.6961 84.7462 64.0314C85.2167 64.1975 85.6809 64.3734 86.1381 64.5667C75.3889 68.319 67.8674 78.34 67.8674 89.9186C67.8674 95.2829 69.6554 101.569 72.9133 107.661C74.0681 114.861 77.4379 120.581 81.7861 124.425C75.4938 128.495 69.0321 132.695 62.9802 136.962C60.4133 138.784 58.9401 141.774 58.9401 145.168V160.18C58.9407 161.491 60.0006 162.551 61.3114 162.551ZM103.549 132.234C103.549 136.698 99.9184 140.328 95.4585 140.328C91.0017 140.328 87.3745 136.698 87.3745 132.234V128.099C89.9959 129.315 92.7525 129.952 95.4585 129.952C98.1642 129.952 100.924 129.315 103.549 128.096V132.234ZM77.2283 102.148V102.009C77.2283 99.2012 77.225 90.657 79.8733 89.1569C80.124 89.0145 80.4185 88.9537 80.7336 88.9537C81.8104 88.9537 83.1514 89.6413 83.9676 90.1288C91.4011 94.5787 98.2353 95.7029 104.853 93.5696C107.128 92.8348 110.166 92.2013 111.714 93.3292C113.455 94.5992 113.695 98.3177 113.695 102.148C113.695 116.392 104.229 125.207 95.4585 125.207C86.6902 125.207 77.2283 116.392 77.2283 102.148ZM147.603 127.685C147.603 128.994 146.541 130.056 145.231 130.056H130.649C129.34 130.056 128.278 128.995 128.278 127.685C128.278 126.375 129.339 125.313 130.649 125.313H145.231C146.541 125.313 147.603 126.375 147.603 127.685ZM163.567 116.847C163.567 118.156 162.506 119.218 161.196 119.218H130.649C129.34 119.218 128.278 118.157 128.278 116.847C128.278 115.537 129.339 114.475 130.649 114.475H161.196C162.506 114.475 163.567 115.537 163.567 116.847ZM128.278 105.999C128.278 104.689 129.34 103.627 130.65 103.627H145.232C146.541 103.627 147.603 104.689 147.603 105.999C147.603 107.308 146.542 108.37 145.232 108.37H130.65C129.34 108.37 128.278 107.309 128.278 105.999ZM163.567 95.1514C163.567 96.4609 162.506 97.5228 161.196 97.5228H130.649C129.34 97.5228 128.278 96.4613 128.278 95.1514C128.278 93.8415 129.339 92.78 130.649 92.78H161.196C162.506 92.78 163.567 93.8415 163.567 95.1514ZM58.9391 175.76C58.9391 174.451 60.0006 173.389 61.3104 173.389H86.5003C87.8098 173.389 88.8717 174.45 88.8717 175.76C88.8717 177.07 87.8102 178.132 86.5003 178.132H61.3104C60.0006 178.132 58.9391 177.07 58.9391 175.76ZM103.3 175.76C103.3 177.07 102.239 178.132 100.929 178.132H95.3031C93.9936 178.132 92.9318 177.07 92.9318 175.76C92.9318 174.451 93.9933 173.389 95.3031 173.389H100.929C102.238 173.389 103.3 174.451 103.3 175.76ZM136.746 175.76C136.746 177.07 135.684 178.132 134.374 178.132H109.184C107.875 178.132 106.813 177.07 106.813 175.76C106.813 174.451 107.874 173.389 109.184 173.389H134.374C135.684 173.389 136.746 174.451 136.746 175.76ZM69.3071 185.917C69.3071 187.227 68.2456 188.288 66.9357 188.288H61.3104C60.0009 188.288 58.9391 187.227 58.9391 185.917C58.9391 184.607 60.0006 183.546 61.3104 183.546H66.936C68.2456 183.546 69.3071 184.608 69.3071 185.917ZM102.753 185.917C102.753 187.227 101.691 188.288 100.381 188.288H75.1917C73.8821 188.288 72.8203 187.227 72.8203 185.917C72.8203 184.607 73.8818 183.546 75.1917 183.546H100.382C101.691 183.546 102.753 184.608 102.753 185.917ZM177.028 146.22V75.3564C177.028 74.7265 176.777 74.1235 176.33 73.6799L147.513 44.8603C147.07 44.4167 146.463 44.166 145.837 44.166H58.182C52.2825 44.166 47.4873 48.9649 47.4873 54.8607V194.73C47.4873 200.626 52.2828 205.425 58.182 205.425H152.352C158.312 210.656 166.118 213.834 174.653 213.834C193.324 213.834 208.512 198.648 208.512 179.985C208.513 162.119 194.594 147.443 177.028 146.22ZM181.942 164.912C181.942 168.931 178.674 172.2 174.654 172.2C170.644 172.2 167.379 168.931 167.379 164.912C167.379 160.902 170.644 157.637 174.654 157.637C178.674 157.637 181.942 160.902 181.942 164.912ZM140.805 179.985C140.805 187.773 143.45 194.954 147.888 200.681H58.182C54.9006 200.681 52.2284 198.012 52.2284 194.73V54.8607C52.2284 51.5793 54.9006 48.9104 58.182 48.9104H143.467V75.3564C143.467 76.6669 144.526 77.7271 145.837 77.7271H172.283V146.22C154.721 147.442 140.805 162.118 140.805 179.985ZM181.681 197.599C182.991 197.599 184.055 198.662 184.055 199.973C184.055 201.28 182.991 202.343 181.681 202.343H167.627C166.319 202.343 165.256 201.28 165.256 199.973C165.256 198.662 166.319 197.599 167.627 197.599H169.039V179.362H167.627C166.319 179.362 165.256 178.298 165.256 176.988C165.256 175.681 166.319 174.617 167.627 174.617H181.681C182.991 174.617 184.055 175.681 184.055 176.988C184.055 178.298 182.991 179.362 181.681 179.362H180.272V197.599H181.681Z" fill="white"/>
</svg>
