<svg width="666" height="444" viewBox="0 0 666 444" fill="none" xmlns="http://www.w3.org/2000/svg">
<path d="M473.97 170.384C473.858 170.384 473.744 170.349 473.648 170.275L362.448 85.7457H182.872C182.577 85.7457 182.338 85.5067 182.338 85.2117C182.338 84.9167 182.577 84.6777 182.872 84.6777H362.628C362.744 84.6777 362.858 84.7161 362.951 84.7867L474.294 169.425C474.529 169.604 474.574 169.939 474.396 170.173C474.291 170.311 474.131 170.384 473.97 170.384Z" fill="#6F758D"/>
<path d="M337.427 170.384C337.315 170.384 337.201 170.349 337.105 170.275L225.762 85.6365C225.527 85.4582 225.481 85.1232 225.66 84.8885C225.838 84.6539 226.173 84.6081 226.408 84.7867L337.751 169.425C337.986 169.604 338.031 169.939 337.853 170.173C337.748 170.311 337.589 170.384 337.427 170.384Z" fill="#6F758D"/>
<path d="M373.812 94.6315H237.718C237.423 94.6315 237.184 94.3925 237.184 94.0975C237.184 93.8024 237.423 93.5635 237.718 93.5635H373.812C374.106 93.5635 374.346 93.8024 374.346 94.0975C374.346 94.3925 374.106 94.6315 373.812 94.6315Z" fill="#6F758D"/>
<path d="M386.919 104.451H250.825C250.53 104.451 250.291 104.212 250.291 103.917C250.291 103.622 250.53 103.383 250.825 103.383H386.919C387.214 103.383 387.453 103.622 387.453 103.917C387.453 104.212 387.214 104.451 386.919 104.451Z" fill="#6F758D"/>
<path d="M398.935 113.724H262.841C262.546 113.724 262.307 113.485 262.307 113.19C262.307 112.895 262.546 112.656 262.841 112.656H398.935C399.229 112.656 399.469 112.895 399.469 113.19C399.469 113.485 399.23 113.724 398.935 113.724Z" fill="#6F758D"/>
<path d="M412.044 123.543H275.95C275.655 123.543 275.416 123.304 275.416 123.009C275.416 122.714 275.655 122.475 275.95 122.475H412.044C412.339 122.475 412.578 122.714 412.578 123.009C412.578 123.304 412.339 123.543 412.044 123.543Z" fill="#6F758D"/>
<path d="M423.323 132.158H287.229C286.935 132.158 286.695 131.919 286.695 131.624C286.695 131.33 286.934 131.09 287.229 131.09H423.323C423.618 131.09 423.857 131.329 423.857 131.624C423.857 131.919 423.618 132.158 423.323 132.158Z" fill="#6F758D"/>
<path d="M436.431 141.977H300.337C300.042 141.977 299.803 141.738 299.803 141.443C299.803 141.148 300.042 140.909 300.337 140.909H436.431C436.726 140.909 436.965 141.148 436.965 141.443C436.965 141.738 436.726 141.977 436.431 141.977Z" fill="#6F758D"/>
<path d="M182.608 85.746C182.446 85.746 182.287 85.6732 182.182 85.5351C182.004 85.3005 182.049 84.9655 182.284 84.7872L293.627 0.148484C293.72 0.0778845 293.833 0.0395508 293.95 0.0395508H456.228C456.523 0.0395508 456.762 0.278527 456.762 0.573542C456.762 0.868314 456.523 1.10753 456.228 1.10753H294.13L182.93 85.6368C182.834 85.7106 182.72 85.746 182.608 85.746Z" fill="#6F758D"/>
<path d="M319.15 85.746C318.988 85.746 318.829 85.6732 318.724 85.5352C318.546 85.3006 318.591 84.9655 318.826 84.7872L430.17 0.148498C430.404 -0.0303061 430.739 0.0160359 430.917 0.250398C431.096 0.485003 431.05 0.820043 430.816 0.998362L319.472 85.6368C319.376 85.7106 319.262 85.746 319.15 85.746Z" fill="#6F758D"/>
<path d="M418.86 9.99327H282.766C282.472 9.99327 282.232 9.75405 282.232 9.45928C282.232 9.1645 282.471 8.92529 282.766 8.92529H418.86C419.155 8.92529 419.394 9.16426 419.394 9.45928C419.394 9.75429 419.155 9.99327 418.86 9.99327Z" fill="#6F758D"/>
<path d="M405.753 19.8126H269.659C269.364 19.8126 269.125 19.5734 269.125 19.2786C269.125 18.9838 269.364 18.7446 269.659 18.7446H405.753C406.048 18.7446 406.287 18.9836 406.287 19.2786C406.287 19.5736 406.048 19.8126 405.753 19.8126Z" fill="#6F758D"/>
<path d="M393.737 29.086H257.643C257.349 29.086 257.109 28.8468 257.109 28.5521C257.109 28.2573 257.348 28.0181 257.643 28.0181H393.737C394.032 28.0181 394.271 28.257 394.271 28.5521C394.271 28.8471 394.032 29.086 393.737 29.086Z" fill="#6F758D"/>
<path d="M380.63 38.9049H244.536C244.241 38.9049 244.002 38.6657 244.002 38.3709C244.002 38.0761 244.241 37.8369 244.536 37.8369H380.63C380.925 37.8369 381.164 38.0759 381.164 38.3709C381.164 38.6659 380.925 38.9049 380.63 38.9049Z" fill="#6F758D"/>
<path d="M368.612 48.1788H232.518C232.224 48.1788 231.984 47.9398 231.984 47.6448C231.984 47.3501 232.223 47.1108 232.518 47.1108H368.612C368.907 47.1108 369.146 47.3498 369.146 47.6448C369.146 47.9398 368.907 48.1788 368.612 48.1788Z" fill="#6F758D"/>
<path d="M355.506 57.9977H219.412C219.117 57.9977 218.878 57.7584 218.878 57.4637C218.878 57.1689 219.117 56.9297 219.412 56.9297H355.506C355.801 56.9297 356.04 57.1687 356.04 57.4637C356.04 57.7587 355.801 57.9977 355.506 57.9977Z" fill="#6F758D"/>
<path d="M343.489 67.2711H207.395C207.101 67.2711 206.861 67.0321 206.861 66.7371C206.861 66.4421 207.1 66.2031 207.395 66.2031H343.489C343.784 66.2031 344.023 66.4421 344.023 66.7371C344.023 67.0321 343.784 67.2711 343.489 67.2711Z" fill="#6F758D"/>
<path d="M330.383 77.0904H194.289C193.994 77.0904 193.755 76.8515 193.755 76.5564C193.755 76.2614 193.994 76.0225 194.289 76.0225H330.383C330.678 76.0225 330.917 76.2614 330.917 76.5564C330.917 76.8515 330.678 77.0904 330.383 77.0904Z" fill="#6F758D"/>
<path d="M665.029 268.695H1.33769C1.04292 268.695 0.803711 268.456 0.803711 268.161C0.803711 267.867 1.04268 267.627 1.33769 267.627H665.029C665.324 267.627 665.563 267.866 665.563 268.161C665.563 268.456 665.324 268.695 665.029 268.695Z" fill="#A5ADBA"/>
<path d="M608.382 297.857H255.225C254.931 297.857 254.691 297.618 254.691 297.323C254.691 297.028 254.93 296.789 255.225 296.789H608.382C608.677 296.789 608.916 297.028 608.916 297.323C608.916 297.618 608.677 297.857 608.382 297.857Z" fill="#A5ADBA"/>
<path d="M176.118 223.48H198.44V218.068H176.118V223.48Z" fill="#5479F7"/>
<path d="M198.441 224.015H176.118C175.823 224.015 175.584 223.776 175.584 223.481V218.068C175.584 217.773 175.823 217.534 176.118 217.534H198.441C198.736 217.534 198.975 217.773 198.975 218.068V223.481C198.975 223.776 198.736 224.015 198.441 224.015ZM176.652 222.947H197.907V218.602H176.652V222.947Z" fill="#A5ADBA"/>
<path d="M648.182 244.758H201.295C197.108 244.758 193.714 241.101 193.714 236.59V147.623C193.714 143.439 196.862 140.047 200.746 140.047H510.499C528.058 140.047 545.335 144.811 560.736 153.9L656.36 210.336C661.814 213.554 665.204 219.72 665.204 226.419C665.204 236.548 657.583 244.758 648.182 244.758Z" fill="#5479F7"/>
<path d="M648.182 245.292H201.295C196.82 245.292 193.18 241.389 193.18 236.59V147.623C193.18 143.151 196.574 139.513 200.746 139.513H510.499C528.103 139.513 545.569 144.329 561.007 153.44L656.631 209.876C662.248 213.191 665.738 219.53 665.738 226.419C665.738 236.826 657.862 245.292 648.182 245.292ZM200.746 140.581C197.163 140.581 194.248 143.74 194.248 147.623V236.591C194.248 240.8 197.409 244.224 201.295 244.224H648.182C657.274 244.224 664.67 236.237 664.67 226.419C664.67 219.906 661.382 213.92 656.089 210.796L560.464 154.36C545.19 145.345 527.912 140.581 510.499 140.581H200.746Z" fill="#A5ADBA"/>
<path d="M193.715 228.029V237.182C193.715 241.366 196.863 244.758 200.747 244.758H648.183C657.08 244.758 664.371 237.402 665.129 228.029H193.715Z" fill="#A5ADBA"/>
<path d="M611.185 269.119C619.836 269.119 626.848 261.564 626.848 252.244C626.848 242.924 619.836 235.369 611.185 235.369C602.534 235.369 595.521 242.924 595.521 252.244C595.521 261.564 602.534 269.119 611.185 269.119Z" fill="#A5ADBA"/>
<path d="M547.214 269.119C555.865 269.119 562.878 261.564 562.878 252.244C562.878 242.924 555.865 235.369 547.214 235.369C538.564 235.369 531.551 242.924 531.551 252.244C531.551 261.564 538.564 269.119 547.214 269.119Z" fill="#A5ADBA"/>
<path d="M306.259 269.119C314.91 269.119 321.923 261.564 321.923 252.244C321.923 242.924 314.91 235.369 306.259 235.369C297.608 235.369 290.596 242.924 290.596 252.244C290.596 261.564 297.608 269.119 306.259 269.119Z" fill="#A5ADBA"/>
<path d="M242.288 269.119C250.939 269.119 257.952 261.564 257.952 252.244C257.952 242.924 250.939 235.369 242.288 235.369C233.638 235.369 226.625 242.924 226.625 252.244C226.625 261.564 233.638 269.119 242.288 269.119Z" fill="#A5ADBA"/>
<path d="M355.595 198.947H208.88C206.042 198.947 203.741 196.646 203.741 193.808V169.794C203.741 166.956 206.042 164.655 208.88 164.655H355.595C358.433 164.655 360.734 166.956 360.734 169.794V193.808C360.734 196.646 358.433 198.947 355.595 198.947Z" fill="#E2EAFF"/>
<path d="M532.172 198.947H385.458C382.619 198.947 380.318 196.646 380.318 193.808V169.794C380.318 166.956 382.619 164.655 385.458 164.655H532.172C535.01 164.655 537.311 166.956 537.311 169.794V193.808C537.311 196.646 535.01 198.947 532.172 198.947Z" fill="#E2EAFF"/>
<path d="M635.489 198.947H566.793C564.059 198.947 561.842 196.559 561.842 193.613V169.989C561.842 167.043 564.059 164.655 566.793 164.655H577.572L635.489 198.947Z" fill="#E2EAFF"/>
<path d="M0.705078 140.047H173.613C177.497 140.047 180.646 143.439 180.646 147.623V236.59C180.646 241.101 177.251 244.758 173.065 244.758H0.705078V140.047Z" fill="#5479F7"/>
<path d="M173.064 245.292H0.704882C0.41011 245.292 0.170898 245.053 0.170898 244.758V140.047C0.170898 139.752 0.409867 139.513 0.704882 139.513H173.613C177.785 139.513 181.18 143.151 181.18 147.623V236.59C181.18 241.388 177.539 245.292 173.064 245.292ZM1.23887 244.224H173.064C176.95 244.224 180.112 240.8 180.112 236.59V147.623C180.112 143.74 177.196 140.581 173.613 140.581H1.23887V244.224Z" fill="#A5ADBA"/>
<path d="M0.705078 228.029H180.646V237.182C180.646 241.366 177.497 244.758 173.613 244.758H0.705078V228.029Z" fill="#A5ADBA"/>
<path d="M68.1009 269.119C76.7516 269.119 83.7644 261.564 83.7644 252.244C83.7644 242.924 76.7516 235.369 68.1009 235.369C59.4503 235.369 52.4375 242.924 52.4375 252.244C52.4375 261.564 59.4503 269.119 68.1009 269.119Z" fill="#A5ADBA"/>
<path d="M132.071 269.119C140.721 269.119 147.734 261.564 147.734 252.244C147.734 242.924 140.721 235.369 132.071 235.369C123.42 235.369 116.407 242.924 116.407 252.244C116.407 261.564 123.42 269.119 132.071 269.119Z" fill="#A5ADBA"/>
<path d="M18.7652 198.947H165.479C168.318 198.947 170.619 196.646 170.619 193.808V169.794C170.619 166.956 168.318 164.655 165.479 164.655H18.7652C15.9269 164.655 13.626 166.956 13.626 169.794V193.808C13.626 196.646 15.9269 198.947 18.7652 198.947Z" fill="#E2EAFF"/>
<path d="M411.825 351.559C411.53 351.559 411.291 351.32 411.291 351.025V330.531C411.291 325.406 415.461 321.235 420.587 321.235H443.871C444.166 321.235 444.405 321.475 444.405 321.769C444.405 322.064 444.166 322.303 443.871 322.303H420.587C416.05 322.303 412.359 325.995 412.359 330.531V351.025C412.359 351.32 412.12 351.559 411.825 351.559Z" fill="white"/>
<path d="M665.299 351.559C665.004 351.559 664.765 351.32 664.765 351.025V330.531C664.765 325.994 661.074 322.303 656.537 322.303H633.253C632.958 322.303 632.719 322.064 632.719 321.769C632.719 321.475 632.958 321.235 633.253 321.235H656.537C661.663 321.235 665.833 325.406 665.833 330.531V351.025C665.833 351.32 665.594 351.559 665.299 351.559Z" fill="white"/>
<path d="M665.3 387.867C665.005 387.867 664.766 387.628 664.766 387.333V349.817H412.359V387.333C412.359 387.628 412.12 387.867 411.825 387.867C411.53 387.867 411.291 387.628 411.291 387.333V349.283C411.291 348.988 411.53 348.749 411.825 348.749H665.3C665.595 348.749 665.834 348.988 665.834 349.283V387.333C665.834 387.628 665.595 387.867 665.3 387.867Z" fill="white"/>
<path d="M602.823 359.32H647.075C650.867 359.32 653.969 356.217 653.969 352.425V299.005C653.969 295.212 650.867 292.11 647.075 292.11H602.823C599.031 292.11 595.928 295.213 595.928 299.005V352.425C595.928 356.217 599.031 359.32 602.823 359.32Z" fill="#5479F7"/>
<path d="M647.074 359.854H602.821C598.725 359.854 595.393 356.521 595.393 352.425V299.005C595.393 294.909 598.725 291.576 602.821 291.576H647.074C651.17 291.576 654.502 294.909 654.502 299.005V352.425C654.502 356.521 651.17 359.854 647.074 359.854ZM602.821 292.644C599.314 292.644 596.461 295.497 596.461 299.005V352.425C596.461 355.932 599.314 358.786 602.821 358.786H647.074C650.581 358.786 653.434 355.932 653.434 352.425V299.005C653.434 295.497 650.581 292.644 647.074 292.644H602.821Z" fill="white"/>
<path d="M640.258 353.555H604.3C604.005 353.555 603.766 353.316 603.766 353.021C603.766 352.727 604.005 352.487 604.3 352.487H640.258C643.053 352.487 645.327 350.214 645.327 347.419V304.01C645.327 301.216 643.053 298.942 640.258 298.942H622.279C621.984 298.942 621.745 298.703 621.745 298.408C621.745 298.113 621.984 297.874 622.279 297.874H640.258C643.642 297.874 646.395 300.626 646.395 304.01V347.419C646.395 350.803 643.642 353.555 640.258 353.555Z" fill="white"/>
<path d="M544.621 359.32H588.873C592.666 359.32 595.768 356.217 595.768 352.425V299.005C595.768 295.212 592.665 292.11 588.873 292.11H544.621C540.829 292.11 537.727 295.213 537.727 299.005V352.425C537.727 356.217 540.829 359.32 544.621 359.32Z" fill="#5479F7"/>
<path d="M588.874 359.854H544.622C540.526 359.854 537.193 356.521 537.193 352.425V299.005C537.193 294.909 540.526 291.576 544.622 291.576H588.874C592.97 291.576 596.303 294.909 596.303 299.005V352.425C596.303 356.521 592.97 359.854 588.874 359.854ZM544.622 292.644C541.114 292.644 538.261 295.497 538.261 299.005V352.425C538.261 355.932 541.114 358.786 544.622 358.786H588.874C592.381 358.786 595.235 355.932 595.235 352.425V299.005C595.235 295.497 592.381 292.644 588.874 292.644H544.622Z" fill="white"/>
<path d="M582.057 353.555H546.098C545.804 353.555 545.564 353.316 545.564 353.021C545.564 352.727 545.804 352.487 546.098 352.487H582.057C584.852 352.487 587.126 350.214 587.126 347.419V304.01C587.126 301.216 584.852 298.942 582.057 298.942H564.078C563.783 298.942 563.544 298.703 563.544 298.408C563.544 298.113 563.783 297.874 564.078 297.874H582.057C585.441 297.874 588.194 300.626 588.194 304.01V347.419C588.194 350.803 585.441 353.555 582.057 353.555Z" fill="white"/>
<path d="M486.42 359.32H530.672C534.464 359.32 537.567 356.217 537.567 352.425V299.005C537.567 295.212 534.464 292.11 530.672 292.11H486.42C482.628 292.11 479.525 295.213 479.525 299.005V352.425C479.525 356.217 482.628 359.32 486.42 359.32Z" fill="#5479F7"/>
<path d="M530.673 359.854H486.421C482.324 359.854 478.992 356.521 478.992 352.425V299.005C478.992 294.909 482.325 291.576 486.421 291.576H530.673C534.769 291.576 538.101 294.909 538.101 299.005V352.425C538.101 356.521 534.769 359.854 530.673 359.854ZM486.421 292.644C482.913 292.644 480.06 295.497 480.06 299.005V352.425C480.06 355.932 482.913 358.786 486.421 358.786H530.673C534.18 358.786 537.034 355.932 537.034 352.425V299.005C537.034 295.497 534.18 292.644 530.673 292.644H486.421Z" fill="white"/>
<path d="M523.858 353.555H487.899C487.604 353.555 487.365 353.316 487.365 353.021C487.365 352.727 487.604 352.487 487.899 352.487H523.858C526.652 352.487 528.926 350.214 528.926 347.419V304.01C528.926 301.216 526.652 298.942 523.858 298.942H505.878C505.584 298.942 505.344 298.703 505.344 298.408C505.344 298.113 505.583 297.874 505.878 297.874H523.858C527.241 297.874 529.994 300.626 529.994 304.01V347.419C529.994 350.803 527.241 353.555 523.858 353.555Z" fill="white"/>
<path d="M428.221 359.32H472.473C476.265 359.32 479.368 356.217 479.368 352.425V299.005C479.368 295.212 476.265 292.11 472.473 292.11H428.221C424.429 292.11 421.326 295.213 421.326 299.005V352.425C421.326 356.217 424.429 359.32 428.221 359.32Z" fill="#5479F7"/>
<path d="M472.472 359.854H428.22C424.124 359.854 420.791 356.521 420.791 352.425V299.005C420.791 294.909 424.124 291.576 428.22 291.576H472.472C476.568 291.576 479.901 294.909 479.901 299.005V352.425C479.901 356.521 476.568 359.854 472.472 359.854ZM428.22 292.644C424.712 292.644 421.859 295.497 421.859 299.005V352.425C421.859 355.932 424.712 358.786 428.22 358.786H472.472C475.979 358.786 478.833 355.932 478.833 352.425V299.005C478.833 295.497 475.979 292.644 472.472 292.644H428.22Z" fill="white"/>
<path d="M465.654 353.555H429.696C429.401 353.555 429.162 353.316 429.162 353.021C429.162 352.727 429.401 352.487 429.696 352.487H465.654C468.449 352.487 470.723 350.214 470.723 347.419V304.01C470.723 301.216 468.449 298.942 465.654 298.942H447.676C447.381 298.942 447.141 298.703 447.141 298.408C447.141 298.113 447.381 297.874 447.676 297.874H465.654C469.038 297.874 471.791 300.626 471.791 304.01V347.419C471.791 350.803 469.038 353.555 465.654 353.555Z" fill="white"/>
<path d="M271.785 191.91C271.785 191.91 275.718 177.873 277.449 172.657C279.18 167.442 282.564 166.012 284.884 164.718C287.204 163.424 289.483 161.603 290.328 162.844C291.174 164.085 287.871 166.478 287.871 166.478C291.139 166.532 293.818 162.847 294.976 163.542C296.135 164.237 294.859 166.098 294.859 166.098C294.859 166.098 296.558 163.782 297.862 164.964C299.166 166.146 296.539 168.452 296.539 168.452C296.539 168.452 298.847 166.531 299.76 168.49C300.672 170.449 294.198 172.871 294.198 172.871C295.478 172.473 297.441 172.519 297.573 173.468C297.705 174.417 295.385 175.013 292.976 175.987C290.566 176.961 286.995 177.266 286.995 177.266C286.074 191.66 284.048 205.415 272.597 207.522C269.248 208.138 260.922 209.883 259.133 209.186C252.565 206.625 251.624 193.745 256.104 193.783C264.788 193.856 271.785 191.91 271.785 191.91Z" fill="white"/>
<path d="M260.477 209.877C259.809 209.877 259.282 209.818 258.937 209.683C254.063 207.783 252.184 200.825 252.982 196.673C253.404 194.485 254.527 193.231 256.107 193.249C263.627 193.306 269.952 191.827 271.352 191.471C271.93 189.418 275.366 177.238 276.941 172.489C278.59 167.522 281.722 165.826 284.009 164.588C284.22 164.473 284.425 164.362 284.623 164.252C285.084 163.995 285.542 163.717 285.988 163.447C287.953 162.258 289.808 161.135 290.769 162.545C291.398 163.469 290.631 164.643 289.757 165.552C290.685 165.172 291.546 164.581 292.297 164.067C293.493 163.246 294.439 162.599 295.25 163.085C295.621 163.308 295.865 163.644 295.955 164.058C295.978 164.164 295.99 164.272 295.994 164.38C296.261 164.238 296.551 164.134 296.851 164.104C297.356 164.052 297.828 164.214 298.219 164.569C298.575 164.892 298.762 165.314 298.758 165.791C298.754 166.224 298.59 166.669 298.36 167.081C298.549 167.069 298.739 167.08 298.926 167.122C299.325 167.212 299.878 167.482 300.242 168.265C300.423 168.652 300.426 169.08 300.252 169.506C299.83 170.537 298.312 171.522 296.92 172.242C297.131 172.303 297.323 172.384 297.487 172.488C297.837 172.71 298.049 173.024 298.1 173.395C298.263 174.566 296.756 175.129 294.669 175.909C294.19 176.088 293.684 176.277 293.174 176.483C291.209 177.277 288.555 177.635 287.497 177.753C286.604 191.341 284.573 205.862 272.692 208.047C272.255 208.128 271.734 208.227 271.154 208.338C267.003 209.13 262.848 209.877 260.477 209.877ZM256.084 194.317C254.726 194.317 254.215 195.918 254.031 196.875C253.32 200.572 255.029 207.013 259.326 208.688C260.738 209.239 267.638 207.922 270.954 207.289C271.537 207.178 272.061 207.078 272.5 206.997C283.757 204.926 285.57 191.158 286.461 177.233C286.478 176.969 286.685 176.757 286.948 176.735C286.983 176.732 290.47 176.425 292.775 175.493C293.294 175.283 293.809 175.09 294.296 174.908C295.202 174.57 297.088 173.865 297.043 173.542C297.04 173.519 297.032 173.464 296.915 173.39C296.454 173.097 295.281 173.093 294.355 173.381C294.079 173.467 293.785 173.318 293.692 173.044C293.598 172.771 293.739 172.473 294.009 172.371C295.798 171.702 298.805 170.222 299.264 169.101C299.343 168.908 299.311 168.794 299.275 168.716C299.056 168.246 298.784 168.184 298.694 168.164C298.071 168.024 297.152 168.638 296.878 168.864C296.654 169.049 296.321 169.021 296.132 168.799C295.943 168.577 295.966 168.244 296.185 168.052C296.764 167.541 297.685 166.474 297.69 165.781C297.691 165.609 297.634 165.478 297.502 165.36C297.334 165.207 297.163 165.144 296.959 165.166C296.293 165.233 295.51 166.112 295.288 166.414C295.116 166.649 294.787 166.702 294.55 166.534C294.312 166.366 294.253 166.038 294.417 165.797C294.658 165.442 295.007 164.717 294.912 164.284C294.884 164.157 294.82 164.072 294.7 164C294.481 163.87 293.529 164.516 292.901 164.947C291.538 165.882 289.848 167.04 287.861 167.012C287.631 167.009 287.43 166.858 287.361 166.639C287.292 166.42 287.371 166.181 287.556 166.046C288.917 165.059 290.202 163.609 289.886 163.145C289.494 162.572 287.926 163.522 286.542 164.36C286.085 164.637 285.615 164.921 285.143 165.184C284.942 165.296 284.732 165.41 284.517 165.527C282.268 166.744 279.47 168.259 277.955 172.825C276.248 177.969 272.337 191.914 272.298 192.054C272.248 192.234 272.107 192.374 271.927 192.424C271.857 192.444 264.76 194.385 256.099 194.317C256.093 194.317 256.089 194.317 256.084 194.317Z" fill="black"/>
<path d="M292.034 173.996C291.809 173.996 291.6 173.853 291.526 173.627C291.435 173.347 291.589 173.045 291.869 172.954L293.822 172.319C294.104 172.228 294.404 172.381 294.495 172.661C294.587 172.942 294.433 173.243 294.153 173.334L292.199 173.97C292.144 173.988 292.089 173.996 292.034 173.996Z" fill="black"/>
<path d="M291.217 170.981C290.974 170.981 290.754 170.813 290.697 170.566C290.631 170.278 290.811 169.992 291.098 169.926C292.788 169.539 294.423 168.923 295.958 168.096C296.217 167.956 296.541 168.053 296.681 168.313C296.821 168.572 296.723 168.897 296.464 169.036C294.845 169.909 293.12 170.558 291.337 170.967C291.297 170.976 291.257 170.981 291.217 170.981Z" fill="black"/>
<path d="M290.031 168.599C289.772 168.599 289.543 168.409 289.504 168.144C289.461 167.852 289.662 167.58 289.953 167.537C291.488 167.308 292.997 166.747 294.32 165.914C294.569 165.757 294.9 165.831 295.056 166.081C295.214 166.33 295.139 166.66 294.889 166.817C293.442 167.728 291.79 168.343 290.111 168.593C290.084 168.597 290.058 168.599 290.031 168.599Z" fill="black"/>
<path d="M286.251 171.904C286.2 171.904 286.148 171.896 286.097 171.881C285.815 171.796 285.655 171.498 285.74 171.216C285.876 170.764 285.877 170.268 285.879 169.743C285.879 169.483 285.881 169.223 285.897 168.964C285.969 167.785 286.421 166.9 287.169 166.472C287.426 166.326 287.752 166.414 287.898 166.67C288.044 166.926 287.956 167.252 287.7 167.399C287.104 167.739 286.986 168.653 286.962 169.03C286.948 169.268 286.947 169.507 286.946 169.746C286.945 170.325 286.943 170.923 286.762 171.523C286.692 171.755 286.48 171.904 286.251 171.904Z" fill="black"/>
<path d="M284.997 178.45C284.816 178.45 284.64 178.358 284.54 178.192C284.387 177.939 284.469 177.611 284.721 177.459C285.26 177.133 285.843 176.901 286.455 176.768C286.742 176.705 287.027 176.888 287.09 177.176C287.153 177.464 286.97 177.749 286.682 177.811C286.185 177.919 285.711 178.108 285.273 178.373C285.186 178.425 285.091 178.45 284.997 178.45Z" fill="black"/>
<path d="M283.684 187.612C280.305 187.612 276.9 186.069 274.763 183.449C274.576 183.22 274.611 182.884 274.839 182.698C275.068 182.512 275.404 182.546 275.59 182.774C277.921 185.631 281.914 187.076 285.53 186.368C285.819 186.31 286.1 186.501 286.156 186.79C286.213 187.079 286.024 187.36 285.735 187.416C285.06 187.548 284.373 187.612 283.684 187.612Z" fill="black"/>
<path d="M232.205 194.887C232.205 194.887 225.593 194.499 219.699 196.226C213.546 198.029 199.57 225.446 202.521 235.708C203.919 240.567 215.056 245.217 221.595 240.902C228.135 236.586 232.205 194.887 232.205 194.887Z" fill="black"/>
<path d="M248.332 192.093C235.542 191.778 237.166 191.859 237.166 191.859C237.166 191.859 217.458 218.655 211.696 236.906C209.032 245.346 207.101 251.46 208.217 254.465C209.177 257.052 214.459 259.588 217.148 258.981L249.816 257.965C251.989 257.474 253.662 255.739 254.074 253.548C256.159 242.447 262.425 209.311 263.652 205.254C265.129 200.37 261.122 192.409 248.332 192.093Z" fill="black"/>
<path d="M216.218 259.61C213.088 259.611 208.638 257.136 207.716 254.651C206.789 252.156 207.731 247.979 209.67 241.606C209.755 241.323 210.054 241.164 210.336 241.25C210.618 241.336 210.777 241.634 210.691 241.916C208.866 247.916 207.899 252.077 208.717 254.279C209.551 256.525 214.525 259.028 217.03 258.461C217.063 258.453 217.097 258.449 217.131 258.448L249.747 257.433C251.689 256.975 253.179 255.416 253.548 253.449C255.484 243.146 261.898 209.209 263.141 205.099C263.226 204.817 263.525 204.658 263.806 204.743C264.089 204.828 264.249 205.126 264.163 205.408C262.936 209.467 256.532 243.357 254.598 253.647C254.147 256.049 252.316 257.948 249.934 258.486C249.901 258.493 249.867 258.497 249.833 258.499L217.213 259.513C216.903 259.579 216.568 259.61 216.218 259.61Z" fill="black"/>
<path d="M213.036 233.644C212.973 233.644 212.909 233.633 212.846 233.609C212.57 233.504 212.432 233.196 212.537 232.921C218.98 215.992 234.773 194.219 236.572 191.766C236.628 191.31 237.085 191.313 237.426 191.317C237.683 191.32 238.133 191.326 238.902 191.341C240.436 191.371 243.245 191.434 248.346 191.56C248.64 191.567 248.874 191.812 248.866 192.107C248.859 192.402 248.612 192.655 248.32 192.627C240.56 192.436 238.17 192.393 237.442 192.385C235.717 194.737 219.943 216.463 213.535 233.3C213.454 233.513 213.251 233.644 213.036 233.644Z" fill="black"/>
<path d="M258.859 184.254L254.081 192.748L257.558 193.789C257.558 193.789 250.379 200.356 240.619 191.989L244.408 191.29L251.659 181.033L258.859 184.254Z" fill="white"/>
<path d="M250.537 196.751C247.681 196.751 244.16 195.729 240.271 192.395C240.114 192.261 240.049 192.049 240.102 191.85C240.156 191.652 240.319 191.502 240.521 191.464L244.096 190.804L251.222 180.725C251.369 180.517 251.643 180.442 251.875 180.546L259.076 183.766C259.213 183.827 259.318 183.943 259.365 184.086C259.412 184.229 259.397 184.384 259.324 184.515L254.873 192.428L257.71 193.278C257.894 193.333 258.034 193.483 258.077 193.67C258.12 193.858 258.059 194.054 257.917 194.183C257.871 194.226 255.026 196.751 250.537 196.751ZM241.849 192.305C248.868 197.754 254.373 195.277 256.378 193.993L253.927 193.259C253.772 193.213 253.646 193.098 253.586 192.948C253.525 192.798 253.536 192.627 253.615 192.486L258.106 184.502L251.84 181.7L244.843 191.598C244.763 191.712 244.641 191.79 244.504 191.815L241.849 192.305Z" fill="black"/>
<path d="M236.789 191.495C236.789 191.495 245.525 199.864 247.854 207.53C250.183 215.196 228.098 230.103 228.098 230.103C228.098 230.103 253.991 222.233 252.437 207.7C251.625 200.11 243.329 193.068 240.639 190.953C240.379 190.748 240.079 190.611 239.764 190.545C239.327 190.455 238.872 190.537 238.466 190.723L236.789 191.495Z" fill="white"/>
<path d="M253.588 209.275C253.588 209.275 254.689 209.035 254.251 207.949C253.856 206.972 248.172 204.622 238.409 209.682C237.413 210.198 236.515 210.672 235.705 211.108C236.433 213.607 238.117 218.378 241.064 221.528C243.355 218.92 245.85 216.513 248.808 216.083C254.032 215.323 249.6 214.219 249.6 214.219C249.6 214.219 253.502 214.176 253.502 213.277C253.502 212.082 250.349 211.987 249.011 212C248.647 212.012 248.421 212.014 248.421 212.014C248.421 212.014 248.651 212.003 249.011 212C250.494 211.949 254.293 211.731 254.652 210.814C255.099 209.673 253.588 209.275 253.588 209.275Z" fill="white"/>
<path d="M241.064 222.062C240.921 222.062 240.779 222.005 240.674 221.893C237.661 218.672 235.946 213.847 235.192 211.258C235.122 211.016 235.23 210.757 235.452 210.638C236.264 210.201 237.164 209.725 238.163 209.208C241.454 207.503 244.588 206.467 247.479 206.13C247.768 206.094 248.038 206.305 248.071 206.598C248.106 206.891 247.896 207.157 247.603 207.191C244.84 207.513 241.83 208.511 238.654 210.156C237.815 210.591 237.046 210.996 236.34 211.373C237.123 213.945 238.744 218.267 241.454 221.164C241.655 221.379 241.643 221.717 241.428 221.918C241.325 222.014 241.195 222.062 241.064 222.062Z" fill="black"/>
<path d="M250.094 216.381C249.852 216.381 249.633 216.216 249.574 215.97C249.507 215.683 249.684 215.396 249.971 215.328C250.263 215.258 250.464 215.194 250.601 215.141C250.326 215.002 249.885 214.841 249.469 214.737C249.208 214.671 249.036 214.423 249.068 214.156C249.099 213.89 249.324 213.688 249.592 213.685C251.063 213.668 252.551 213.451 252.939 213.206C252.931 213.194 252.919 213.181 252.904 213.165C252.498 212.763 250.964 212.509 249.014 212.534C248.655 212.546 248.424 212.549 248.424 212.549C248.11 212.553 247.894 212.321 247.885 212.031C247.876 211.74 248.101 211.496 248.392 211.482C248.392 211.482 248.63 211.47 249.004 211.466C252.44 211.349 253.971 210.888 254.159 210.607C254.228 210.429 254.195 210.324 254.164 210.263C254.043 210.021 253.629 209.84 253.448 209.791C253.211 209.725 253.047 209.507 253.054 209.261C253.061 209.015 253.233 208.805 253.473 208.753C253.547 208.735 253.733 208.656 253.793 208.539C253.848 208.433 253.802 208.269 253.754 208.15C253.709 208.076 253.299 207.7 252.182 207.403C251.897 207.327 251.727 207.034 251.803 206.749C251.879 206.464 252.173 206.295 252.457 206.371C253.671 206.694 254.526 207.21 254.744 207.75C254.986 208.348 254.873 208.782 254.736 209.041C254.704 209.101 254.669 209.157 254.631 209.209C254.819 209.355 254.996 209.542 255.116 209.778C255.306 210.152 255.317 210.578 255.148 211.01C255.055 211.245 254.864 211.733 253.23 212.1C253.396 212.19 253.54 212.292 253.656 212.407C253.903 212.652 254.034 212.953 254.034 213.278C254.034 213.969 253.241 214.42 251.672 214.626C251.816 214.796 251.888 214.979 251.886 215.175C251.882 215.878 251.04 216.173 250.217 216.367C250.175 216.376 250.134 216.381 250.094 216.381Z" fill="black"/>
<path d="M247.854 209.983C247.602 209.983 247.377 209.803 247.329 209.546C247.276 209.256 247.467 208.977 247.757 208.924C249.738 208.557 251.872 208.628 253.314 208.752C253.608 208.777 253.826 209.036 253.8 209.33C253.775 209.624 253.517 209.844 253.223 209.816C251.249 209.646 249.426 209.701 247.952 209.974C247.919 209.98 247.886 209.983 247.854 209.983Z" fill="black"/>
<path d="M228.327 215.695L238.238 192.973L237.167 191.86C237.167 191.86 228.887 191.33 218.968 205.261C209.048 219.192 205.311 227.577 212.905 233.004C219.244 237.533 232.277 230.387 236.038 227.08C237.671 225.645 239.307 223.528 241.064 221.528C238.117 218.378 236.433 213.607 235.705 211.108C228.936 214.75 228.327 215.695 228.327 215.695Z" fill="white"/>
<path d="M228.794 195.563C228.625 195.563 228.459 195.483 228.355 195.334C228.187 195.092 228.247 194.759 228.489 194.591C233.438 191.147 236.725 191.326 236.863 191.337C237.157 191.357 237.379 191.612 237.359 191.906C237.339 192.2 237.08 192.418 236.79 192.402C236.762 192.401 233.705 192.262 229.099 195.467C229.006 195.532 228.899 195.563 228.794 195.563Z" fill="black"/>
<path d="M218.037 234.889C216.013 234.889 214.141 234.469 212.609 233.448C212.364 233.284 212.297 232.952 212.461 232.707C212.624 232.462 212.956 232.395 213.201 232.559C219.128 236.51 231.648 230.228 235.686 226.679C235.908 226.484 236.245 226.506 236.44 226.727C236.634 226.949 236.613 227.286 236.391 227.481C233.394 230.116 224.857 234.889 218.037 234.889Z" fill="black"/>
<path d="M241.064 222.062C240.921 222.062 240.78 222.005 240.674 221.893C237.892 218.919 236.217 214.576 235.383 211.889C229.6 215.033 228.787 215.974 228.755 216.014C228.594 216.262 228.276 216.318 228.027 216.158C227.779 215.998 227.719 215.653 227.878 215.405L236.005 202.8C236.165 202.552 236.495 202.48 236.743 202.641C236.991 202.801 237.062 203.131 236.902 203.379L230.332 213.569C231.455 212.863 233.085 211.911 235.452 210.637C235.594 210.561 235.762 210.553 235.911 210.615C236.06 210.678 236.172 210.804 236.217 210.958C236.945 213.457 238.593 218.105 241.454 221.163C241.655 221.379 241.644 221.716 241.429 221.918C241.326 222.014 241.195 222.062 241.064 222.062Z" fill="black"/>
<path d="M223.146 219.932C222.979 219.932 222.815 219.854 222.711 219.708C222.539 219.468 222.595 219.135 222.835 218.963C223.309 218.624 223.804 218.26 224.324 217.877C225.419 217.07 226.661 216.154 228.033 215.249C228.279 215.086 228.611 215.154 228.773 215.4C228.935 215.646 228.867 215.977 228.621 216.14C227.272 217.031 226.043 217.937 224.957 218.737C224.434 219.122 223.934 219.491 223.456 219.832C223.362 219.899 223.253 219.932 223.146 219.932Z" fill="black"/>
<path d="M178.559 266.021C176.239 266.021 173.976 266.743 172.091 268.096C165.602 272.754 156.08 282.479 151.981 286.894C151.211 287.722 151.798 289.07 152.928 289.07L195.69 289.072C200.228 281.315 201.035 274.553 199.485 266.279L178.559 266.021Z" fill="#5479F7"/>
<path d="M195.691 289.606L152.93 289.604C152.192 289.604 151.55 289.183 151.254 288.506C150.959 287.829 151.088 287.072 151.59 286.53C156.116 281.657 165.46 272.199 171.78 267.662C173.763 266.24 176.107 265.487 178.56 265.487C178.562 265.487 178.564 265.487 178.566 265.487L199.492 265.744C199.747 265.747 199.964 265.929 200.011 266.18C201.68 275.092 200.562 281.802 196.152 289.341C196.056 289.505 195.88 289.606 195.691 289.606ZM178.556 266.556C176.33 266.556 174.202 267.239 172.403 268.53C166.152 273.017 156.871 282.413 152.373 287.257C152.161 287.486 152.108 287.793 152.233 288.079C152.358 288.365 152.618 288.536 152.93 288.536L195.383 288.538C199.453 281.471 200.523 275.124 199.04 266.807L178.556 266.556Z" fill="black"/>
<path d="M169.008 287.872C168.924 287.872 168.838 287.852 168.758 287.809C168.497 287.67 168.399 287.347 168.537 287.087C172.438 279.764 176.962 272.704 181.984 266.102C182.163 265.867 182.497 265.822 182.732 266C182.967 266.179 183.013 266.514 182.834 266.748C177.846 273.305 173.353 280.317 169.48 287.589C169.384 287.769 169.199 287.872 169.008 287.872Z" fill="black"/>
<path d="M289.681 345.405L280.536 343.092L275.575 323.486C267.286 327.632 258.323 330.425 249.148 331.715L256.783 357.082C257.554 359.642 260.409 360.926 262.832 359.802L289.855 347.269C290.704 346.876 290.588 345.634 289.681 345.405Z" fill="#5479F7"/>
<path d="M260.986 360.743C260.299 360.743 259.612 360.6 258.971 360.311C257.667 359.726 256.683 358.605 256.271 357.235L248.636 331.869C248.591 331.72 248.614 331.558 248.698 331.427C248.781 331.296 248.919 331.208 249.073 331.186C258.223 329.899 267.059 327.148 275.335 323.008C275.479 322.936 275.649 322.933 275.796 323C275.943 323.068 276.051 323.198 276.091 323.355L280.974 342.652L289.811 344.887C290.446 345.047 290.896 345.572 290.957 346.225C291.018 346.878 290.674 347.478 290.079 347.754L263.055 360.287C262.399 360.591 261.693 360.743 260.986 360.743ZM249.837 332.155L257.293 356.928C257.617 358 258.387 358.879 259.408 359.337C260.427 359.795 261.592 359.788 262.605 359.318L289.629 346.785C289.903 346.658 289.901 346.401 289.894 346.325C289.887 346.249 289.841 345.996 289.55 345.922L280.404 343.61C280.214 343.561 280.065 343.413 280.017 343.223L275.218 324.258C267.197 328.194 258.665 330.849 249.837 332.155Z" fill="black"/>
<path d="M252.792 232.871L232.211 232.821C226.671 232.879 221.583 235.892 218.861 240.724L208.971 257.472C205.997 262.754 200.411 266.021 194.356 266.021H191.746C188.852 273.494 188.348 281.355 187.519 289.327H210.325C219.074 289.327 227.375 285.454 233.004 278.747L248.995 331.878C258.352 330.562 267.493 327.714 275.946 323.486L252.792 232.871Z" fill="#5479F7"/>
<path d="M233.003 279.281C232.924 279.281 232.844 279.263 232.768 279.226C232.504 279.096 232.395 278.776 232.525 278.511L243.965 255.241C244.657 253.836 245.905 252.748 247.39 252.256L248.485 251.893C248.765 251.801 249.068 251.952 249.16 252.232C249.253 252.512 249.101 252.815 248.821 252.907L247.726 253.269C246.511 253.672 245.489 254.563 244.924 255.712L233.483 278.982C233.39 279.171 233.201 279.281 233.003 279.281Z" fill="black"/>
<path d="M258.152 355.721C257.959 355.721 257.772 355.615 257.677 355.432C257.541 355.17 257.644 354.848 257.906 354.712L280.243 343.173C280.505 343.037 280.827 343.141 280.962 343.403C281.098 343.665 280.995 343.987 280.733 344.122L258.396 355.661C258.318 355.702 258.234 355.721 258.152 355.721Z" fill="black"/>
<path d="M261.704 176.647C261.704 176.647 265.818 174.166 262.892 169.866C259.903 165.474 228.292 164.781 217.184 168.668C206.075 172.555 215.732 176.647 215.732 176.647C215.732 176.647 213.511 180.514 217.84 181.148C222.168 181.782 225.796 179.302 227.088 184.543C228.38 189.783 236.493 191.213 256.73 184.914L261.704 176.647Z" fill="black"/>
<path d="M262.677 175.821C262.54 178.126 262.324 180.426 262.028 182.716C261.792 184.548 261.402 186.557 259.939 187.694C258.696 188.661 256.87 188.724 255.47 188C254.071 187.275 253.104 185.852 252.76 184.32C251.695 184.42 250.565 183.904 250.044 182.974C249.524 182.044 249.722 180.741 250.566 180.087C251.41 179.432 252.815 179.617 253.379 180.522C253.432 180.607 255.249 178.764 255.394 178.583C255.963 177.874 256.294 176.688 256.901 176.082C257.384 175.599 258.76 176.253 259.508 176.297C260.582 176.36 261.671 176.202 262.677 175.821Z" fill="white"/>
<path d="M257.499 189.026C256.725 189.026 255.938 188.844 255.223 188.474C253.871 187.773 252.819 186.444 252.349 184.864C251.193 184.819 250.116 184.2 249.576 183.235C248.907 182.04 249.197 180.471 250.237 179.665C250.782 179.243 251.511 179.076 252.236 179.205C252.701 179.288 253.12 179.491 253.445 179.784C253.952 179.308 254.849 178.401 254.976 178.248C255.199 177.97 255.391 177.584 255.594 177.175C255.857 176.644 256.13 176.095 256.521 175.704C257.06 175.166 257.955 175.396 258.745 175.599C259.038 175.675 259.341 175.753 259.537 175.764C260.544 175.821 261.565 175.67 262.486 175.322C262.655 175.258 262.845 175.284 262.991 175.391C263.137 175.498 263.218 175.672 263.208 175.853C263.071 178.159 262.852 180.491 262.556 182.784C262.291 184.834 261.831 186.898 260.265 188.116C259.49 188.718 258.506 189.026 257.499 189.026ZM252.759 183.786C253.006 183.786 253.224 183.957 253.279 184.203C253.608 185.664 254.518 186.906 255.714 187.526C256.975 188.179 258.577 188.075 259.61 187.273C260.933 186.244 261.278 184.346 261.497 182.648C261.756 180.636 261.956 178.595 262.093 176.568C261.248 176.791 260.357 176.883 259.474 176.83C259.176 176.813 258.838 176.726 258.48 176.634C258.14 176.546 257.432 176.364 257.271 176.464C257.009 176.727 256.776 177.196 256.551 177.65C256.331 178.092 256.105 178.548 255.808 178.918C255.791 178.94 253.907 181.115 253.35 181.058C253.178 181.048 253.015 180.951 252.924 180.805C252.749 180.524 252.43 180.325 252.048 180.256C251.626 180.18 251.193 180.275 250.891 180.509C250.28 180.983 250.105 181.993 250.508 182.714C250.91 183.43 251.815 183.873 252.708 183.789C252.725 183.787 252.742 183.786 252.759 183.786Z" fill="black"/>
<path d="M252.76 183.227C252.555 183.227 252.359 183.108 252.271 182.907C252.036 182.372 251.418 182.02 250.835 182.085C250.542 182.119 250.277 181.908 250.244 181.615C250.21 181.322 250.421 181.057 250.714 181.024C251.76 180.905 252.827 181.516 253.249 182.478C253.368 182.748 253.245 183.063 252.975 183.181C252.904 183.212 252.832 183.227 252.76 183.227Z" fill="black"/>
<path d="M83.7645 0.605469H0.53418V393.721H83.7645V0.605469Z" fill="#5479F7"/>
<path d="M83.7643 394.256H0.533991C0.239219 394.256 0 394.017 0 393.722V0.605273C0 0.310501 0.238976 0.0712891 0.533991 0.0712891C0.829006 0.0712891 1.06798 0.310258 1.06798 0.605273V393.188H83.2306V0.605273C83.2306 0.310501 83.4696 0.0712891 83.7646 0.0712891C84.0596 0.0712891 84.2986 0.310258 84.2986 0.605273V393.722C84.2983 394.017 84.0593 394.256 83.7643 394.256Z" fill="black"/>
<path d="M25.0867 368.06C24.7919 368.06 24.5527 367.821 24.5527 367.526V21.6492C24.5527 21.3544 24.7917 21.1152 25.0867 21.1152C25.3817 21.1152 25.6207 21.3544 25.6207 21.6492V367.526C25.6207 367.821 25.3815 368.06 25.0867 368.06Z" fill="black"/>
<path d="M621.459 89.8128H438.846C434.49 89.8128 430.959 86.2816 430.959 81.9256V50.7086C430.959 46.3525 434.49 42.8213 438.846 42.8213H597.668H621.459C625.815 42.8213 629.346 46.3525 629.346 50.7086V81.9256C629.346 86.2814 625.815 89.8128 621.459 89.8128Z" fill="#5479F7"/>
<path d="M621.458 90.3466H438.845C434.202 90.3466 430.424 86.5689 430.424 81.9254V50.7084C430.424 46.0651 434.202 42.2871 438.845 42.2871H621.458C626.101 42.2871 629.879 46.0648 629.879 50.7084V81.9254C629.879 86.5687 626.101 90.3466 621.458 90.3466ZM438.845 43.3551C434.79 43.3551 431.492 46.6536 431.492 50.7084V81.9254C431.492 85.9801 434.79 89.2787 438.845 89.2787H621.458C625.513 89.2787 628.811 85.9801 628.811 81.9254V50.7084C628.811 46.6536 625.513 43.3551 621.458 43.3551H438.845Z" fill="white"/>
<path d="M597.667 43.3553C597.372 43.3553 597.133 43.1163 597.133 42.8213V0.533984C597.133 0.239212 597.372 0 597.667 0C597.962 0 598.201 0.238969 598.201 0.533984V42.8215C598.201 43.1163 597.962 43.3553 597.667 43.3553Z" fill="white"/>
<path d="M464.18 43.3553C463.886 43.3553 463.646 43.1163 463.646 42.8213V0.533984C463.646 0.239212 463.886 0 464.18 0C464.475 0 464.714 0.238969 464.714 0.533984V42.8215C464.714 43.1163 464.475 43.3553 464.18 43.3553Z" fill="white"/>
<path d="M618.95 66.3174L603.549 50.2549V56.5339H581.109V76.1012H603.549V82.3797L618.95 66.3174Z" fill="#5479F7"/>
<path d="M603.548 82.9135C603.481 82.9135 603.413 82.9009 603.349 82.8749C603.147 82.7936 603.014 82.5976 603.014 82.3795V76.6349H581.108C580.813 76.6349 580.574 76.396 580.574 76.101V56.5337C580.574 56.2386 580.813 55.9997 581.108 55.9997H603.014V50.2547C603.014 50.0368 603.147 49.8405 603.349 49.7592C603.551 49.678 603.782 49.7277 603.933 49.8852L619.334 65.9479C619.532 66.1544 619.532 66.4802 619.334 66.6867L603.933 82.749C603.83 82.856 603.69 82.9135 603.548 82.9135ZM581.642 75.567H603.548C603.843 75.567 604.082 75.8062 604.082 76.101V81.0512L618.209 66.3172L604.082 51.5827V56.5334C604.082 56.8282 603.843 57.0674 603.548 57.0674H581.642V75.567Z" fill="white"/>
<path d="M442.285 66.3169L457.686 82.3797V76.1007H480.125V56.5334H457.686V50.2549L442.285 66.3169Z" fill="#5479F7"/>
<path d="M457.684 82.9136C457.541 82.9136 457.402 82.8563 457.299 82.7491L441.899 66.6863C441.7 66.4799 441.7 66.154 441.899 65.9476L457.299 49.8853C457.45 49.7278 457.681 49.6778 457.883 49.7594C458.086 49.8406 458.218 50.0367 458.218 50.2548V55.9993H480.124C480.419 55.9993 480.658 56.2383 480.658 56.5333V76.1006C480.658 76.3954 480.419 76.6346 480.124 76.6346H458.218V82.3798C458.218 82.5977 458.086 82.7937 457.883 82.8753C457.819 82.901 457.751 82.9136 457.684 82.9136ZM443.023 66.3168L457.15 81.0513V76.1006C457.15 75.8058 457.389 75.5666 457.684 75.5666H479.59V57.067H457.684C457.389 57.067 457.15 56.8281 457.15 56.533V51.5828L443.023 66.3168Z" fill="white"/>
<path d="M525.693 53.0504H498.735C498.44 53.0504 498.201 52.8114 498.201 52.5164C498.201 52.2214 498.44 51.9824 498.735 51.9824H525.693C525.988 51.9824 526.227 52.2216 526.227 52.5164C526.227 52.8112 525.988 53.0504 525.693 53.0504Z" fill="white"/>
<path d="M525.693 62.2506H493.395C493.1 62.2506 492.861 62.0116 492.861 61.7166C492.861 61.4216 493.1 61.1826 493.395 61.1826H525.693C525.987 61.1826 526.227 61.4218 526.227 61.7166C526.227 62.0114 525.988 62.2506 525.693 62.2506Z" fill="white"/>
<path d="M525.691 71.4508H504.073C503.778 71.4508 503.539 71.2118 503.539 70.9168C503.539 70.6218 503.778 70.3828 504.073 70.3828H525.691C525.986 70.3828 526.225 70.6218 526.225 70.9168C526.225 71.2118 525.986 71.4508 525.691 71.4508Z" fill="white"/>
<path d="M525.693 80.6515H493.395C493.1 80.6515 492.861 80.4125 492.861 80.1175C492.861 79.8227 493.1 79.5835 493.395 79.5835H525.693C525.987 79.5835 526.227 79.8225 526.227 80.1175C526.227 80.4125 525.988 80.6515 525.693 80.6515Z" fill="white"/>
<path d="M562.002 53.0504H535.044C534.749 53.0504 534.51 52.8114 534.51 52.5164C534.51 52.2214 534.749 51.9824 535.044 51.9824H562.002C562.296 51.9824 562.536 52.2216 562.536 52.5164C562.536 52.8112 562.297 53.0504 562.002 53.0504Z" fill="white"/>
<path d="M567.341 62.2506H535.044C534.749 62.2506 534.51 62.0116 534.51 61.7166C534.51 61.4216 534.749 61.1826 535.044 61.1826H567.341C567.636 61.1826 567.875 61.4218 567.875 61.7166C567.875 62.0114 567.636 62.2506 567.341 62.2506Z" fill="white"/>
<path d="M562.002 71.4508H535.044C534.749 71.4508 534.51 71.2118 534.51 70.9168C534.51 70.6218 534.749 70.3828 535.044 70.3828H562.002C562.296 70.3828 562.536 70.6218 562.536 70.9168C562.536 71.2118 562.297 71.4508 562.002 71.4508Z" fill="white"/>
<path d="M372.582 253.08L358.741 423.157C358.587 425.461 357.679 427.651 356.158 429.391L347.663 439.104C346.193 440.785 347.388 443.413 349.623 443.413H405.585C409.905 443.413 413.37 439.845 413.238 435.532L415.833 318.294L457.764 438.05C458.764 441.241 461.724 443.413 465.071 443.413H509.392C513.004 443.413 515.144 439.378 513.117 436.393L506.251 426.284L434.979 249.426L372.582 253.08Z" fill="#5479F7"/>
<path d="M509.392 443.947H465.071C461.471 443.947 458.33 441.641 457.254 438.21L416.301 321.248L413.771 435.543C413.84 437.745 413.021 439.856 411.467 441.459C409.91 443.063 407.821 443.947 405.584 443.947H349.622C348.376 443.947 347.281 443.242 346.766 442.108C346.252 440.975 346.441 439.689 347.26 438.752L355.755 429.039C357.191 427.398 358.062 425.296 358.207 423.121L372.049 253.037C372.071 252.771 372.284 252.562 372.55 252.547L434.947 248.893C435.178 248.875 435.388 249.014 435.474 249.226L506.724 426.031L513.558 436.093C514.622 437.66 514.729 439.595 513.842 441.269C512.954 442.946 511.291 443.947 509.392 443.947ZM415.833 317.76C416.057 317.76 416.261 317.901 416.336 318.117L458.268 437.873C459.208 440.874 461.94 442.879 465.071 442.879H509.392C510.888 442.879 512.199 442.09 512.899 440.769C513.597 439.451 513.513 437.927 512.675 436.693L505.809 426.584C505.788 426.552 505.77 426.519 505.756 426.483L434.628 249.981L373.077 253.585L359.272 423.2C359.112 425.599 358.148 427.925 356.56 429.742L348.065 439.455C347.525 440.072 347.4 440.919 347.739 441.666C348.078 442.414 348.8 442.879 349.623 442.879H405.584C407.53 442.879 409.347 442.11 410.7 440.715C412.051 439.321 412.763 437.486 412.704 435.548L415.299 318.282C415.304 318.024 415.494 317.807 415.749 317.766C415.777 317.762 415.805 317.76 415.833 317.76Z" fill="black"/>
<path d="M415.86 319.374C415.639 319.374 415.432 319.236 415.356 319.015L407.309 295.765C407.212 295.486 407.36 295.182 407.639 295.086C407.918 294.989 408.221 295.137 408.318 295.416L416.365 318.666C416.461 318.944 416.313 319.248 416.035 319.345C415.977 319.365 415.918 319.374 415.86 319.374Z" fill="black"/>
<path d="M411.375 432.241C411.369 432.241 411.363 432.241 411.355 432.24C395.023 431.653 378.482 430.684 362.192 429.358C361.898 429.334 361.679 429.076 361.703 428.782C361.727 428.488 361.989 428.269 362.278 428.293C378.552 429.618 395.077 430.587 411.394 431.173C411.689 431.184 411.919 431.431 411.908 431.726C411.898 432.014 411.661 432.241 411.375 432.241Z" fill="black"/>
<path d="M458.057 431.402C457.766 431.402 457.528 431.168 457.523 430.876C457.519 430.58 457.755 430.338 458.05 430.334C473.373 430.116 488.819 428.794 503.957 426.404C504.25 426.358 504.522 426.557 504.568 426.848C504.614 427.14 504.415 427.413 504.123 427.459C488.935 429.856 473.439 431.183 458.065 431.402C458.062 431.402 458.06 431.402 458.057 431.402Z" fill="black"/>
<path d="M494.201 292.342H420.07V344.245H494.201V292.342Z" fill="black"/>
<path d="M464.26 326.13H450.01C449.567 326.13 449.209 325.771 449.209 325.329V312.937C449.209 312.495 449.568 312.136 450.01 312.136H464.26C464.703 312.136 465.061 312.495 465.061 312.937V325.329C465.061 325.771 464.703 326.13 464.26 326.13ZM450.811 324.528H463.459V313.738H450.811V324.528Z" fill="white"/>
<path d="M450.008 320.763C449.848 320.763 449.688 320.716 449.547 320.617L423.293 302.129C422.931 301.875 422.845 301.375 423.099 301.013C423.354 300.652 423.853 300.565 424.215 300.82L450.47 319.308C450.831 319.562 450.918 320.062 450.664 320.424C450.508 320.645 450.26 320.763 450.008 320.763Z" fill="white"/>
<path d="M464.259 320.764C464.007 320.764 463.759 320.645 463.603 320.424C463.348 320.062 463.435 319.562 463.797 319.308L490.051 300.82C490.413 300.565 490.912 300.652 491.167 301.014C491.422 301.375 491.335 301.875 490.974 302.13L464.72 320.617C464.579 320.716 464.418 320.764 464.259 320.764Z" fill="white"/>
<path d="M475.426 288.914C475.132 288.914 474.892 288.675 474.892 288.38V283.29C474.892 280.644 472.74 278.492 470.095 278.492H444.174C441.529 278.492 439.377 280.644 439.377 283.29V288.38C439.377 288.675 439.138 288.914 438.843 288.914C438.548 288.914 438.309 288.675 438.309 288.38V283.29C438.309 280.055 440.94 277.424 444.174 277.424H470.095C473.329 277.424 475.96 280.055 475.96 283.29V288.38C475.96 288.675 475.721 288.914 475.426 288.914Z" fill="black"/>
<path d="M479.288 290.767H471.567C471.272 290.767 471.033 290.528 471.033 290.233C471.033 289.938 471.272 289.699 471.567 289.699H479.288C479.583 289.699 479.822 289.938 479.822 290.233C479.822 290.528 479.583 290.767 479.288 290.767Z" fill="black"/>
<path d="M442.704 290.767H434.983C434.688 290.767 434.449 290.528 434.449 290.233C434.449 289.938 434.688 289.699 434.983 289.699H442.704C442.999 289.699 443.238 289.938 443.238 290.233C443.238 290.528 442.999 290.767 442.704 290.767Z" fill="black"/>
<path d="M470.328 278.147L470.098 277.958C470.098 277.958 467.976 271.885 464.453 257.294L437.928 256.692L443.647 280.765C444.663 284.441 448.677 286.524 452.19 285.039C452.715 284.818 453.187 284.533 453.569 284.17C453.569 284.17 457.22 287.381 461.567 285.073C462.463 285.275 466.934 286.209 469.655 284.055C469.97 283.806 470.557 283.33 470.916 282.497C471.755 280.549 470.541 278.496 470.328 278.147Z" fill="white"/>
<path d="M458.344 286.434C456.095 286.434 454.322 285.376 453.585 284.854C453.244 285.115 452.846 285.341 452.397 285.531C450.629 286.278 448.609 286.22 446.853 285.37C445.028 284.487 443.671 282.861 443.131 280.908L437.407 256.816C437.369 256.655 437.407 256.485 437.511 256.357C437.615 256.228 437.772 256.144 437.938 256.159L464.464 256.761C464.706 256.766 464.914 256.934 464.971 257.169C468.159 270.372 470.219 276.651 470.553 277.642L470.665 277.734C470.712 277.772 470.751 277.818 470.782 277.869C471.155 278.478 472.301 280.628 471.405 282.709C470.985 283.682 470.285 284.237 469.985 284.474C467.382 286.534 463.416 286.012 461.639 285.635C460.478 286.217 459.362 286.434 458.344 286.434ZM453.567 283.636C453.693 283.636 453.819 283.68 453.92 283.769C454.058 283.889 457.356 286.702 461.315 284.601C461.428 284.541 461.557 284.524 461.683 284.552C462.867 284.818 466.916 285.541 469.323 283.636C469.579 283.434 470.112 283.012 470.424 282.286C471.086 280.75 470.259 279.083 469.917 278.501L469.758 278.371C469.682 278.309 469.625 278.227 469.593 278.134C469.572 278.074 467.462 271.983 464.03 257.819L438.606 257.242L444.165 280.642C444.619 282.28 445.77 283.66 447.319 284.409C448.819 285.135 450.475 285.184 451.981 284.547C452.476 284.338 452.886 284.081 453.2 283.783C453.303 283.685 453.435 283.636 453.567 283.636Z" fill="black"/>
<path d="M453.317 284.499C453.152 284.499 452.989 284.422 452.884 284.279C451.197 281.957 449.949 279.378 449.176 276.614C449.097 276.33 449.263 276.035 449.546 275.956C449.833 275.876 450.125 276.043 450.204 276.326C450.943 278.968 452.136 281.432 453.748 283.651C453.922 283.889 453.869 284.224 453.63 284.397C453.536 284.466 453.425 284.499 453.317 284.499Z" fill="black"/>
<path d="M461.214 285.349C461.076 285.349 460.937 285.295 460.833 285.189C458.546 282.853 457.045 279.782 456.607 276.542C456.567 276.25 456.772 275.981 457.064 275.941C457.353 275.905 457.625 276.107 457.665 276.399C458.073 279.413 459.469 282.269 461.596 284.442C461.802 284.652 461.798 284.99 461.588 285.196C461.484 285.298 461.349 285.349 461.214 285.349Z" fill="black"/>
<path d="M468.631 282.418C468.51 282.418 468.389 282.377 468.289 282.294C465.981 280.366 464.517 277.542 464.273 274.545C464.249 274.251 464.468 273.994 464.762 273.97C465.058 273.941 465.314 274.165 465.338 274.459C465.559 277.172 466.884 279.729 468.974 281.474C469.2 281.663 469.23 281.999 469.041 282.226C468.936 282.352 468.784 282.418 468.631 282.418Z" fill="black"/>
<path d="M467.143 277.958C467.412 277.883 470.096 277.958 470.096 277.958H467.143Z" fill="white"/>
<path d="M467.115 278.499C466.885 278.499 466.679 278.343 466.613 278.106C466.533 277.823 466.712 277.524 466.996 277.445C467.227 277.38 468.275 277.374 470.11 277.425C470.404 277.433 470.637 277.679 470.628 277.974C470.62 278.269 470.373 278.511 470.079 278.492C468.866 278.458 467.479 278.444 467.257 278.479C467.21 278.492 467.162 278.499 467.115 278.499Z" fill="black"/>
<path d="M438.856 263.462H466.83C463.962 251.105 459.476 232.639 454.482 215.272C453.722 212.63 453.054 210.31 451.634 205.691C446.709 189.665 444.762 185.984 442.452 182.871C439.068 178.311 435.431 175.68 434.568 175.072C432.765 173.802 431.075 172.917 429.364 172.302C415.907 167.47 396.057 170.436 396.057 170.436C382.41 172.881 378.198 176.612 367.668 174.934C364.26 174.391 361.523 173.493 359.71 172.802C350.867 185.107 345.071 196.019 341.339 204.013C338.125 210.895 335.375 217.897 335.878 226.661C336.106 230.639 336.443 235.206 339.763 238.963C346.457 246.539 358.665 243.461 359.295 243.293C366.212 241.44 370.222 236.634 371.643 234.739C371.336 244.313 371.029 253.887 370.723 263.462L438.856 263.462Z" fill="white"/>
<path d="M438.855 263.996C438.624 263.996 438.41 263.845 438.342 263.611C437.151 259.517 434.537 249.847 432.008 240.494C429.479 231.138 426.863 221.463 425.674 217.375C425.591 217.092 425.754 216.795 426.037 216.713C426.321 216.629 426.617 216.794 426.699 217.077C427.891 221.174 430.508 230.854 433.039 240.216C435.566 249.563 438.18 259.229 439.367 263.313C439.45 263.596 439.287 263.893 439.004 263.975C438.954 263.989 438.904 263.996 438.855 263.996Z" fill="black"/>
<path d="M356.637 237.032C356.558 237.032 356.477 237.014 356.401 236.977C356.136 236.846 356.028 236.525 356.159 236.261L382.22 183.599L381.249 183.191C380.977 183.077 380.849 182.764 380.963 182.492C381.077 182.22 381.389 182.092 381.662 182.206L383.157 182.833C383.293 182.89 383.399 183.001 383.451 183.139C383.502 183.277 383.495 183.431 383.429 183.562L357.116 236.734C357.023 236.923 356.834 237.032 356.637 237.032Z" fill="black"/>
<path d="M389.935 160.205L390.89 166.249L387.701 169.654C388.622 174.619 390.584 225.662 390.584 225.662C390.584 225.662 405.278 177.922 408.252 171.239L404.859 165.906L403.164 154.727C403.164 154.727 400.262 149.87 389.935 160.205Z" fill="white"/>
<path d="M394.079 170.077C393.937 170.077 393.798 170.02 393.695 169.914L390.504 166.62C390.299 166.408 390.304 166.07 390.516 165.865C390.728 165.66 391.066 165.665 391.271 165.877L394.225 168.926L403.832 165.56C404.11 165.463 404.415 165.609 404.512 165.888C404.61 166.166 404.463 166.471 404.185 166.568L394.255 170.047C394.198 170.067 394.138 170.077 394.079 170.077Z" fill="black"/>
<path d="M397.976 179.852C397.799 179.852 397.628 179.764 397.527 179.607L394.126 174.331L391.361 179.567C391.274 179.732 391.107 179.84 390.922 179.851C390.732 179.865 390.557 179.777 390.451 179.624L388.34 176.602C388.172 176.36 388.231 176.027 388.472 175.858C388.715 175.69 389.047 175.749 389.216 175.99L390.825 178.295L393.608 173.025C393.696 172.857 393.867 172.749 394.057 172.741C394.253 172.737 394.426 172.826 394.529 172.985L398.183 178.654L405.073 175.803C405.345 175.69 405.657 175.82 405.77 176.092C405.883 176.365 405.753 176.677 405.481 176.79L398.18 179.812C398.113 179.839 398.044 179.852 397.976 179.852Z" fill="black"/>
<path d="M408.251 171.773C408.075 171.773 407.902 171.686 407.8 171.526L404.407 166.193C404.367 166.13 404.341 166.06 404.33 165.986L402.654 154.933C402.505 154.749 402.018 154.253 401.016 154.143C399.28 153.948 396.053 154.889 390.503 160.392L391.416 166.166C391.441 166.328 391.391 166.494 391.278 166.614L388.09 170.019C387.888 170.234 387.55 170.245 387.335 170.044C387.12 169.842 387.109 169.505 387.31 169.289L390.32 166.075L389.406 160.289C389.379 160.121 389.435 159.949 389.556 159.828C394.383 154.997 398.296 152.731 401.194 153.089C402.915 153.302 403.593 154.407 403.621 154.454C403.656 154.513 403.68 154.579 403.691 154.648L405.369 165.715L408.701 170.953C408.86 171.201 408.786 171.532 408.537 171.69C408.449 171.746 408.349 171.773 408.251 171.773Z" fill="black"/>
<path d="M361.613 174.206C362.485 172.655 366.004 168.793 366.967 167.501C366.967 167.501 362.328 160.735 365.814 158.268C365.814 158.268 364.139 154.315 369.855 151.887C369.855 151.887 375.374 147.817 377.096 149.009C378.944 150.29 378.261 152.056 375.054 153.513C375.054 153.513 375.882 157.078 378.985 158.811C379.945 159.347 381.136 159.237 382.006 158.569C383.007 157.801 384.307 156.744 384.727 156.127C385.443 155.077 382.569 151.532 385.118 149.723C387.668 147.914 392.569 154.913 391.905 156.889C391.242 158.864 381.456 182.699 381.456 182.699L361.613 174.206Z" fill="white"/>
<path d="M361.614 174.74C361.483 174.74 361.352 174.692 361.25 174.596C361.034 174.395 361.022 174.057 361.224 173.841C362.217 172.777 365.275 168.915 366.321 167.487C365.439 166.101 362.264 160.636 365.2 158.073C364.919 156.922 364.603 153.569 369.58 151.424C370.347 150.822 375.014 147.286 377.23 148.623C378.393 149.326 378.597 150.154 378.563 150.726C378.499 151.822 377.486 152.903 375.697 153.798C376.012 154.74 376.992 157.086 379.247 158.345C380.011 158.772 380.968 158.694 381.682 158.145C383.55 156.713 384.115 156.077 384.286 155.826C384.404 155.653 384.152 154.827 384.002 154.333C383.555 152.869 382.88 150.656 384.81 149.287C385.745 148.624 387.001 148.809 388.347 149.809C390.57 151.461 392.987 155.347 392.412 157.058C392.059 158.111 389.367 165.259 387.135 170.679C387.023 170.952 386.711 171.082 386.438 170.969C386.165 170.857 386.036 170.545 386.148 170.272C388.476 164.616 391.109 157.583 391.4 156.718C391.711 155.791 389.935 152.32 387.709 150.666C387.042 150.17 386.104 149.679 385.428 150.158C384.219 151.015 384.498 152.3 385.023 154.021C385.319 154.992 385.575 155.831 385.169 156.428C384.801 156.967 383.847 157.831 382.332 158.993C381.278 159.801 379.862 159.912 378.726 159.277C375.453 157.45 374.571 153.788 374.535 153.633C374.477 153.385 374.602 153.131 374.834 153.026C376.458 152.289 377.454 151.405 377.497 150.664C377.526 150.16 377.068 149.773 376.677 149.538C375.433 148.786 372.036 150.836 370.187 152.305C370.149 152.335 370.108 152.359 370.064 152.378C364.898 154.572 366.246 157.918 366.306 158.06C366.404 158.291 366.328 158.559 366.123 158.704C363.105 160.839 367.364 167.136 367.408 167.199C367.533 167.382 367.532 167.624 367.406 167.805C366.617 168.943 363.127 173.367 362.004 174.57C361.899 174.683 361.757 174.74 361.614 174.74Z" fill="black"/>
<path d="M379.267 171.282H369.501C368.022 171.282 366.999 169.805 367.521 168.423L376.897 143.613C377.371 142.357 378.574 141.526 379.918 141.526H389.684C391.164 141.526 392.187 143.004 391.664 144.386L382.288 169.196C381.814 170.451 380.611 171.282 379.267 171.282Z" fill="white"/>
<path d="M379.267 171.816H369.502C368.631 171.816 367.815 171.389 367.321 170.673C366.827 169.958 366.715 169.046 367.022 168.234L376.398 143.424C376.948 141.969 378.363 140.992 379.919 140.992H389.685C390.556 140.992 391.371 141.419 391.866 142.135C392.36 142.85 392.472 143.762 392.165 144.575L382.789 169.384C382.239 170.839 380.824 171.816 379.267 171.816ZM379.919 142.06C378.804 142.06 377.79 142.76 377.397 143.801L368.021 168.611C367.835 169.103 367.9 169.633 368.199 170.065C368.499 170.499 368.973 170.748 369.501 170.748H379.267C380.382 170.748 381.396 170.048 381.789 169.007L391.165 144.197C391.351 143.705 391.286 143.175 390.987 142.742C390.687 142.309 390.212 142.06 389.685 142.06H379.919Z" fill="black"/>
<path d="M387.491 143.659H381.329C381.034 143.659 380.795 143.42 380.795 143.125C380.795 142.831 381.034 142.591 381.329 142.591H387.491C387.786 142.591 388.025 142.83 388.025 143.125C388.025 143.42 387.786 143.659 387.491 143.659Z" fill="black"/>
<path d="M381.008 169.088H368.855L377.929 145.077H390.082L381.008 169.088Z" fill="#E2EAFF"/>
<path d="M369.858 151.886C370.934 151.671 372.059 151.809 372.848 152.015C373.637 152.222 374.385 152.796 374.552 153.594C374.677 154.196 374.451 154.832 374.063 155.307C373.675 155.783 373.14 156.117 372.588 156.386L369.727 157.082L369.858 151.886Z" fill="white"/>
<path d="M369.725 157.616C369.484 157.616 369.266 157.452 369.207 157.208C369.137 156.922 369.313 156.633 369.599 156.563L372.404 155.881C372.978 155.596 373.374 155.306 373.648 154.97C373.97 154.576 374.112 154.103 374.028 153.703C373.902 153.099 373.276 152.68 372.712 152.532C372.274 152.417 371.129 152.175 369.962 152.41C369.672 152.467 369.392 152.28 369.334 151.991C369.276 151.702 369.463 151.42 369.753 151.362C371.138 151.086 372.473 151.365 372.982 151.499C374.06 151.781 374.88 152.56 375.073 153.484C375.222 154.197 374.999 155.005 374.475 155.645C374.092 156.114 373.566 156.502 372.82 156.866C372.786 156.882 372.75 156.895 372.713 156.904L369.851 157.6C369.809 157.611 369.767 157.616 369.725 157.616Z" fill="black"/>
<path d="M366.164 158.021C367.718 157.153 369.453 156.609 371.226 156.437C372.022 156.359 372.906 156.383 373.513 156.907C374.376 157.651 374.238 159.106 373.529 159.995C372.82 160.885 371.718 161.348 370.663 161.776L368.452 162.63L366.164 158.021Z" fill="white"/>
<path d="M368.451 163.165C368.237 163.165 368.035 163.035 367.953 162.823C367.847 162.548 367.983 162.239 368.258 162.132L370.47 161.278C371.403 160.899 372.47 160.465 373.111 159.662C373.646 158.991 373.799 157.86 373.163 157.311C372.789 156.988 372.189 156.88 371.276 156.968C369.584 157.133 367.906 157.658 366.423 158.487C366.166 158.63 365.841 158.539 365.697 158.281C365.553 158.024 365.645 157.699 365.903 157.555C367.513 156.654 369.336 156.084 371.173 155.905C371.943 155.83 373.06 155.811 373.861 156.503C374.972 157.461 374.802 159.254 373.945 160.328C373.131 161.349 371.873 161.86 370.863 162.271L368.643 163.128C368.58 163.153 368.515 163.165 368.451 163.165Z" fill="black"/>
<path d="M411.616 133.656C410.536 130.224 407.85 128.881 404.975 129.285C404.347 126.78 402.221 124.591 399.347 124.429C397.631 124.333 396.071 124.528 395.014 125.719C394.486 124.869 393.727 124.226 392.756 123.829C390.344 122.843 387.169 123.141 385.468 125.284C384.707 126.242 384.304 127.455 384.443 128.664C383.625 128.54 382.773 128.636 381.966 128.781C381.064 128.943 380.172 129.248 379.436 129.805C378.129 130.795 377.434 132.419 377.35 134.03C377.25 135.969 378.03 137.867 379.066 139.468C379.996 140.904 381.171 142.182 382.533 143.219C383.321 143.818 384.158 144.339 385.037 144.772C384.381 145.917 384.084 147.274 384.286 148.599C384.514 150.095 385.314 151.506 386.514 152.434C387.755 153.393 389.381 153.798 390.932 153.6C392.161 153.443 393.673 152.832 394.35 151.723C394.819 152.829 395.511 153.848 396.422 154.629C397.717 155.741 399.32 156.227 401.018 156.035C404.256 155.668 407.877 153.847 409.203 150.714C409.809 149.283 409.717 147.468 408.528 146.481C410.217 145.829 411.509 144.235 411.716 142.416C411.846 141.277 411.503 140.068 410.831 139.108C411.858 137.581 412.061 135.072 411.616 133.656Z" fill="black"/>
<path d="M376.934 132.594C376.185 137.673 380.229 140.961 383.685 141.817C383.807 141.847 383.93 141.874 384.05 141.901C384.124 142.154 384.214 142.409 384.33 142.659C385.689 145.627 389.58 147.071 392.848 146.775C393.796 147.787 395.029 149.195 396.338 150.975C400.516 156.661 403.482 154.104 407.823 148.475C408.401 147.725 409.234 146.768 409.666 145.181C410.525 142.03 409.04 139.192 408.851 138.843C407.434 136.228 405.611 136.326 401.604 133.64C395.511 129.557 386.794 127.586 386.794 127.586C386.794 127.586 384.911 126.848 382.765 126.979C379.198 127.198 377.398 129.448 376.934 132.594Z" fill="black"/>
<path d="M398.768 156.029C398.768 156.029 395.82 162.822 388.098 161.568C380.375 160.313 380.18 150.512 380.869 140.097C381.641 141.081 383.369 141.839 384.733 142.417C390.287 144.774 395.282 141.685 396.017 141.289C394.694 142.911 394.692 145.114 395.806 146.605C396.421 147.428 397.307 148.022 399.358 148.057C399.358 148.057 400.61 144.795 403.523 146.688C406.436 148.582 405.353 156.572 398.768 156.029Z" fill="white"/>
<path d="M389.943 162.255C389.333 162.255 388.689 162.204 388.012 162.094C379.673 160.739 379.677 150.011 380.336 140.062C380.351 139.841 380.5 139.652 380.711 139.587C380.922 139.522 381.152 139.593 381.289 139.767C382.004 140.679 383.843 141.459 384.942 141.926C387.235 142.898 390.947 143.511 395.609 140.904L395.764 140.819C395.989 140.698 396.267 140.753 396.429 140.949C396.591 141.146 396.592 141.429 396.43 141.626C395.3 143.012 395.219 144.928 396.234 146.285C396.671 146.871 397.317 147.419 399.024 147.511C399.3 146.988 399.928 146.036 400.99 145.691C401.866 145.407 402.816 145.592 403.814 146.241C405.455 147.308 406.052 149.987 405.203 152.472C404.278 155.176 402.018 156.692 399.086 156.583C398.404 157.857 395.636 162.255 389.943 162.255ZM381.331 141.253C380.782 150.402 381.022 159.876 388.183 161.04C395.412 162.214 398.25 155.88 398.278 155.816C398.369 155.607 398.589 155.479 398.811 155.497C402.524 155.8 403.811 153.241 404.193 152.126C404.877 150.123 404.455 147.931 403.232 147.135C402.519 146.672 401.877 146.528 401.325 146.705C400.346 147.019 399.86 148.237 399.855 148.249C399.774 148.457 399.565 148.592 399.348 148.591C397.414 148.558 396.226 148.059 395.378 146.924C394.433 145.659 394.219 144.025 394.717 142.549C390.333 144.521 386.798 143.873 384.525 142.909C383.371 142.419 382.202 141.893 381.331 141.253Z" fill="black"/>
<path d="M399.22 153.493C399.162 153.493 399.104 153.484 399.046 153.464C398.767 153.368 398.619 153.065 398.715 152.786C398.893 152.265 399.095 151.675 399.462 151.165C399.914 150.538 400.549 150.152 401.204 150.107C401.5 150.087 401.753 150.309 401.774 150.603C401.794 150.897 401.572 151.152 401.278 151.172C400.945 151.195 400.591 151.425 400.329 151.789C400.054 152.171 399.887 152.659 399.725 153.132C399.649 153.354 399.442 153.493 399.22 153.493Z" fill="black"/>
<path d="M397.354 145.202C397.354 145.202 396.096 150.652 393.372 152.935C390.649 155.218 386.664 150.278 380.458 150.239C380.458 150.239 380.287 159.841 381.67 161.953C383.416 164.62 397.271 165.533 398.894 156.261C398.894 156.261 397.42 151.799 399.484 148.288L397.354 145.202Z" fill="black"/>
<path d="M339.604 360.745H187.28C186.985 360.745 186.746 360.506 186.746 360.211C186.746 359.916 186.985 359.677 187.28 359.677H339.604C339.899 359.677 340.138 359.916 340.138 360.211C340.138 360.506 339.899 360.745 339.604 360.745Z" fill="black"/>
<path d="M465.057 443.978H137.881C137.586 443.978 137.347 443.739 137.347 443.444C137.347 443.149 137.586 442.91 137.881 442.91H465.057C465.352 442.91 465.591 443.149 465.591 443.444C465.591 443.739 465.352 443.978 465.057 443.978Z" fill="black"/>
</svg>
