<svg width="256" height="256" viewBox="0 0 256 256" fill="none" xmlns="http://www.w3.org/2000/svg">
<circle cx="128" cy="128" r="128" fill="#0061E2"/>
<path d="M122.312 57.375H110.938C110.938 54.2469 113.497 51.6875 116.625 51.6875C119.753 51.6875 122.312 54.2469 122.312 57.375ZM93.875 51.6875C90.7469 51.6875 88.1875 54.2469 88.1875 57.375H99.5625C99.5625 54.2469 97.0031 51.6875 93.875 51.6875ZM71.125 51.6875C67.9969 51.6875 65.4375 54.2469 65.4375 57.375H76.8125C76.8125 54.2469 74.2531 51.6875 71.125 51.6875ZM139.375 51.6875C136.247 51.6875 133.688 54.2469 133.688 57.375H145.062C145.062 54.2469 142.503 51.6875 139.375 51.6875ZM162.125 51.6875C158.997 51.6875 156.438 54.2469 156.438 57.375H167.812C167.812 54.2469 165.253 51.6875 162.125 51.6875ZM173.5 57.375H167.812V63.0625C167.812 66.1906 165.253 68.75 162.125 68.75C158.997 68.75 156.438 66.1906 156.438 63.0625V57.375H145.062V63.0625C145.062 66.1906 142.503 68.75 139.375 68.75C136.247 68.75 133.688 66.1906 133.688 63.0625V57.375H122.312V63.0625C122.312 66.1906 119.753 68.75 116.625 68.75C113.497 68.75 110.938 66.1906 110.938 63.0625V57.375H99.5625V63.0625C99.5625 66.1906 97.0031 68.75 93.875 68.75C90.7469 68.75 88.1875 66.1906 88.1875 63.0625V57.375H76.8125V63.0625C76.8125 66.1906 74.2531 68.75 71.125 68.75C67.9969 68.75 65.4375 66.1906 65.4375 63.0625V57.375H59.75C50.3656 57.375 42.6875 65.0531 42.6875 74.4375V85.8125H190.562V74.4375C190.562 65.0531 182.884 57.375 173.5 57.375ZM190.562 97.1875V144.109C186.923 143.199 183.112 142.688 179.188 142.688C154.049 142.688 133.688 163.049 133.688 188.188C133.688 192.112 134.199 195.923 135.109 199.562H59.75C50.3656 199.562 42.6875 191.884 42.6875 182.5V97.1875H190.562ZM93.875 125.625C93.875 128.753 96.4344 131.312 99.5625 131.312H105.25C108.378 131.312 110.938 128.753 110.938 125.625C110.938 122.497 108.378 119.938 105.25 119.938H99.5625C96.4344 119.938 93.875 122.497 93.875 125.625ZM93.875 148.375C93.875 151.503 96.4344 154.062 99.5625 154.062H105.25C108.378 154.062 110.938 151.503 110.938 148.375C110.938 145.247 108.378 142.688 105.25 142.688H99.5625C96.4344 142.688 93.875 145.247 93.875 148.375ZM82.5 171.125C82.5 167.997 79.9406 165.438 76.8125 165.438H71.125C67.9969 165.438 65.4375 167.997 65.4375 171.125C65.4375 174.253 67.9969 176.812 71.125 176.812H76.8125C79.9406 176.812 82.5 174.253 82.5 171.125ZM82.5 148.375C82.5 145.247 79.9406 142.688 76.8125 142.688H71.125C67.9969 142.688 65.4375 145.247 65.4375 148.375C65.4375 151.503 67.9969 154.062 71.125 154.062H76.8125C79.9406 154.062 82.5 151.503 82.5 148.375ZM113.781 171.125C113.781 164.869 108.663 159.75 102.406 159.75C96.15 159.75 91.0312 164.869 91.0312 171.125C91.0312 177.381 96.15 182.5 102.406 182.5C108.663 182.5 113.781 177.381 113.781 171.125ZM139.375 148.375C139.375 145.247 136.816 142.688 133.688 142.688H128C124.872 142.688 122.312 145.247 122.312 148.375C122.312 151.503 124.872 154.062 128 154.062H133.688C136.816 154.062 139.375 151.503 139.375 148.375ZM139.375 125.625C139.375 122.497 136.816 119.938 133.688 119.938H128C124.872 119.938 122.312 122.497 122.312 125.625C122.312 128.753 124.872 131.312 128 131.312H133.688C136.816 131.312 139.375 128.753 139.375 125.625ZM167.812 125.625C167.812 122.497 165.253 119.938 162.125 119.938H156.438C153.309 119.938 150.75 122.497 150.75 125.625C150.75 128.753 153.309 131.312 156.438 131.312H162.125C165.253 131.312 167.812 128.753 167.812 125.625ZM167.699 182.102C170.656 180.964 172.078 177.722 170.997 174.765C169.917 171.921 166.846 170.556 164.059 171.409C168.154 167.656 173.557 165.438 179.188 165.438C186.297 165.438 193.122 168.85 197.388 174.538C199.264 177.04 202.848 177.552 205.35 175.675C207.853 173.798 208.364 170.215 206.487 167.712C200.061 159.181 189.88 154.062 179.188 154.062C170.315 154.062 161.727 157.646 155.414 163.845C154.39 162.309 152.741 161.229 150.75 161.229C147.622 161.229 145.062 163.788 145.062 166.916V182.5C145.062 184.377 145.973 186.14 147.508 187.164C148.475 187.846 149.612 188.188 150.75 188.188C151.432 188.188 152.115 188.074 152.798 187.789L167.699 182.102ZM210.867 189.211C209.331 188.131 207.341 187.903 205.634 188.586L190.733 194.273C187.776 195.411 186.354 198.653 187.434 201.61C188.515 204.454 191.586 205.819 194.373 204.966C190.221 208.719 184.818 210.938 179.188 210.938C172.078 210.938 165.253 207.525 160.987 201.837C159.111 199.335 155.527 198.823 153.025 200.7C150.522 202.577 150.011 206.16 151.888 208.663C158.314 217.194 168.495 222.312 179.188 222.312C187.832 222.312 196.136 218.9 202.392 213.099C203.246 215.146 205.236 216.625 207.625 216.625C210.753 216.625 213.312 214.066 213.312 210.938V193.875C213.312 191.998 212.402 190.235 210.867 189.211Z" fill="white"/>
</svg>
