<svg width="24" height="24" viewBox="0 0 24 24" fill="none" xmlns="http://www.w3.org/2000/svg">
<g clip-path="url(#clip0_866_10441)">
<path d="M24 12C24 13.024 22.742 13.868 22.49 14.812C22.23 15.788 22.888 17.148 22.394 18.002C21.892 18.87 20.382 18.974 19.678 19.678C18.974 20.382 18.87 21.892 18.002 22.394C17.148 22.888 15.788 22.23 14.812 22.49C13.868 22.742 13.024 24 12 24C10.976 24 10.132 22.742 9.188 22.49C8.212 22.23 6.852 22.888 5.998 22.394C5.13 21.892 5.026 20.382 4.322 19.678C3.618 18.974 2.108 18.87 1.606 18.002C1.112 17.148 1.77 15.788 1.51 14.812C1.258 13.868 0 13.024 0 12C0 10.976 1.258 10.132 1.51 9.188C1.77 8.212 1.112 6.852 1.606 5.998C2.108 5.13 3.618 5.026 4.322 4.322C5.026 3.618 5.13 2.108 5.998 1.606C6.852 1.112 8.212 1.77 9.188 1.51C10.132 1.258 10.976 0 12 0C13.024 0 13.868 1.258 14.812 1.51C15.788 1.77 17.148 1.112 18.002 1.606C18.87 2.108 18.974 3.618 19.678 4.322C20.382 5.026 21.892 5.13 22.394 5.998C22.888 6.852 22.23 8.212 22.49 9.188C22.742 10.132 24 10.976 24 12Z" fill="#2568EF"/>
<path d="M15.4687 8.42407L10.9007 12.9921L8.53266 10.6261C8.01866 10.1121 7.18466 10.1121 6.67066 10.6261C6.15666 11.1401 6.15666 11.9741 6.67066 12.4881L9.99266 15.8101C10.4927 16.3101 11.3047 16.3101 11.8047 15.8101L17.3287 10.2861C17.8427 9.77207 17.8427 8.93807 17.3287 8.42407C16.8147 7.91007 15.9827 7.91007 15.4687 8.42407Z" fill="#FFFCEE"/>
</g>
<defs>
<clipPath id="clip0_866_10441">
<rect width="24" height="24" fill="white"/>
</clipPath>
</defs>
</svg>
