<svg width="40" height="40" viewBox="0 0 40 40" fill="none" xmlns="http://www.w3.org/2000/svg">
<g clip-path="url(#clip0_1243_4336)">
<path d="M20 40C8.956 40 0 31.044 0 20C0 8.956 8.956 0 20 0C31.044 0 40 8.956 40 20C40 31.044 31.044 40 20 40Z" fill="white"/>
<path d="M16.4369 35C14.2531 35 12.1936 34.3033 10.4809 32.985C10.1609 32.7389 9.85332 32.4699 9.56621 32.1863C7.56699 30.2105 6.56094 27.5791 6.73379 24.7766C6.86445 22.6584 7.71758 20.6164 9.1373 19.0268C11.0176 16.9215 13.6098 15.7619 16.4375 15.7619C16.9232 15.7619 17.4137 15.7982 17.8965 15.8697L18.6465 15.9811V22.6367L17.4916 22.2553C17.1553 22.1439 16.8055 22.0877 16.4516 22.0877C15.5574 22.0877 14.7201 22.4381 14.0937 23.0738C13.4703 23.7066 13.1346 24.5434 13.1475 25.4311C13.1645 26.5754 13.7674 27.6125 14.76 28.2066C15.217 28.4797 15.7373 28.6396 16.2658 28.6689C16.683 28.6918 17.0949 28.6373 17.491 28.5066C18.8451 28.0596 19.7551 26.8033 19.7551 25.3812L19.7609 18.4789V5H26.1219L26.1295 5.8707C26.133 6.26504 26.1734 6.65938 26.2496 7.04141C26.5484 8.54375 27.391 9.88262 28.6221 10.8107C29.7148 11.6352 31.0191 12.0705 32.3926 12.0705C32.4248 12.0705 32.4248 12.0705 32.7184 12.091L33.5357 12.1484V17.5391V18.418L33.2428 18.4174H32.6586C32.6539 18.4174 32.6492 18.4174 32.6439 18.4174H32.3633C32.3621 18.4174 32.3603 18.4174 32.3586 18.4174C30.6646 18.4174 29.0773 18.0945 27.5041 17.4307C27.0353 17.2326 26.5789 17.0064 26.1383 16.7539L26.1582 25.4146C26.1477 27.9764 25.1352 30.3793 23.3076 32.1857C21.8246 33.6512 19.9531 34.5875 17.8953 34.8922C17.4154 34.9637 16.925 35 16.4369 35ZM16.4369 17.5197C14.1172 17.5197 11.9902 18.4707 10.448 20.1975C9.29023 21.4941 8.59414 23.1588 8.4875 24.8844C8.34687 27.1725 9.16836 29.3217 10.8014 30.9354C11.0375 31.1686 11.29 31.3895 11.5525 31.5916C12.9553 32.6715 14.6445 33.2422 16.4369 33.2422C16.8389 33.2422 17.2426 33.2123 17.6381 33.1537C19.3238 32.9041 20.8572 32.1371 22.0725 30.9359C23.5654 29.4605 24.3922 27.4994 24.401 25.4135L24.3734 13.3203L25.7932 14.4154C26.5262 14.9809 27.3324 15.4508 28.1885 15.8123C29.3586 16.3062 30.5381 16.5805 31.7773 16.6455V13.8066C30.2457 13.6918 28.799 13.1475 27.5633 12.2152C25.9871 11.027 24.9084 9.31133 24.5252 7.38535C24.4842 7.17852 24.4508 6.96934 24.4262 6.7584H21.5182V18.4795L21.5123 25.3818C21.5123 27.5633 20.1178 29.4898 18.0418 30.1754C17.4365 30.3752 16.8066 30.4584 16.1691 30.4238C15.357 30.3793 14.5578 30.1338 13.857 29.7148C12.3377 28.8061 11.4148 27.2141 11.3891 25.4568C11.3691 24.0951 11.8842 22.8107 12.8404 21.8398C13.7996 20.866 15.0816 20.3299 16.4504 20.3299C16.5969 20.3299 16.7422 20.3363 16.8875 20.3486V17.532C16.7375 17.5238 16.5869 17.5197 16.4369 17.5197Z" fill="#033270"/>
</g>
<defs>
<clipPath id="clip0_1243_4336">
<rect width="40" height="40" fill="white"/>
</clipPath>
</defs>
</svg>
