<svg width="72" height="72" viewBox="0 0 72 72" fill="none" xmlns="http://www.w3.org/2000/svg">
<circle cx="36" cy="36" r="36" fill="#003479"/>
<path d="M58.3597 29.4232C58.3597 30.6112 58.1005 31.7632 57.6037 32.8072C57.4309 33.1816 57.2293 33.5416 56.9989 33.88H13.7197V13.72H34.5997C43.2325 13.72 51.3757 17.7016 56.6749 24.52C57.7693 25.9168 58.3597 27.6448 58.3597 29.4232Z" fill="white"/>
<path d="M57.7621 32.44C57.7189 32.5624 57.6613 32.6848 57.6037 32.8072C57.4309 33.1816 57.2293 33.5416 56.9989 33.88H13.7197V13.72H15.8797V27.4C15.8797 30.1864 18.1333 32.44 20.9197 32.44H57.7621Z" fill="white"/>
<path d="M13.7197 17.32H19.4797V25.96H13.7197V17.32Z" fill="#D5F1FE"/>
<path d="M19.4797 24.52V25.96H13.7197V17.32H15.8797V21.64C15.8797 23.2312 17.1685 24.52 18.7597 24.52H19.4797Z" fill="#B4E7FD"/>
<path d="M19.4805 17.32H29.5605V25.96H19.4805V17.32Z" fill="#D5F1FE"/>
<path d="M29.5605 24.52V25.96H19.4805V17.32H21.6405V21.64C21.6405 23.2312 22.9293 24.52 24.5205 24.52H29.5605Z" fill="#B4E7FD"/>
<path d="M37.7604 25.96H29.5596V17.32H34.8804C35.6076 17.32 36.2772 17.68 36.6804 18.2848L39.5604 22.6048C40.518 24.0376 39.4884 25.96 37.7604 25.96Z" fill="#D5F1FE"/>
<path d="M39.798 24.52C39.51 25.3264 38.754 25.96 37.7604 25.96H29.5596V17.32H31.7196V21.64C31.7196 23.2312 33.0084 24.52 34.5996 24.52H39.798Z" fill="#B4E7FD"/>
<path d="M56.9989 33.88C56.5813 34.5064 56.0773 35.068 55.4869 35.5576C54.5509 36.3352 53.3701 36.76 52.1533 36.76H13.7197V33.88H56.9989Z" fill="#865CB2"/>
<path d="M56.0845 34.996C55.9045 35.1976 55.7029 35.3776 55.4869 35.5576C54.5509 36.3352 53.3701 36.76 52.1533 36.76H13.7197V33.88H15.8797V33.8944C15.8797 34.6792 16.5205 35.32 17.3053 35.32H54.2053C54.8461 35.32 55.4869 35.212 56.0845 34.996Z" fill="#754CA0"/>
<path d="M26.5935 30.0856C26.4783 30.0856 26.3631 30.0568 26.2479 29.9992C25.1895 29.4232 23.8431 29.4232 22.7847 29.9992C22.4319 30.1864 21.9999 30.0568 21.8055 29.7112C21.6183 29.3584 21.7479 28.9264 22.0935 28.732C23.5695 27.9328 25.4487 27.9328 26.9247 28.732C27.2775 28.9192 27.4071 29.3584 27.2127 29.7112C27.0831 29.9488 26.8383 30.0856 26.5791 30.0856H26.5935Z" fill="#865CB2"/>
<path d="M27.9757 27.5656C27.8605 27.5656 27.7381 27.5368 27.6301 27.4792C25.7149 26.4208 23.3245 26.4208 21.4165 27.4792C21.0709 27.6736 20.6317 27.544 20.4373 27.1984C20.2429 26.8528 20.3725 26.4136 20.7181 26.2192C21.8917 25.5712 23.1661 25.24 24.5197 25.24C25.8733 25.24 27.1549 25.5712 28.3213 26.2192C28.6669 26.4136 28.7965 26.8528 28.6021 27.1984C28.4725 27.436 28.2277 27.5728 27.9685 27.5728L27.9757 27.5656Z" fill="#865CB2"/>
<path d="M29.3581 25.0384C29.2429 25.0384 29.1205 25.0096 29.0125 24.952C26.2765 23.4472 22.7629 23.4472 20.0269 24.952C19.6813 25.1464 19.2421 25.0168 19.0477 24.6712C18.8533 24.3256 18.9829 23.8864 19.3285 23.692C22.4893 21.9568 26.5429 21.9568 29.6965 23.692C30.0421 23.8864 30.1717 24.3184 29.9773 24.6712C29.8477 24.9088 29.6029 25.0456 29.3437 25.0456L29.3581 25.0384Z" fill="#865CB2"/>
<path d="M45.4004 36.76H49.7204V37.48C49.7204 38.6752 48.7556 39.64 47.5604 39.64C46.3652 39.64 45.4004 38.6752 45.4004 37.48V36.76Z" fill="#07A9F0"/>
<path d="M41.0801 36.76H45.4001V37.48C45.4001 38.6752 44.4353 39.64 43.2401 39.64C42.0449 39.64 41.0801 38.6752 41.0801 37.48V36.76Z" fill="#07A9F0"/>
<path d="M44.8529 38.9056C44.4641 39.3592 43.8881 39.64 43.2401 39.64C42.0449 39.64 41.0801 38.6752 41.0801 37.48V36.76H42.5201C42.5201 37.9552 43.4849 38.92 44.6801 38.92C44.7377 38.92 44.7953 38.92 44.8529 38.9056Z" fill="#0691CE"/>
<path d="M49.1732 38.9056C48.7844 39.3592 48.2084 39.64 47.5604 39.64C46.3652 39.64 45.4004 38.6752 45.4004 37.48V36.76H46.8404C46.8404 37.9552 47.8052 38.92 49.0004 38.92C49.058 38.92 49.1156 38.92 49.1732 38.9056Z" fill="#0691CE"/>
<path d="M57.6397 41.08H14.4397C14.0437 41.08 13.7197 40.756 13.7197 40.36C13.7197 39.964 14.0437 39.64 14.4397 39.64H57.6397C58.0357 39.64 58.3597 39.964 58.3597 40.36C58.3597 40.756 58.0357 41.08 57.6397 41.08Z" fill="#865CB2"/>
<path d="M32.4396 33.88V55.48H16.5996V33.88C16.5996 33.088 17.2476 32.44 18.0396 32.44H30.9996C31.7916 32.44 32.4396 33.088 32.4396 33.88Z" fill="#D5F1FE"/>
<path d="M20.9193 51.16C20.8113 51.16 20.7033 51.1384 20.5953 51.0808C20.2425 50.9008 20.0985 50.4688 20.2713 50.116L21.7113 47.236C21.8913 46.8832 22.3233 46.7392 22.6761 46.912C23.0289 47.092 23.1729 47.524 23.0001 47.8768L21.5601 50.7568C21.4305 51.0088 21.1785 51.1528 20.9121 51.1528L20.9193 51.16Z" fill="#07A9F0"/>
<path d="M28.1196 51.16C27.8532 51.16 27.6012 51.016 27.4716 50.764L26.0316 47.884C25.8516 47.5312 25.9956 47.0992 26.3556 46.9192C26.7084 46.7392 27.1404 46.8832 27.3204 47.2432L28.7604 50.1232C28.9404 50.476 28.7964 50.908 28.4364 51.088C28.3356 51.1384 28.2204 51.1672 28.1124 51.1672L28.1196 51.16Z" fill="#07A9F0"/>
<path d="M28.8405 51.16H20.2005C19.8045 51.16 19.4805 50.836 19.4805 50.44C19.4805 50.044 19.8045 49.72 20.2005 49.72H28.8405C29.2365 49.72 29.5605 50.044 29.5605 50.44C29.5605 50.836 29.2365 51.16 28.8405 51.16Z" fill="#07A9F0"/>
<path d="M24.5202 37.48V41.8H20.2002V39.64C20.2002 38.4448 21.165 37.48 22.3602 37.48H24.5202Z" fill="white"/>
<path d="M24.5202 40.36V41.8H20.2002V39.64C20.2002 38.6608 20.841 37.84 21.7338 37.5736C21.6762 37.768 21.6402 37.984 21.6402 38.2V38.92C21.6402 39.712 22.2882 40.36 23.0802 40.36H24.5202Z" fill="white"/>
<path d="M28.8405 39.64V41.8H24.5205V37.48H26.6805C27.8757 37.48 28.8405 38.4448 28.8405 39.64Z" fill="white"/>
<path d="M28.8405 40.36V41.8H24.5205V37.48H25.9605V38.92C25.9605 39.712 26.6085 40.36 27.4005 40.36H28.8405Z" fill="white"/>
<path d="M28.8402 41.8V46.12C28.8402 46.912 28.1922 47.56 27.4002 47.56H21.6402C20.8482 47.56 20.2002 46.912 20.2002 46.12V41.8H28.8402Z" fill="#865CB2"/>
<path d="M28.8402 46.12C28.8402 46.912 28.1922 47.56 27.4002 47.56H21.6402C20.8482 47.56 20.2002 46.912 20.2002 46.12V41.8H21.6402V44.68C21.6402 45.472 22.2882 46.12 23.0802 46.12H28.8402Z" fill="#754CA0"/>
<path d="M27.4 45.4H26.68C26.284 45.4 25.96 45.076 25.96 44.68C25.96 44.284 26.284 43.96 26.68 43.96H27.4C27.796 43.96 28.12 44.284 28.12 44.68C28.12 45.076 27.796 45.4 27.4 45.4Z" fill="#D5F1FE"/>
<path d="M32.4396 55.48V56.92C32.4396 57.712 31.7916 58.36 30.9996 58.36H18.0396C17.2476 58.36 16.5996 57.712 16.5996 56.92V55.48H32.4396Z" fill="#07A9F0"/>
<path d="M32.4396 56.92C32.4396 57.712 31.7916 58.36 30.9996 58.36H18.0396C17.2476 58.36 16.5996 57.712 16.5996 56.92V55.48H18.7596C18.7596 56.272 19.4076 56.92 20.1996 56.92H32.4396Z" fill="#0691CE"/>
<path d="M32.4396 54.04V55.48H16.5996V33.88C16.5996 33.088 17.2476 32.44 18.0396 32.44H18.7596V48.28C18.7596 51.4624 21.3372 54.04 24.5196 54.04H32.4396Z" fill="#B4E7FD"/>
<path d="M22.3599 45.4H21.6399C21.2439 45.4 20.9199 45.076 20.9199 44.68C20.9199 44.284 21.2439 43.96 21.6399 43.96H22.3599C22.7559 43.96 23.0799 44.284 23.0799 44.68C23.0799 45.076 22.7559 45.4 22.3599 45.4Z" fill="#D5F1FE"/>
<path d="M57.5616 25.96H50.4408C48.6264 25.96 46.92 25.1032 45.8328 23.656L42.8088 19.624C42.096 18.6736 42.7728 17.32 43.9608 17.32H48.324C51.5136 19.12 54.3648 21.5464 56.676 24.52C57.0288 24.9664 57.324 25.4488 57.5616 25.96Z" fill="#D5F1FE"/>
<path d="M57.5616 25.96H50.4408C48.6264 25.96 46.92 25.1032 45.8328 23.656L42.8088 19.624C42.096 18.6736 42.7728 17.32 43.9608 17.32H44.6808C44.6736 17.6152 44.7672 17.9176 44.9688 18.184L47.9928 22.216C49.08 23.6632 50.7864 24.52 52.6008 24.52H56.676C57.0288 24.9664 57.324 25.4488 57.5616 25.96Z" fill="#B4E7FD"/>
</svg>
