<svg width="257" height="257" viewBox="0 0 257 257" fill="none" xmlns="http://www.w3.org/2000/svg">
<path d="M127.968 255.936C198.643 255.936 255.936 198.643 255.936 127.968C255.936 57.2932 198.643 0 127.968 0C57.2932 0 0 57.2932 0 127.968C0 198.643 57.2932 255.936 127.968 255.936Z" fill="#0061E2"/>
<path fill-rule="evenodd" clip-rule="evenodd" d="M159.36 209.856H138.912V194.688H161.952V207.168C161.952 208.608 160.8 209.856 159.36 209.856ZM168.48 128.928C161.472 128.928 154.56 127.296 148.32 123.84L159.84 112.416C162.624 113.376 165.504 113.856 168.48 113.856C171.36 113.856 174.336 113.376 177.12 112.416L188.544 123.84C182.304 127.296 175.392 128.928 168.48 128.928ZM132.192 107.616C125.28 95.232 125.28 79.872 132.192 67.488L143.616 78.912C141.696 84.48 141.696 90.624 143.616 96.192L132.192 107.616ZM148.32 51.264C160.8 44.448 176.16 44.448 188.544 51.264L177.12 62.688C171.552 60.768 165.408 60.768 159.84 62.688L148.32 51.264ZM204.768 67.488C211.584 79.872 211.584 95.232 204.768 107.616L193.344 96.192C195.264 90.624 195.264 84.48 193.344 78.912L204.768 67.488ZM196.032 126.048C195.264 126.048 194.592 125.76 194.016 125.184L175.104 106.272C174.528 105.696 174.24 105.024 174.24 104.256C174.24 103.488 174.528 102.72 175.104 102.144L183.072 94.176C184.224 93.024 186.048 93.024 187.2 94.176L206.112 113.088C206.688 113.568 206.976 114.336 206.976 115.104C206.976 115.872 206.688 116.64 206.112 117.12L198.048 125.184C197.472 125.76 196.8 126.048 196.032 126.048ZM140.928 126.048C140.16 126.048 139.392 125.76 138.816 125.184L130.848 117.12C130.272 116.64 129.984 115.872 129.984 115.104C129.984 114.336 130.272 113.568 130.848 113.088L149.76 94.176C150.912 93.024 152.736 93.024 153.792 94.176L161.856 102.144C162.432 102.72 162.72 103.488 162.72 104.256C162.72 105.024 162.432 105.696 161.856 106.272L142.944 125.184C142.368 125.76 141.6 126.048 140.928 126.048ZM151.776 81.792C151.008 81.792 150.336 81.504 149.76 80.928L130.848 62.016C129.696 60.864 129.696 59.04 130.848 57.984L138.816 49.92C139.968 48.768 141.792 48.768 142.944 49.92L161.856 68.832C163.008 69.984 163.008 71.808 161.856 72.864L153.792 80.928C153.216 81.504 152.544 81.792 151.776 81.792ZM185.184 81.792C184.416 81.792 183.648 81.504 183.072 80.928L175.104 72.864C173.952 71.808 173.952 69.984 175.104 68.832L194.016 49.92C195.072 48.768 196.896 48.768 198.048 49.92L206.112 57.984C207.264 59.04 207.264 60.864 206.112 62.016L187.2 80.928C186.624 81.504 185.856 81.792 185.184 81.792ZM126.144 114.048H81.8881C81.0241 114.048 80.1601 113.952 79.3921 113.76V115.296C79.3921 116.16 80.0641 116.928 81.0241 116.928C82.4641 116.928 83.6161 118.176 83.6161 119.616V121.536C83.6161 127.776 86.5921 133.248 91.2001 136.8C91.3921 136.896 91.4881 136.992 91.6801 137.088C94.7521 139.392 98.5921 140.64 102.816 140.64H105.312C109.44 140.64 113.28 139.392 116.448 137.088C116.544 136.992 116.736 136.896 116.832 136.8C121.44 133.248 124.416 127.776 124.416 121.536V119.616C124.416 118.176 125.664 116.928 127.104 116.928H127.392C127.68 117.792 128.16 118.56 128.736 119.136L130.752 121.152C130.464 121.344 130.08 121.536 129.696 121.728C129.6 129.216 126.144 135.936 120.768 140.352V152.448H122.784C125.856 152.448 128.736 152.736 131.52 153.216L114.912 176.448L104.832 169.92H103.2L93.1201 176.448L76.5121 153.216C79.2961 152.736 82.1761 152.448 85.2481 152.448H87.2641V140.352C81.8881 135.936 78.4321 129.216 78.3361 121.728C75.8401 120.672 74.1121 118.176 74.1121 115.296V111.552C72.1921 110.208 70.6561 108.48 69.9841 106.464C68.9281 103.584 69.6001 100.704 72.0001 98.688C72.4801 98.304 73.0561 98.112 73.6321 98.112H125.376C126.24 101.664 127.584 105.12 129.312 108.384V108.48H129.408V108.576V108.672H129.504V108.768V108.864H129.6V108.96L129.696 109.056L130.08 109.728L128.736 111.072C127.968 111.936 127.392 112.896 127.2 114.048C126.816 114.048 126.528 114.048 126.144 114.048ZM72.0961 90.816L65.0881 71.712C64.8001 71.04 64.8961 70.272 65.2801 69.6C65.5681 68.928 66.2401 68.448 66.9121 68.256C72.7681 66.912 77.4721 65.664 81.6001 64.608C92.7361 61.824 98.2081 60.384 104.064 60.384C109.824 60.384 115.296 61.824 126.336 64.608C127.488 64.896 128.736 65.184 129.984 65.472L129.696 66.048C124.704 75.072 123.072 85.536 124.896 95.424H73.6321C73.1521 95.424 72.5761 95.52 72.0961 95.712V90.816ZM105.312 145.92H102.816C99.0721 145.92 95.6161 145.152 92.5441 143.712V154.08L104.064 167.136L115.488 154.08L115.584 143.712C112.416 145.152 108.96 145.92 105.312 145.92ZM135.936 209.856H114.624L109.536 181.152L112.032 178.08C113.664 179.136 115.392 180.864 116.544 179.328L134.592 153.792C151.2 157.824 161.952 170.112 161.952 186.528V191.808H138.912C138.912 189.888 139.296 187.488 137.472 187.488C136.608 187.488 135.936 188.16 135.936 188.928V209.856ZM111.744 209.856H96.3841L100.896 184.128C104.256 188.352 103.872 188.352 107.232 184.128L111.744 209.856ZM93.4081 209.856H72.0961V188.928C72.0961 187.008 69.2161 187.008 69.2161 188.928V191.808H46.0801V186.528C46.0801 170.112 56.9281 157.824 73.4401 153.792L91.5841 179.328C92.6401 180.864 94.3681 179.136 96.0001 178.08L98.4961 181.152L93.4081 209.856ZM69.2161 209.856H48.7681C47.3281 209.856 46.0801 208.608 46.0801 207.168V194.688H69.2161V209.856ZM98.4961 176.448L104.064 172.896L109.536 176.448L104.064 183.456L98.4961 176.448Z" fill="white"/>
</svg>
