<svg width="192" height="178" viewBox="0 0 192 178" fill="none" xmlns="http://www.w3.org/2000/svg">
<path d="M185.268 63.4351L181.959 65.344V78.8769L178.654 76.968V50.24L173.693 47.3787L168.735 50.24V57.8754L163.774 55.0142L160.469 56.923V38.6932L153.855 34.8755L150.55 36.7844V43.5569L145.589 46.4223V52.1488L140.627 49.2876L135.67 52.1488V57.8754L130.709 55.0142V21.1269L125.747 18.2656L120.79 21.1269V35.1726L117.481 37.0815V29.6618L112.524 26.8005L107.562 29.6618V41.8679L102.605 39.0066L99.296 40.9155V46.6421L94.3387 43.7767V20.8704L89.3773 18.0051L84.4159 20.8704V35.9215L77.8021 32.1038L72.8447 34.9691V73.1503L190.229 140.921V66.3004L185.268 63.4351Z" fill="#F0F0F0"/>
<path d="M15.0785 39.5638L14.875 39.9163L191.776 142.05L191.98 141.698L15.0785 39.5638Z" fill="#E0E0E0"/>
<path d="M172.044 154.283L186.92 145.691L185.263 144.738L170.403 153.338L172.044 154.283Z" fill="#E0E0E0"/>
<path d="M167.084 151.417L181.96 142.83L180.307 141.873L165.443 150.473L167.084 151.417Z" fill="#E0E0E0"/>
<path d="M162.122 148.556L176.998 139.964L175.345 139.012L160.485 147.612L162.122 148.556Z" fill="#E0E0E0"/>
<path d="M157.165 145.691L172.041 137.103L170.384 136.146L155.524 144.747L157.165 145.691Z" fill="#E0E0E0"/>
<path d="M152.202 142.83L167.078 134.238L165.425 133.281L150.562 141.881L152.202 142.83Z" fill="#E0E0E0"/>
<path d="M147.243 139.964L162.119 131.372L160.466 130.42L145.606 139.02L147.243 139.964Z" fill="#E0E0E0"/>
<path d="M142.284 137.103L157.16 128.511L155.503 127.555L140.644 136.155L142.284 137.103Z" fill="#E0E0E0"/>
<path d="M137.323 134.238L152.199 125.646L150.546 124.693L135.683 133.293L137.323 134.238Z" fill="#E0E0E0"/>
<path d="M132.361 131.372L147.237 122.785L145.584 121.828L130.725 130.428L132.361 131.372Z" fill="#E0E0E0"/>
<path d="M127.405 128.511L142.281 119.919L140.629 118.967L125.765 127.567L127.405 128.511Z" fill="#E0E0E0"/>
<path d="M122.443 125.646L137.319 117.058L135.667 116.102L120.803 124.702L122.443 125.646Z" fill="#E0E0E0"/>
<path d="M117.481 122.784L132.357 114.193L130.705 113.236L115.845 121.836L117.481 122.784Z" fill="#E0E0E0"/>
<path d="M112.524 119.919L127.4 111.327L125.748 110.375L110.884 118.975L112.524 119.919Z" fill="#E0E0E0"/>
<path d="M107.562 117.058L122.438 108.466L120.786 107.51L105.922 116.11L107.562 117.058Z" fill="#E0E0E0"/>
<path d="M102.602 114.193L117.478 105.601L115.826 104.648L100.966 113.248L102.602 114.193Z" fill="#E0E0E0"/>
<path d="M97.6432 111.327L112.519 102.739L110.867 101.783L96.0029 110.383L97.6432 111.327Z" fill="#E0E0E0"/>
<path d="M92.6822 108.466L107.558 99.8743L105.906 98.9219L91.042 107.522L92.6822 108.466Z" fill="#E0E0E0"/>
<path d="M87.7201 105.601L102.596 97.0129L100.944 96.0564L86.084 104.656L87.7201 105.601Z" fill="#E0E0E0"/>
<path d="M82.7643 102.74L97.6403 94.1476L95.9879 93.1912L81.124 101.791L82.7643 102.74Z" fill="#E0E0E0"/>
<path d="M77.8023 99.8744L92.6784 91.2825L91.026 90.3301L76.1621 98.9301L77.8023 99.8744Z" fill="#E0E0E0"/>
<path d="M72.8403 97.013L87.7163 88.4211L86.0639 87.4646L71.2041 96.0646L72.8403 97.013Z" fill="#E0E0E0"/>
<path d="M67.8834 94.1478L82.7595 85.5559L81.107 84.6035L66.2432 93.2035L67.8834 94.1478Z" fill="#E0E0E0"/>
<path d="M62.9225 91.2823L77.7985 82.6945L76.1461 81.738L61.2822 90.3381L62.9225 91.2823Z" fill="#E0E0E0"/>
<path d="M57.9614 88.421L72.8374 79.8291L71.185 78.8767L56.3252 87.4767L57.9614 88.421Z" fill="#E0E0E0"/>
<path d="M53.0025 85.5558L67.8786 76.9679L66.2261 76.0115L51.3623 84.6115L53.0025 85.5558Z" fill="#E0E0E0"/>
<path d="M48.0426 82.6944L62.9186 74.1025L61.2662 73.1501L46.4023 81.7461L48.0426 82.6944Z" fill="#E0E0E0"/>
<path d="M43.0795 79.8292L57.9556 71.2414L56.3031 70.2849L41.4434 78.8849L43.0795 79.8292Z" fill="#E0E0E0"/>
<path d="M38.1236 76.968L52.9997 68.3761L51.3472 67.4197L36.4834 76.0197L38.1236 76.968Z" fill="#E0E0E0"/>
<path d="M33.1617 74.1026L48.0378 65.5107L46.3853 64.5583L31.5215 73.1584L33.1617 74.1026Z" fill="#E0E0E0"/>
<path d="M28.1996 71.2415L43.0757 62.6496L41.4233 61.6931L26.5635 70.2931L28.1996 71.2415Z" fill="#E0E0E0"/>
<path d="M23.2428 68.3761L38.1188 59.7842L36.4664 58.8318L21.6025 67.4318L23.2428 68.3761Z" fill="#E0E0E0"/>
<path d="M18.2818 65.5106L33.1579 56.9228L31.5054 55.9663L16.6416 64.5663L18.2818 65.5106Z" fill="#E0E0E0"/>
<path d="M13.3207 62.6493L28.1968 54.0574L26.5443 53.105L11.6846 61.7009L13.3207 62.6493Z" fill="#E0E0E0"/>
<path d="M8.36191 59.7843L23.238 51.1965L21.5855 50.24L6.72168 58.84L8.36191 59.7843Z" fill="#E0E0E0"/>
<path d="M3.40195 56.9229L18.278 48.331L16.6256 47.3745L1.76172 55.9745L3.40195 56.9229Z" fill="#E0E0E0"/>
<path d="M173.698 155.239L0.101562 55.014L0.870804 54.5623L174.471 154.791L173.698 155.239Z" fill="#37474F"/>
<path d="M187.799 147.095L14.2109 46.8739L14.9802 46.4221L188.572 146.647L187.799 147.095Z" fill="#37474F"/>
<path d="M0.203503 61.5267L0 61.8792L176.901 164.013L177.105 163.661L0.203503 61.5267Z" fill="#E0E0E0"/>
<path d="M38.1283 92.9225V177.649H8.37207V96.899C8.37207 83.4108 17.257 77.6069 28.2136 83.9318C31.8237 86.0157 35.21 89.1618 38.1283 92.9225Z" fill="#E0E0E0"/>
<path d="M92.6829 177.653V124.425C89.7647 120.664 86.3784 117.506 82.7683 115.434C71.8117 109.109 62.9268 114.913 62.9268 128.401V177.649L92.6829 177.653Z" fill="#E0E0E0"/>
<path d="M147.242 177.653V155.935C144.323 152.175 140.937 149.016 137.327 146.944C126.37 140.62 117.485 146.424 117.485 159.912V177.653H147.242Z" fill="#E0E0E0"/>
<path d="M63.109 177.653V128.405C63.109 121.751 65.3638 116.635 69.2873 114.368C72.9178 112.272 77.6757 112.707 82.6778 115.589C93.5652 121.873 102.426 137.897 102.426 151.303V177.649H102.788V151.308C102.788 137.787 93.8338 121.621 82.8447 115.275C77.7205 112.32 72.8405 111.885 69.092 114.054C64.9894 116.419 62.7305 121.515 62.7305 128.405V177.653H63.109Z" fill="#E0E0E0"/>
<path d="M117.664 177.653V159.895C117.664 153.245 119.919 148.129 123.843 145.862C127.477 143.762 132.231 144.201 137.233 147.083C146.753 152.582 154.735 165.52 156.574 177.649H156.941C155.085 165.402 147.034 152.325 137.404 146.769C132.284 143.815 127.396 143.379 123.652 145.548C119.549 147.917 117.29 153.013 117.29 159.899V177.657L117.664 177.653Z" fill="#E0E0E0"/>
<path d="M48.2336 119.805V177.649H47.8714V119.805C47.8714 110.892 43.956 100.823 38.1276 93.2278C35.1931 89.3979 31.7743 86.1947 28.1234 84.0905C23.1173 81.2008 18.3553 80.7653 14.733 82.8695C10.8054 85.1365 8.55462 90.2526 8.55462 96.9071V177.657H8.19238V96.899C8.19238 90.0124 10.4513 84.9167 14.5498 82.548C18.2983 80.3827 23.1824 80.8182 28.3025 83.769C39.2917 90.1223 48.2336 106.285 48.2336 119.805Z" fill="#E0E0E0"/>
<path d="M102.788 151.308H102.426V177.649H102.788V151.308Z" fill="#E0E0E0"/>
<path d="M63.1132 128.401H62.751V177.653H63.1132V128.401Z" fill="#E0E0E0"/>
<path d="M59.6169 14.2036C62.8965 14.2036 65.5551 11.5449 65.5551 8.26536C65.5551 4.98578 62.8965 2.32715 59.6169 2.32715C56.3373 2.32715 53.6787 4.98578 53.6787 8.26536C53.6787 11.5449 56.3373 14.2036 59.6169 14.2036Z" fill="#FFBDA7"/>
<path d="M28.1365 5.9291C25.9671 5.56686 24.0664 7.67515 23.0855 10.2271C21.4575 8.87175 17.884 7.63445 16.4961 9.55959C18.6492 8.33857 21.2581 9.29097 22.9634 10.8498C23.0814 10.9434 23.3948 11.0248 23.4722 10.7765C24.3594 7.96413 26.2439 6.23435 28.1365 5.9291Z" fill="#455A64"/>
<path d="M17.2731 14.6147C15.6166 14.2077 14.0659 16.2427 13.6345 17.8707C12.4582 16.723 10.5697 15.4694 9.00684 16.5113C10.9279 16.0433 12.2629 17.0364 13.4839 18.3469C13.5694 18.4283 13.8339 18.5179 13.8909 18.3225C14.3508 16.4218 15.812 14.7327 17.2731 14.6147Z" fill="#455A64"/>
<path d="M126.518 2.74231C126.518 1.24453 128.146 0.202597 130.022 0.0275844C132.212 -0.179988 133.767 0.796826 133.82 2.52253C135.252 1.93644 136.767 2.31496 136.669 3.89007C137.039 3.45864 138.435 3.48306 138.936 3.59295C139.208 3.66938 139.461 3.80389 139.677 3.98726C139.893 4.17063 140.066 4.3985 140.185 4.65524C140.305 4.90879 140.35 5.19106 140.316 5.46925C141.15 5.19656 143.051 5.02968 143.527 5.79485C144.373 7.16239 140.991 7.20309 140.312 6.79202C140.169 7.8543 136.535 8.01304 135.655 7.04843C134.968 7.74034 133.983 7.89093 132.916 7.95606C131.117 8.06188 130.018 7.45137 128.614 6.73504C127.092 8.02525 124.455 8.04967 123.079 6.57224C122.729 6.90191 121.764 7.00366 120.991 6.82051C120.482 6.69841 120.364 6.48269 120.364 6.48269C120.065 6.6099 119.752 6.70407 119.432 6.76353C118.435 6.9711 116.583 6.76353 117.361 5.85184C117.625 5.54658 118.582 5.35529 118.989 5.44483C119.424 4.59012 121.17 3.78018 122.171 4.50058C122.208 3.46678 123.156 2.65684 124.487 2.46555C124.951 2.38008 126.026 2.31903 126.518 2.74231Z" fill="#F5F5F5"/>
<path d="M146.412 14.4153C146.846 14.2649 147.303 14.1892 147.763 14.1914C148.202 14.167 148.341 14.0815 148.426 13.992C148.856 13.3974 149.476 12.9672 150.183 12.7726C150.891 12.578 151.644 12.6305 152.317 12.9216C152.52 12.3355 152.935 11.8469 153.481 11.5529C154.027 11.2588 154.663 11.1808 155.264 11.3343C155.244 9.97078 157.01 8.54626 158.573 8.24508C160.136 7.9439 161.377 8.11484 162.211 9.11607C163.16 7.34967 166.75 6.91824 168.667 7.89506C169.77 8.46079 170.702 9.03467 171.149 10.0644C171.44 10.7017 171.569 11.4004 171.528 12.0994C172.297 11.4482 173.811 11.2854 174.812 11.6924C175.891 12.132 175.956 12.9541 175.993 13.7885C176.642 13.6118 177.326 13.6118 177.975 13.7885C178.654 14.0042 179.041 14.5496 178.939 14.9851C179.481 14.9851 180.763 15.4287 180.604 15.9985C180.425 16.6375 178.952 16.5399 178.398 16.5114C177.881 16.4585 177.368 16.3674 176.864 16.2387C176.602 16.3298 176.327 16.3753 176.05 16.373C175.109 16.3486 174.723 15.9375 174.576 15.5875C174.1 16.5439 172.456 17.244 171.296 17.5167C169.114 18.0295 166.05 17.6306 164.743 15.9823C164.582 16.2859 164.357 16.5511 164.084 16.7596C163.496 17.2124 162.788 17.4815 162.049 17.533C161.157 17.5981 158.76 17.6673 158.117 16.2346C157.62 17.1666 155.48 17.5574 153.868 17.2928C153.242 17.186 152.635 16.99 152.065 16.7108C151.715 16.5277 151.375 16.3252 151.047 16.1044C150.92 16.0132 150.77 15.958 150.614 15.9444C150.458 15.9308 150.301 15.9593 150.16 16.027C149.008 16.4091 147.759 16.3833 146.623 15.9538C145.728 15.5468 145.553 14.7816 146.412 14.4153Z" fill="#F5F5F5"/>
<path d="M13.7441 64.2572C13.854 53.9437 15.1158 39.2345 15.3477 36.5809L35.3806 25.0178C35.755 28.9739 36.8702 41.4893 36.9068 50.8912L13.7441 64.2572Z" fill="#455A64"/>
<path d="M77.3991 47.5334L36.0676 23.6707L14.5899 36.0803C14.5899 36.0803 12.9375 54.2164 12.9375 65.6696L54.2689 89.5323L79.0678 75.2139C79.0515 63.7607 77.3991 47.5334 77.3991 47.5334Z" fill="#E0E0E0"/>
<path d="M54.3591 83.8707C54.294 85.8569 54.2533 87.7739 54.2533 89.5322L12.9219 65.6694C12.9219 63.9112 12.9626 62.0064 13.0277 60.0039L54.3591 83.8707Z" fill="#003479"/>
<path opacity="0.2" d="M54.3591 83.8707C54.294 85.8569 54.2533 87.7739 54.2533 89.5322L12.9219 65.6694C12.9219 63.9112 12.9626 62.0064 13.0277 60.0039L54.3591 83.8707Z" fill="black"/>
<path d="M55.9044 59.9431L77.3984 47.5334C77.3984 47.5334 79.0508 63.7608 79.0508 75.2098L54.252 89.5283C54.252 78.0792 55.9044 59.9431 55.9044 59.9431Z" fill="#E0E0E0"/>
<path opacity="0.2" d="M55.9044 59.9431L77.3984 47.5334C77.3984 47.5334 79.0508 63.7608 79.0508 75.2098L54.252 89.5283C54.252 78.0792 55.9044 59.9431 55.9044 59.9431Z" fill="black"/>
<path d="M55.9062 59.9428V58.9863L77.4002 46.5808V47.5332L55.9062 59.9428Z" fill="#003479"/>
<path d="M14.5732 36.0803V35.1238L36.0672 22.7183V23.6707L14.5732 36.0803Z" fill="#003479"/>
<path d="M55.9047 58.9865L14.5732 35.1238L36.0672 22.7183L77.3986 46.581L55.9047 58.9865Z" fill="#003479"/>
<path opacity="0.3" d="M55.9047 58.9865L14.5732 35.1238L36.0672 22.7183L77.3986 46.581L55.9047 58.9865Z" fill="white"/>
<path d="M55.9047 58.9865V59.943L14.5732 36.0802V35.1238L55.9047 58.9865Z" fill="#003479"/>
<path opacity="0.15" d="M55.9047 58.9865V59.943L14.5732 36.0802V35.1238L55.9047 58.9865Z" fill="white"/>
<path d="M53.6623 60.5617C53.3489 64.2247 52.661 72.8126 52.3395 80.798L15.0293 59.2471C15.363 51.1721 16.059 42.511 16.3561 39.0107L53.6623 60.5617Z" fill="#37474F"/>
<path d="M16.6973 58.3396C16.974 52.1409 17.4462 45.7224 17.7677 41.7134L51.9562 61.4532C51.6713 64.8801 51.1421 71.4085 50.8369 78.0468L16.6973 58.3396Z" fill="#455A64"/>
<path d="M25.3965 65.238L27.4722 66.4346C27.8019 58.3922 28.4938 49.7474 28.795 46.2024L26.7233 45.0017C26.4221 48.5467 25.7262 57.1875 25.3965 65.238Z" fill="#37474F"/>
<path d="M38.0547 72.5479L40.1263 73.7445C40.456 65.698 41.152 57.0573 41.4532 53.5082L39.3815 52.3279C39.0803 55.8566 38.3844 64.4973 38.0547 72.5479Z" fill="#37474F"/>
<path d="M27.8008 51.3511V52.1651L52.5996 66.4835V65.6695L27.8008 51.3511Z" fill="#37474F"/>
<path d="M17.5947 41.3755L17.5662 41.697C17.2935 45.1281 16.7848 51.8722 16.4958 58.3313C16.215 63.5817 16.2231 64.8434 16.2312 66.1866C16.2312 66.4226 16.2312 66.6587 16.2312 66.9232V67.0372L25.3685 72.3283V71.9823C25.3685 71.9416 25.4255 67.9652 25.6738 63.4352C25.9587 57.3667 26.4267 51.0582 26.7686 46.8334V46.7073L17.5947 41.3755ZM16.6383 66.2028C16.6383 64.8679 16.6383 63.6102 16.9028 58.368C17.1836 52.096 17.668 45.588 17.9488 42.0877L21.7665 44.2937C21.5101 47.7248 20.9891 54.363 20.6961 60.7612C20.4153 66.0156 20.4234 67.2733 20.4315 68.6164C20.4315 68.7426 20.4315 68.8728 20.4315 69.003L16.626 66.8052C16.626 66.5732 16.626 66.386 16.626 66.1866L16.6383 66.2028ZM25.2749 63.4108C25.0714 67.1919 24.9981 70.5782 24.9778 71.6445L20.8508 69.2554C20.8508 69.0397 20.8508 68.8484 20.8508 68.6327C20.8508 67.2977 20.8508 66.04 21.1153 60.7937C21.3961 54.5136 21.8805 48.0097 22.1613 44.5135L26.3657 46.9555C26.0197 51.1355 25.5557 57.383 25.2749 63.3945V63.4108Z" fill="#263238"/>
<path d="M62.5185 41.6277L44.3335 31.127L39.3721 33.9923V34.3504L57.5571 44.8512L62.5185 41.9859V41.6277Z" fill="#003479"/>
<path d="M39.3721 33.9923L57.5571 44.493L62.5185 41.6277L44.3335 31.127L39.3721 33.9923Z" fill="#003479"/>
<path opacity="0.3" d="M39.3721 33.9924L57.5571 44.4931L62.5185 41.6278L44.3335 31.2573L39.3721 33.9924Z" fill="white"/>
<path opacity="0.15" d="M39.3721 33.9924L57.5571 44.4932V44.8513L39.3721 34.3506V33.9924Z" fill="black"/>
<path d="M57.5576 44.493L62.519 41.6277V41.9858L57.5576 44.8512V44.493Z" fill="#003479"/>
<path d="M57.5574 44.4971L39.3724 33.9963L34.415 36.8617V37.8141L52.6001 47.7165L57.5574 44.8553V44.4971Z" fill="#EBEBEB"/>
<path d="M34.415 36.8617L52.6001 47.3624L57.5574 44.4971L39.3724 33.9963L34.415 36.8617Z" fill="#003479"/>
<path opacity="0.6" d="M34.415 36.8617L52.6001 47.3624L57.5574 44.4971L39.3724 33.9963L34.415 36.8617Z" fill="white"/>
<path d="M52.5996 47.3624L57.5569 44.4971V44.8552L52.5996 47.7165V47.3624Z" fill="#003479"/>
<path opacity="0.3" d="M52.5996 47.3624L57.5569 44.4971V44.8552L52.5996 47.7165V47.3624Z" fill="white"/>
<path d="M52.5995 47.3543L34.4105 36.8577L29.4531 39.7189V40.0771L47.6381 50.5778L52.5995 47.7125V47.3543Z" fill="#003479"/>
<path d="M29.4531 39.7189L47.6381 50.2197L52.5995 47.3543L34.4105 36.8577L29.4531 39.7189Z" fill="#003479"/>
<path opacity="0.3" d="M29.7119 39.7189L47.6405 50.2197L52.6019 47.3543L34.4128 36.8577L29.7119 39.7189Z" fill="white"/>
<path opacity="0.15" d="M29.4531 39.719L47.6381 50.2197V50.5779L29.4531 40.0772V39.719Z" fill="white"/>
<path d="M47.6387 50.2196L52.6001 47.3542V47.7124L47.6387 50.5777V50.2196Z" fill="#003479"/>
<path d="M52.2578 46.1578L55.4935 44.2938C55.6889 44.1798 55.7906 44.0577 55.7214 44.017C55.5505 44.0032 55.3802 44.0508 55.2412 44.1513L52.0055 46.0154C51.8101 46.1294 51.7084 46.2515 51.7816 46.2922C51.8549 46.3329 52.0665 46.2718 52.2578 46.1578Z" fill="#455A64"/>
<path d="M50.8447 45.3437L54.0804 43.4796C54.2758 43.3656 54.3775 43.2435 54.3084 43.2028C54.1378 43.1867 53.9672 43.233 53.8281 43.3331L50.5924 45.2012C50.397 45.3111 50.2953 45.4332 50.3645 45.4739C50.5352 45.492 50.7065 45.4455 50.8447 45.3437Z" fill="#455A64"/>
<path d="M49.4334 44.5257L52.6691 42.6616C52.8645 42.5476 52.9662 42.4255 52.893 42.3848C52.722 42.3713 52.5519 42.4189 52.4127 42.5191L49.1852 44.3832C48.9898 44.4972 48.888 44.6193 48.9572 44.66C49.1269 44.6728 49.2955 44.6252 49.4334 44.5257Z" fill="#455A64"/>
<path d="M48.0206 43.7117L51.2766 41.8435C51.472 41.7336 51.5737 41.6115 51.5005 41.5708C51.3298 41.5532 51.1586 41.5996 51.0202 41.701L47.7641 43.5651C47.5728 43.6791 47.4711 43.8012 47.5403 43.8419C47.6095 43.8826 47.8252 43.8215 48.0206 43.7117Z" fill="#455A64"/>
<path d="M46.6099 42.8935L49.8659 41.0294C50.0613 40.9154 50.159 40.7933 50.0898 40.7526C50.0206 40.7119 49.8049 40.773 49.6095 40.8869L46.3535 42.751C46.1581 42.865 46.0604 42.9871 46.1296 43.0278C46.3005 43.0413 46.4707 42.9937 46.6099 42.8935Z" fill="#455A64"/>
<path d="M45.1974 42.0796L48.4535 40.2114C48.6488 40.1015 48.7465 39.9754 48.6773 39.9387C48.5066 39.9211 48.3355 39.9675 48.1971 40.069L44.941 41.9331C44.7457 42.047 44.6439 42.1691 44.7172 42.2098C44.7904 42.2505 45.0021 42.1895 45.1974 42.0796Z" fill="#455A64"/>
<path d="M43.7834 41.2615L47.0394 39.3975C47.2307 39.2835 47.3325 39.1614 47.2633 39.1207C47.0927 39.105 46.9222 39.1512 46.783 39.2509L43.527 41.1191C43.3316 41.229 43.2298 41.3552 43.3031 41.3918C43.4738 41.4094 43.645 41.363 43.7834 41.2615Z" fill="#455A64"/>
<path d="M42.3682 40.4476L45.6242 38.5795C45.8196 38.4696 45.9213 38.3434 45.8521 38.3068C45.6814 38.2887 45.5101 38.3352 45.3719 38.437L42.1158 40.3011C41.9205 40.4151 41.8187 40.5372 41.8879 40.5779C42.0585 40.594 42.2291 40.5477 42.3682 40.4476Z" fill="#455A64"/>
<path d="M40.9561 39.6294L44.2121 37.7653C44.4075 37.6513 44.5092 37.5292 44.436 37.4885C44.3627 37.4478 44.1511 37.4885 43.9598 37.6188L40.7037 39.4869C40.5084 39.5968 40.4066 39.723 40.4758 39.7596C40.6465 39.7777 40.8178 39.7312 40.9561 39.6294Z" fill="#455A64"/>
<path d="M39.5432 38.8154L42.7992 36.9473C42.9946 36.8374 43.0963 36.7112 43.0231 36.6746C42.8524 36.6569 42.6812 36.7033 42.5428 36.8048L39.3071 38.6689C39.1158 38.7829 39.0141 38.905 39.0833 38.9457C39.1524 38.9864 39.3478 38.9253 39.5432 38.8154Z" fill="#455A64"/>
<path d="M38.1313 37.9973L41.3874 36.1332C41.5828 36.0192 41.6804 35.8971 41.6112 35.8564C41.5421 35.8157 41.3263 35.8564 41.131 35.9867L37.8749 37.8548C37.6796 37.9647 37.5819 38.0909 37.6511 38.1275C37.8218 38.1452 37.9929 38.0988 38.1313 37.9973Z" fill="#455A64"/>
<path d="M36.7178 37.1792L39.9535 35.3151C40.1488 35.2012 40.2465 35.0791 40.1773 35.0384C40.0064 35.0249 39.8362 35.0725 39.6971 35.1727L36.441 37.0368C36.2457 37.1507 36.1439 37.2728 36.2172 37.3135C36.2904 37.3542 36.5224 37.2932 36.7178 37.1792Z" fill="#455A64"/>
<path d="M82.3558 77.1266C82.3192 67.7248 81.204 55.2094 80.8295 51.2533L76.7106 48.8723L56.6778 60.4353C56.4458 63.0972 55.1841 77.8063 55.0742 88.1117L59.1931 90.4887L82.3558 77.1266Z" fill="#37474F"/>
<path d="M56.6787 60.4353L60.7976 62.8163L80.8304 51.2533L76.7115 48.8723L56.6787 60.4353Z" fill="#455A64"/>
<path d="M59.1943 90.497C59.3083 80.1875 60.5659 65.4783 60.802 62.8206L80.8308 51.2576C81.2052 55.2137 82.3204 67.7291 82.357 77.1309L59.1943 90.497Z" fill="#263238"/>
<path d="M59.1943 90.4969C59.3083 80.1875 60.5659 65.4783 60.802 62.8205L80.8308 51.2534C81.2052 55.2136 82.3204 67.729 82.357 77.1308L59.1943 90.4969Z" fill="#455A64"/>
<path d="M122.854 73.7773L81.5185 49.9146L60.0286 62.3242C60.0286 62.3242 58.3721 80.4603 58.3721 91.9135L99.7035 115.776L124.502 101.458C124.502 90.0046 122.854 73.7773 122.854 73.7773Z" fill="#E0E0E0"/>
<path d="M99.8093 110.123C99.7442 112.109 99.7035 114.026 99.7035 115.784L58.3721 91.9133C58.3721 90.1551 58.4128 88.2503 58.4779 86.2478L99.8093 110.123Z" fill="#003479"/>
<path opacity="0.2" d="M99.8093 110.123C99.7442 112.109 99.7035 114.026 99.7035 115.784L58.3721 91.9133C58.3721 90.1551 58.4128 88.2503 58.4779 86.2478L99.8093 110.123Z" fill="black"/>
<path d="M101.355 86.1867L122.853 73.7771C122.853 73.7771 124.506 90.0044 124.506 101.453L99.707 115.772C99.703 104.323 101.355 86.1867 101.355 86.1867Z" fill="#E0E0E0"/>
<path opacity="0.2" d="M101.355 86.1867L122.853 73.7771C122.853 73.7771 124.506 90.0044 124.506 101.453L99.707 115.772C99.703 104.323 101.355 86.1867 101.355 86.1867Z" fill="black"/>
<path d="M101.358 86.1869V85.2304L122.848 72.8208V73.7773L101.358 86.1869Z" fill="#003479"/>
<path d="M60.0244 62.3241V61.3676L81.5184 48.958V49.9145L60.0244 62.3241Z" fill="#003479"/>
<path d="M101.36 85.2304L60.0244 61.3676L81.5184 48.958L122.85 72.8208L101.36 85.2304Z" fill="#003479"/>
<path opacity="0.3" d="M101.36 85.2304L60.0244 61.3676L81.5184 48.958L122.85 72.8208L101.36 85.2304Z" fill="white"/>
<path d="M101.36 85.2302V86.1866L60.0244 62.3239V61.3674L101.36 85.2302Z" fill="#003479"/>
<path opacity="0.15" d="M101.36 85.2302V86.1866L60.0244 62.3239V61.3674L101.36 85.2302Z" fill="white"/>
<path d="M99.1216 86.8053C98.8082 90.4683 98.1203 99.0561 97.7988 107.042L60.4805 85.4988C60.8142 77.4238 61.5102 68.7627 61.8073 65.2625L99.1216 86.8053Z" fill="#37474F"/>
<path d="M62.1484 84.5832C62.4252 78.3845 62.9014 71.966 63.2189 67.957L97.4073 87.6968C97.1224 91.1238 96.5933 97.6522 96.2881 104.29L62.1484 84.5832Z" fill="#455A64"/>
<path d="M70.8467 91.4819L72.9224 92.6785C73.2521 84.632 73.944 75.9913 74.2492 72.4422L72.1735 71.2456C71.8723 74.7906 71.1641 83.4314 70.8467 91.4819Z" fill="#37474F"/>
<path d="M83.5029 98.7917L85.5787 99.9883C85.9083 91.9418 86.6002 83.3011 86.9055 79.752L84.8298 78.5554C84.5286 82.0964 83.8326 90.7371 83.5029 98.7917Z" fill="#37474F"/>
<path d="M73.252 77.595V78.409L98.0508 92.7234V91.9134L73.252 77.595Z" fill="#37474F"/>
<path d="M63.0438 67.6191L63.0194 67.9407C62.7426 71.3717 62.2379 78.0955 61.9449 84.5709C61.6681 89.8254 61.6763 91.083 61.6844 92.4302V93.2808L70.8217 98.5719V98.2219C70.8217 98.1853 70.8786 94.2088 71.1228 89.6748C71.4078 83.6063 71.8758 77.2977 72.2177 73.073V72.9428L63.0438 67.6191ZM62.0914 92.4261C62.0914 91.0952 62.0914 89.8335 62.3519 84.5913C62.6327 78.3193 63.117 71.8113 63.3979 68.311L67.2156 70.5129C66.9388 73.9806 66.4423 80.6189 66.1533 87.017C65.8765 92.2715 65.8847 93.5291 65.8928 94.8763V95.263L62.0914 93.0651V92.4261ZM70.7281 89.6381C70.5205 93.4192 70.4472 96.8055 70.4269 97.8719L66.2998 95.4705V94.86C66.2998 93.5251 66.2998 92.2674 66.5603 87.0211C66.8412 80.741 67.3255 74.2371 67.6063 70.7409L71.8107 73.1829C71.4688 77.3791 71.0089 83.6267 70.7281 89.6381Z" fill="#263238"/>
<path d="M107.97 67.8716L89.7846 57.3708L84.8232 60.2362V60.5943L103.012 71.091L107.97 68.2298V67.8716Z" fill="#003479"/>
<path d="M84.8232 60.2362L103.012 70.7369L107.97 67.8716L89.7846 57.3708L84.8232 60.2362Z" fill="#003479"/>
<path opacity="0.3" d="M84.8232 60.236L103.012 70.7368L107.97 67.8715L89.7846 57.501L84.8232 60.236Z" fill="white"/>
<path opacity="0.15" d="M84.8232 60.2358L103.012 70.7366V71.0907L84.8232 60.594V60.2358Z" fill="black"/>
<path d="M103.013 70.7369L107.97 67.8716V68.2297L103.013 71.091V70.7369Z" fill="#003479"/>
<path d="M103.013 70.741L84.8235 60.2402L79.8662 63.1056V64.0579L98.0512 73.9604L103.013 71.0991V70.741Z" fill="#EBEBEB"/>
<path d="M79.8662 63.1056L98.0512 73.6022L103.013 70.741L84.8235 60.2402L79.8662 63.1056Z" fill="#003479"/>
<path opacity="0.6" d="M79.8662 63.1056L98.0512 73.6022L103.013 70.741L84.8235 60.2402L79.8662 63.1056Z" fill="white"/>
<path d="M98.0508 73.602L103.012 70.7407V71.0989L98.0508 73.9601V73.602Z" fill="#003479"/>
<path opacity="0.3" d="M98.0508 73.602L103.012 70.7407V71.0989L98.0508 73.9601V73.602Z" fill="white"/>
<path d="M98.0507 73.5982L79.8657 63.0974L74.9043 65.9627V66.3209L93.0893 76.8216L98.0507 73.9563V73.5982Z" fill="#003479"/>
<path d="M74.9043 65.9627L93.0893 76.4635L98.0507 73.5982L79.8657 63.0974L74.9043 65.9627Z" fill="#003479"/>
<path opacity="0.3" d="M75.1602 65.9627L93.0887 76.4635L98.0501 73.5982L79.8651 63.0974L75.1602 65.9627Z" fill="white"/>
<path opacity="0.15" d="M74.9043 65.9626L93.0893 76.4634V76.8216L74.9043 66.3208V65.9626Z" fill="white"/>
<path d="M93.0898 76.4635L98.0512 73.5981V73.9563L93.0898 76.8216V76.4635Z" fill="#003479"/>
<path d="M97.7124 72.4013L100.968 70.5372C101.164 70.4233 101.261 70.3012 101.192 70.2605C101.123 70.2198 100.907 70.2808 100.712 70.3907L97.456 72.2589C97.2606 72.3688 97.1629 72.4949 97.2321 72.5356C97.4031 72.5491 97.5733 72.5015 97.7124 72.4013Z" fill="#455A64"/>
<path d="M96.299 71.5876L99.5347 69.7195C99.726 69.6096 99.8277 69.4834 99.7585 69.4468C99.5878 69.4291 99.4167 69.4756 99.2783 69.577L96.0426 71.4574C95.8472 71.5714 95.7455 71.6935 95.8187 71.7342C95.892 71.7749 96.1036 71.6975 96.299 71.5876Z" fill="#455A64"/>
<path d="M94.8846 70.7694L98.1203 68.9053C98.3157 68.7913 98.4174 68.6692 98.3482 68.6285C98.1777 68.6128 98.0072 68.659 97.868 68.7587L94.6119 70.6269C94.4166 70.7368 94.3148 70.863 94.384 70.8996C94.5615 70.9234 94.7412 70.8766 94.8846 70.7694Z" fill="#455A64"/>
<path d="M93.4717 69.9554L96.7074 68.0872C96.9027 67.9773 97.0045 67.8511 96.9353 67.8145C96.7645 67.7961 96.5931 67.8425 96.455 67.9447L93.2193 69.8292C93.024 69.9431 92.9222 70.0652 92.9914 70.1059C93.1645 70.1159 93.3353 70.0623 93.4717 69.9554Z" fill="#455A64"/>
<path d="M92.0606 69.1372L95.2963 67.2731C95.4916 67.1591 95.5934 67.037 95.5201 66.9963C95.4469 66.9556 95.2352 67.0167 95.0399 67.1266L91.8042 69.0151C91.6129 69.125 91.5111 69.2511 91.5803 69.2878C91.7536 69.2996 91.9251 69.2459 92.0606 69.1372Z" fill="#455A64"/>
<path d="M90.647 68.3191L93.8827 66.455C94.078 66.3411 94.1798 66.219 94.1065 66.1783C93.9356 66.1648 93.7654 66.2124 93.6263 66.3126L90.3906 68.1767C90.1952 68.2906 90.0975 68.4127 90.1667 68.4534C90.2359 68.4941 90.4516 68.4331 90.647 68.3191Z" fill="#455A64"/>
<path d="M89.2339 67.5051L92.4696 65.641C92.6649 65.527 92.7626 65.4049 92.6934 65.3642C92.6242 65.3235 92.4085 65.3846 92.2132 65.4945L88.9775 67.3626C88.7821 67.4725 88.6844 67.5946 88.7536 67.6353C88.9243 67.653 89.0955 67.6066 89.2339 67.5051Z" fill="#455A64"/>
<path d="M87.8224 66.687L91.0581 64.8229C91.2494 64.709 91.3512 64.5869 91.282 64.5462C91.111 64.5327 90.9409 64.5803 90.8017 64.6805L87.566 66.5446C87.3707 66.6585 87.2689 66.7806 87.3422 66.8213C87.5131 66.8348 87.6833 66.7872 87.8224 66.687Z" fill="#455A64"/>
<path d="M86.4054 65.8731L89.6615 64.005C89.8568 63.8951 89.9586 63.773 89.8894 63.7323C89.7189 63.7165 89.5484 63.7628 89.4091 63.8625L86.1734 65.7307C85.9781 65.8405 85.8763 65.9627 85.9496 66.0034C86.0228 66.0441 86.2223 65.983 86.4054 65.8731Z" fill="#455A64"/>
<path d="M85.0021 65.0552L88.2582 63.1911C88.4535 63.0771 88.5553 62.955 88.4861 62.9143C88.3151 62.9001 88.1447 62.9478 88.0058 63.0486L84.7701 64.9127C84.5748 65.0267 84.473 65.1488 84.5422 65.1895C84.7063 65.1985 84.8686 65.1511 85.0021 65.0552Z" fill="#455A64"/>
<path d="M83.5812 64.2412L86.8373 62.373C87.0326 62.2632 87.1344 62.137 87.0611 62.1003C86.8904 62.0827 86.7192 62.1291 86.5809 62.2306L83.3492 64.0947C83.1539 64.2086 83.0521 64.3307 83.1213 64.3714C83.285 64.3823 83.4475 64.3363 83.5812 64.2412Z" fill="#455A64"/>
<path d="M82.1524 63.4228L85.4084 61.5587C85.6038 61.4448 85.7055 61.3227 85.6323 61.282C85.559 61.2413 85.3474 61.3023 85.152 61.4122L81.896 63.2804C81.7047 63.3902 81.6029 63.5164 81.6721 63.5571C81.8431 63.5706 82.0132 63.523 82.1524 63.4228Z" fill="#455A64"/>
<path d="M127.806 103.371C127.769 93.9688 126.658 81.4534 126.28 77.4932L122.161 75.1204L102.132 86.6793C101.896 89.3411 100.638 104.05 100.524 114.356L104.643 116.737L127.806 103.371Z" fill="#37474F"/>
<path d="M102.134 86.6792L106.253 89.0602L126.281 77.4931L122.163 75.1162L102.134 86.6792Z" fill="#455A64"/>
<path d="M104.644 116.741C104.758 106.431 106.015 91.7222 106.251 89.0644L126.28 77.4973C126.658 81.4575 127.77 93.9729 127.806 103.375L104.644 116.741Z" fill="#263238"/>
<path d="M104.647 116.741C104.757 106.431 106.015 91.7222 106.251 89.0644L126.28 77.4973C126.658 81.4575 127.769 93.9729 127.806 103.375L104.647 116.741Z" fill="#455A64"/>
<path d="M182.369 137.128C182.368 133.121 181.511 129.161 179.858 125.512L174.18 112.972C170.357 104.537 163.987 97.5118 155.967 92.8822L126.968 76.1421L105.478 88.5517C105.478 88.5517 103.825 106.688 103.825 118.141L135.718 136.578C141.988 140.197 148.688 143.013 155.661 144.959L163.114 147.042C165.549 147.724 168.096 147.912 170.606 147.595C173.115 147.278 175.535 146.464 177.725 145.199C179.139 144.379 180.313 143.202 181.128 141.785C181.944 140.369 182.371 138.762 182.369 137.128Z" fill="#E0E0E0"/>
<path d="M182.024 132.764C181.846 131.642 181.602 130.532 181.291 129.439L177.905 135.162L164.181 136.11C164.181 136.11 165.837 138.808 166.26 139.639C175.764 139.712 180.77 137.767 182.024 132.764Z" fill="#263238"/>
<path d="M165.969 137.299C165.978 137.459 166.022 137.615 166.099 137.755C166.176 137.896 166.283 138.018 166.412 138.113C166.816 138.384 167.27 138.571 167.747 138.665C168.225 138.759 168.716 138.756 169.192 138.658C169.599 138.589 170.059 138.361 170.1 137.95C170.185 137.058 168.508 136.729 167.898 136.619C167.287 136.509 166.071 136.472 165.969 137.299Z" fill="#FAFAFA"/>
<path d="M171.563 138.695C171.751 138.662 171.836 138.605 171.877 138.532C171.904 138.463 171.911 138.388 171.896 138.316C171.882 138.244 171.847 138.178 171.795 138.125C171.678 137.97 171.521 137.851 171.341 137.779C171.161 137.707 170.965 137.686 170.774 137.718C170.715 137.728 170.659 137.75 170.609 137.782C170.559 137.814 170.516 137.855 170.482 137.904C170.448 137.953 170.424 138.008 170.411 138.066C170.398 138.124 170.397 138.184 170.408 138.243C170.473 138.723 171.156 138.768 171.563 138.695Z" fill="#FAFAFA"/>
<path d="M181.989 132.508C181.857 132.593 181.703 132.637 181.546 132.633C181.389 132.63 181.237 132.579 181.109 132.488C180.393 131.959 180.865 130.86 181.061 130.481C181.16 130.291 181.291 130.119 181.447 129.972C181.993 130.754 182.025 131.857 181.989 132.508Z" fill="#FAFAFA"/>
<path d="M181.276 133.843C181.23 133.914 181.16 133.965 181.078 133.985C180.996 134.006 180.91 133.994 180.836 133.953C180.719 133.877 180.634 133.759 180.6 133.623C180.519 133.285 180.527 132.984 180.747 132.83C180.834 132.778 180.935 132.755 181.035 132.764C181.136 132.773 181.232 132.813 181.308 132.878C181.646 133.114 181.463 133.627 181.276 133.843Z" fill="#FAFAFA"/>
<path d="M182.218 138.772C181.868 141.157 177.648 146.098 169.813 145.931C161.978 145.764 155.352 142.02 145.262 136.359L103.931 112.492C103.866 114.474 103.829 116.387 103.829 118.145L135.718 136.578C141.988 140.197 148.688 143.013 155.661 144.959L163.114 147.042C165.549 147.723 168.096 147.91 170.605 147.594C173.114 147.277 175.535 146.463 177.725 145.199C178.897 144.521 179.908 143.595 180.686 142.487C181.464 141.378 181.991 140.113 182.231 138.78L182.218 138.772Z" fill="#003479"/>
<path opacity="0.2" d="M182.218 138.772C181.868 141.157 177.648 146.098 169.813 145.931C161.978 145.764 155.352 142.02 145.262 136.359L103.931 112.492C103.866 114.474 103.829 116.387 103.829 118.145L135.718 136.578C141.988 140.197 148.688 143.013 155.661 144.959L163.114 147.042C165.549 147.723 168.096 147.91 170.605 147.594C173.114 147.277 175.535 146.463 177.725 145.199C178.897 144.521 179.908 143.595 180.686 142.487C181.464 141.378 181.991 140.113 182.231 138.78L182.218 138.772Z" fill="black"/>
<path d="M105.478 88.5677V87.6113L126.967 75.2017V76.1581L105.478 88.5677Z" fill="#003479"/>
<path d="M156.882 92.4831L126.967 75.2017L105.478 87.6113L135.392 104.893C143.012 109.276 152.609 114.571 165.836 136.773L177.904 135.145L181.295 129.419C171.062 100.656 163.26 96.2846 156.882 92.4831Z" fill="#003479"/>
<path opacity="0.3" d="M156.882 92.4831L126.967 75.2017L105.478 87.6113L135.392 104.893C143.012 109.276 152.609 114.571 165.836 136.773L177.904 135.145L181.295 129.419C171.062 100.656 163.26 96.2846 156.882 92.4831Z" fill="white"/>
<path d="M179.502 129.252L176.909 133.644L166.327 134.34C158.907 122.052 152.961 115.674 147.503 111.071C156.103 108.133 161.793 104.746 165.004 100.969C169.204 105.768 173.979 113.884 179.502 129.252Z" fill="#37474F"/>
<path d="M178.614 129.179L176.416 132.903L166.766 133.473C163.479 127.97 159.717 122.765 155.524 117.917C161.096 115.654 166.029 112.951 169.969 109.577C172.855 114.677 175.716 121.173 178.614 129.179Z" fill="#455A64"/>
<path d="M135.394 104.893V105.849C143.013 110.233 153.827 118.389 164.181 136.11L165.838 136.774C152.61 114.571 143.013 109.276 135.394 104.893Z" fill="#003479"/>
<path opacity="0.15" d="M135.394 104.893V105.849C143.013 110.233 153.827 118.389 164.181 136.11L165.838 136.774C152.61 114.571 143.013 109.276 135.394 104.893Z" fill="white"/>
<path d="M135.392 104.893V105.849L105.478 88.5678V87.6113L135.392 104.893Z" fill="#003479"/>
<path opacity="0.15" d="M135.392 104.893V105.849L105.478 88.5678V87.6113L135.392 104.893Z" fill="white"/>
<path d="M143.314 133.322L105.996 111.751C106.33 103.676 107.026 95.0147 107.323 91.5144L136.22 108.202C142.138 111.62 147.515 115.764 151.845 121.055C155.439 125.44 158.719 130.072 161.662 134.917L151.894 138.288L143.314 133.322Z" fill="#37474F"/>
<path d="M149.952 120.55C149.952 120.55 150.408 123.806 152.134 136.774L159.745 134.185C159.745 134.185 154.262 125.691 149.952 120.55Z" fill="#455A64"/>
<path opacity="0.1" d="M149.952 120.55C149.952 120.55 150.408 123.806 152.134 136.774L159.745 134.185C159.745 134.185 154.262 125.691 149.952 120.55Z" fill="white"/>
<path d="M149.952 120.55C148.576 119.175 144.661 115.776 144.661 115.776C144.661 115.776 143.635 127.767 143.509 131.519L152.141 136.774L149.952 120.55Z" fill="#455A64"/>
<path d="M107.75 110.969C108.027 104.771 108.499 98.3523 108.816 94.3433L143.005 114.087C142.716 117.514 142.191 124.038 141.881 130.681L107.75 110.969Z" fill="#455A64"/>
<path d="M130.777 126.069L132.849 127.266C133.179 119.219 133.875 110.579 134.176 107.03L132.104 105.833C131.807 109.378 131.107 118.019 130.777 126.069Z" fill="#37474F"/>
<path d="M118.168 118.796L120.244 119.993C120.573 111.95 121.269 103.305 121.571 99.7603L119.499 98.5393C119.19 102.105 118.502 110.745 118.168 118.796Z" fill="#37474F"/>
<path d="M108.241 97.7825V98.5965L133.04 112.915V112.101L108.241 97.7825Z" fill="#37474F"/>
<path d="M133.843 108.495L133.818 108.812C133.541 112.247 133.037 118.987 132.748 125.447C132.467 130.701 132.475 131.959 132.483 133.306C132.483 133.538 132.483 133.778 132.483 134.039V134.136L141.62 139.427V139.077C141.62 139.037 141.677 135.064 141.926 130.53C142.211 124.458 142.679 118.149 143.021 113.924V113.798L133.843 108.495ZM132.89 133.302C132.89 131.967 132.89 130.709 133.155 125.467C133.436 119.191 133.92 112.683 134.197 109.166L138.018 111.372C137.738 114.84 137.241 121.478 136.956 127.876C136.675 133.131 136.683 134.389 136.692 135.736C136.692 135.862 136.692 135.988 136.692 136.143L132.89 133.941C132.89 133.693 132.89 133.489 132.886 133.29L132.89 133.302ZM141.527 130.514C141.319 134.295 141.246 137.681 141.23 138.748L137.099 136.346C137.099 136.126 137.099 135.919 137.099 135.719C137.099 134.389 137.099 133.127 137.363 127.885C137.644 121.605 138.128 115.101 138.405 111.584L142.614 114.026C142.268 118.239 141.804 124.486 141.523 130.502L141.527 130.514Z" fill="#263238"/>
<path d="M150.799 92.589L132.61 82.0923L127.652 84.9535V85.3117L145.837 95.8124L150.799 92.9471V92.589Z" fill="#003479"/>
<path d="M127.652 84.9535L145.837 95.4543L150.799 92.589L132.61 82.0923L127.652 84.9535Z" fill="#003479"/>
<path opacity="0.3" d="M127.652 84.9534L145.837 95.4542L150.799 92.5889L132.61 82.2224L127.652 84.9534Z" fill="white"/>
<path opacity="0.15" d="M127.652 84.9536L145.837 95.4544V95.8125L127.652 85.3118V84.9536Z" fill="black"/>
<path d="M145.837 95.4542L150.798 92.5889V92.947L145.837 95.8123V95.4542Z" fill="#003479"/>
<path d="M145.836 95.4585L127.651 84.9578L122.689 87.8231V88.7795L140.874 98.6779L145.836 95.8167V95.4585Z" fill="#EBEBEB"/>
<path d="M122.689 87.8231L140.874 98.3238L145.836 95.4585L127.651 84.9578L122.689 87.8231Z" fill="#003479"/>
<path opacity="0.6" d="M122.689 87.8231L140.874 98.3238L145.836 95.4585L127.651 84.9578L122.689 87.8231Z" fill="white"/>
<path d="M140.875 98.3236L145.836 95.4583V95.8164L140.875 98.6777V98.3236Z" fill="#003479"/>
<path opacity="0.3" d="M140.875 98.3236L145.836 95.4583V95.8164L140.875 98.6777V98.3236Z" fill="white"/>
<path d="M140.88 98.3196L122.691 87.8188L117.733 90.6801V91.0383L135.918 101.539L140.88 98.6737V98.3196Z" fill="#003479"/>
<path d="M117.733 90.6801L135.918 101.181L140.88 98.3196L122.691 87.8188L117.733 90.6801Z" fill="#003479"/>
<path opacity="0.3" d="M117.986 90.6801L135.919 101.181L140.88 98.3196L122.691 87.8188L117.986 90.6801Z" fill="white"/>
<path opacity="0.15" d="M117.733 90.6802L135.918 101.181V101.539L117.733 91.0383V90.6802Z" fill="white"/>
<path d="M135.917 101.181L140.878 98.3196V98.6737L135.917 101.539V101.181Z" fill="#003479"/>
<path d="M140.537 97.1232L143.773 95.2551C143.968 95.1411 144.07 95.019 143.997 94.9783C143.826 94.9648 143.656 95.0124 143.516 95.1126L140.285 96.9767C140.089 97.0907 139.988 97.2128 140.057 97.2535C140.227 97.2692 140.398 97.223 140.537 97.1232Z" fill="#455A64"/>
<path d="M139.134 96.3049L142.37 94.4408C142.565 94.3269 142.667 94.2048 142.593 94.1641C142.52 94.1234 142.308 94.1641 142.113 94.2943L138.877 96.1625C138.686 96.2724 138.584 96.3945 138.654 96.4352C138.824 96.4528 138.995 96.4064 139.134 96.3049Z" fill="#455A64"/>
<path d="M137.713 95.4705L140.949 93.6064C141.144 93.4924 141.242 93.3703 141.173 93.3296C141.002 93.3162 140.832 93.3638 140.693 93.464L137.457 95.328C137.262 95.442 137.164 95.5641 137.233 95.6048C137.404 95.6183 137.574 95.5707 137.713 95.4705Z" fill="#455A64"/>
<path d="M136.284 94.6567L139.52 92.7885C139.715 92.6787 139.813 92.5565 139.744 92.5158C139.675 92.4751 139.459 92.5362 139.264 92.6461L136.028 94.5142C135.833 94.6241 135.731 94.7462 135.804 94.7869C135.877 94.8276 136.105 94.7829 136.284 94.6567Z" fill="#455A64"/>
<path d="M134.889 93.8426L138.125 91.9785C138.316 91.8645 138.418 91.7424 138.348 91.7017C138.177 91.6882 138.007 91.7358 137.868 91.836L134.632 93.7001C134.437 93.8141 134.335 93.9362 134.409 93.9769C134.58 93.9903 134.75 93.9428 134.889 93.8426Z" fill="#455A64"/>
<path d="M133.471 93.0285L136.727 91.1603C136.922 91.0504 137.024 90.9242 136.955 90.8876C136.784 90.8696 136.613 90.916 136.475 91.0178L133.239 92.8819C133.044 92.9959 132.942 93.118 133.011 93.1587C133.175 93.1699 133.337 93.1239 133.471 93.0285Z" fill="#455A64"/>
<path d="M132.06 92.2146L135.295 90.3505C135.491 90.2365 135.592 90.1144 135.519 90.0737C135.446 90.033 135.234 90.0941 135.043 90.204L131.807 92.0803C131.612 92.1901 131.51 92.3163 131.579 92.357C131.751 92.3685 131.922 92.318 132.06 92.2146Z" fill="#455A64"/>
<path d="M130.648 91.4004L133.904 89.5322C134.099 89.4223 134.201 89.2962 134.127 89.2595C133.957 89.2419 133.786 89.2883 133.647 89.3898L130.391 91.2539C130.2 91.3678 130.098 91.4899 130.167 91.5306C130.236 91.5713 130.452 91.5184 130.648 91.4004Z" fill="#455A64"/>
<path d="M129.236 90.5866L132.472 88.7225C132.667 88.6086 132.765 88.4865 132.695 88.4458C132.626 88.4051 132.41 88.4661 132.215 88.576L128.979 90.4442C128.784 90.5541 128.686 90.6802 128.756 90.7169C128.926 90.7345 129.097 90.6881 129.236 90.5866Z" fill="#455A64"/>
<path d="M127.824 89.7724L131.08 87.9043C131.275 87.7944 131.373 87.6682 131.303 87.6316C131.133 87.614 130.962 87.6604 130.823 87.7618L127.588 89.6259C127.392 89.7399 127.29 89.862 127.364 89.9027C127.437 89.9434 127.628 89.8864 127.824 89.7724Z" fill="#455A64"/>
<path d="M126.41 88.9585L129.646 87.0944C129.837 86.9804 129.939 86.8583 129.87 86.8176C129.801 86.7769 129.585 86.8176 129.39 86.9479L126.154 88.816C125.959 88.9259 125.857 89.0521 125.93 89.0887C126.101 89.1064 126.272 89.0599 126.41 88.9585Z" fill="#455A64"/>
<path d="M124.995 88.1443L128.231 86.2762C128.426 86.1663 128.528 86.0401 128.459 85.9994C128.288 85.9856 128.117 86.0332 127.978 86.1337L124.743 87.9978C124.547 88.1118 124.446 88.2339 124.515 88.2746C124.685 88.2907 124.856 88.2444 124.995 88.1443Z" fill="#455A64"/>
</svg>
